<svg xmlns="http://www.w3.org/2000/svg" xmlns:xlink="http://www.w3.org/1999/xlink" width="706.478" height="716.468" viewBox="0 0 706.478 716.468">
  <defs>
    <clipPath id="clip-path">
      <path id="Path_147136" data-name="Path 147136" d="M-287.57,970.011a9.221,9.221,0,0,0-6.829-1.353,9.03,9.03,0,0,0-5.681,3.855,8.986,8.986,0,0,0,2.559,12.448q.278.183.568.345l.008,0a8.943,8.943,0,0,0,6.52.874l.185-.048a.1.1,0,0,1,.125.1q-.158,2.905-3.511,6.207a.188.188,0,0,0,.167.32c.11-.023.22-.048.329-.075a12.748,12.748,0,0,0,8.11-6.441c2.23-3.861,3.029-9,.634-12.973A10.061,10.061,0,0,0-287.57,970.011Z" transform="translate(301.563 -968.481)" fill="#00cafd"/>
    </clipPath>
  </defs>
  <g id="Group_131788" data-name="Group 131788" transform="translate(0.309 1.056)">
    <g id="Secure_login-pana" data-name="Secure login-pana" transform="translate(147.263 170.163)">
      <g id="freepik--background-complete--inject-13" transform="translate(0)" opacity="0.59">
        <rect id="Rectangle_110255" data-name="Rectangle 110255" width="476.952" height="373.07" transform="translate(68.374)" fill="#fafafa" opacity="0.08"/>
        <path id="Path_147348" data-name="Path 147348" d="M68.862,116.4h28.13a3.524,3.524,0,0,0,3.512-3.562V73.954a3.524,3.524,0,0,0-3.512-3.524H79.156L65.35,84.666v28.168a3.524,3.524,0,0,0,3.512,3.562Z" transform="translate(406.928 -25.058)" fill="#ebebeb"/>
        <path id="Path_147349" data-name="Path 147349" d="M96.056,70.43V81.394a3.272,3.272,0,0,1-3.272,3.272H82.25Z" transform="translate(390.028 -25.058)" fill="#f5f5f5"/>
        <path id="Path_147350" data-name="Path 147350" d="M96.025,79.87a3.625,3.625,0,0,1-2.88,3.524,1.654,1.654,0,0,1-.341.076c-1.377.253-10.434,1.857-10.434,1.655V82.182H92.9S95.532,82.093,96.025,79.87Z" transform="translate(389.908 -22.574)" fill="#e0e0e0"/>
        <path id="Path_147351" data-name="Path 147351" d="M68.857,116.416a3.713,3.713,0,0,1-.606-.076,3.562,3.562,0,0,1-1.592-.745,3.486,3.486,0,0,1-1.263-2.526c0-1.137,0-2.451,0-3.928V84.635h0l13.844-14.1H96.192a9.527,9.527,0,0,1,1.352,0A3.373,3.373,0,0,1,99.678,72a3.31,3.31,0,0,1,.682,1.693v38.387a8.123,8.123,0,0,1,0,1.478,3.411,3.411,0,0,1-2.893,2.716,9.981,9.981,0,0,1-1.377,0h0a13.1,13.1,0,0,0,1.4,0,3.411,3.411,0,0,0,1.377-.493,3.613,3.613,0,0,0,1.693-2.387,7.58,7.58,0,0,0,0-1.516V73.709a3.562,3.562,0,0,0-.669-1.857,3.689,3.689,0,0,0-2.362-1.465,7.39,7.39,0,0,0-1.389,0H79.1L65.27,84.61h0v28.433a3.562,3.562,0,0,0,1.263,2.526,3.676,3.676,0,0,0,1.629.733h.455Z" transform="translate(406.932 -25.078)" fill="#e0e0e0"/>
        <path id="Path_147352" data-name="Path 147352" d="M82.131,84.7H92.792a3.436,3.436,0,0,0,2.451-1.149,3.549,3.549,0,0,0,.682-1.263,3.789,3.789,0,0,0,.152-1.339V70.29a.72.72,0,0,0,0,.278V80.951a3.234,3.234,0,0,1-.783,2.4,3.183,3.183,0,0,1-2.274,1.074h-10.4C82.219,84.677,82.131,84.69,82.131,84.7Z" transform="translate(390.147 -25.095)" fill="#e0e0e0"/>
        <path id="Path_147353" data-name="Path 147353" d="M70.09,78.2c0,.076,3.322.126,7.415.126s7.415,0,7.415-.126S81.61,78.07,77.5,78.07,70.09,78.133,70.09,78.2Z" transform="translate(416.525 -23.047)" fill="#e0e0e0"/>
        <path id="Path_147354" data-name="Path 147354" d="M70.09,82.526s4.888.126,10.926.126,10.939,0,10.939-.126S87.067,82.4,81.016,82.4,70.09,82.451,70.09,82.526Z" transform="translate(409.489 -21.908)" fill="#e0e0e0"/>
        <path id="Path_147355" data-name="Path 147355" d="M70.09,86.844c0,.076,4.888.126,10.926.126s10.939,0,10.939-.126-4.888-.114-10.939-.114S70.09,86.781,70.09,86.844Z" transform="translate(409.489 -20.769)" fill="#e0e0e0"/>
        <path id="Path_147356" data-name="Path 147356" d="M70.09,91.176s4.888.126,10.926.126,10.939,0,10.939-.126-4.888-.126-10.939-.126S70.09,91.113,70.09,91.176Z" transform="translate(409.489 -19.632)" fill="#e0e0e0"/>
        <path id="Path_147357" data-name="Path 147357" d="M70.09,95.506s4.888.114,10.926.114,10.939,0,10.939-.114-4.888-.126-10.939-.126S70.09,95.431,70.09,95.506Z" transform="translate(409.489 -18.492)" fill="#e0e0e0"/>
        <path id="Path_147358" data-name="Path 147358" d="M70.09,100.836c0,.076,4.888.126,10.926.126s10.939,0,10.939-.126-4.888-.126-10.939-.126S70.09,100.773,70.09,100.836Z" transform="translate(409.489 -17.09)" fill="#e0e0e0"/>
        <path id="Path_147359" data-name="Path 147359" d="M65.46,116.118c0,.189,7.806.328,17.419.328s17.431-.139,17.431-.328-7.806-.328-17.431-.328S65.46,115.942,65.46,116.118Z" transform="translate(406.982 -13.122)" fill="#e0e0e0"/>
        <path id="Path_147360" data-name="Path 147360" d="M70.38,119.737a93.737,93.737,0,0,0,11.2.328,93.877,93.877,0,0,0,11.217-.328,97.17,97.17,0,0,0-11.217-.328,97.03,97.03,0,0,0-11.2.328Z" transform="translate(408.277 -12.18)" fill="#e0e0e0"/>
        <path id="Path_147361" data-name="Path 147361" d="M68.862,195.163h28.13a3.524,3.524,0,0,0,3.512-3.524v-38.9a3.524,3.524,0,0,0-3.512-3.524H79.156L65.35,163.446v28.193a3.524,3.524,0,0,0,3.512,3.524Z" transform="translate(406.928 -4.327)" fill="#ebebeb"/>
        <path id="Path_147362" data-name="Path 147362" d="M96.056,149.2v10.964a3.272,3.272,0,0,1-3.272,3.272H82.25Z" transform="translate(390.028 -4.33)" fill="#f5f5f5"/>
        <path id="Path_147363" data-name="Path 147363" d="M96.025,158.64a3.625,3.625,0,0,1-2.88,3.524l-.341.076c-1.377.253-10.434,1.857-10.434,1.655v-2.943H92.9S95.532,160.863,96.025,158.64Z" transform="translate(389.908 -1.846)" fill="#e0e0e0"/>
        <path id="Path_147364" data-name="Path 147364" d="M68.869,195.186a3.713,3.713,0,0,1-.606-.076,3.562,3.562,0,0,1-1.592-.745,3.486,3.486,0,0,1-1.263-2.526c0-1.137,0-2.45,0-3.928V163.468l13.844-14.16H96.2a9.522,9.522,0,0,1,1.352,0,3.373,3.373,0,0,1,2.135,1.465,3.31,3.31,0,0,1,.619,1.731v38.349a8.124,8.124,0,0,1,0,1.478,3.411,3.411,0,0,1-2.893,2.716,9.981,9.981,0,0,1-1.377,0h0a13.1,13.1,0,0,0,1.4,0,3.41,3.41,0,0,0,1.377-.493,3.613,3.613,0,0,0,1.693-2.387,7.579,7.579,0,0,0,0-1.516V152.479a3.562,3.562,0,0,0-.669-1.857,3.688,3.688,0,0,0-2.362-1.465,7.387,7.387,0,0,0-1.389,0H79.113L65.32,163.392h0v28.433a3.562,3.562,0,0,0,1.263,2.526,3.676,3.676,0,0,0,1.629.733h.455Z" transform="translate(406.92 -4.35)" fill="#e0e0e0"/>
        <path id="Path_147365" data-name="Path 147365" d="M82.131,163.473H92.792a3.436,3.436,0,0,0,2.451-1.149,3.55,3.55,0,0,0,.682-1.263,3.789,3.789,0,0,0,.152-1.339V149.06a.72.72,0,0,0,0,.278c0,.2,0,.455,0,.771v9.613a3.234,3.234,0,0,1-.783,2.4,3.183,3.183,0,0,1-2.274,1.074h-10.4C82.219,163.447,82.131,163.46,82.131,163.473Z" transform="translate(390.147 -4.367)" fill="#e0e0e0"/>
        <path id="Path_147366" data-name="Path 147366" d="M70.09,156.966c0,.076,3.322.126,7.415.126s7.415,0,7.415-.126-3.309-.126-7.415-.126S70.09,156.9,70.09,156.966Z" transform="translate(416.525 -2.319)" fill="#e0e0e0"/>
        <path id="Path_147367" data-name="Path 147367" d="M70.09,161.3s4.888.126,10.926.126,10.939-.063,10.939-.126-4.888-.126-10.939-.126S70.09,161.221,70.09,161.3Z" transform="translate(409.489 -1.18)" fill="#e0e0e0"/>
        <path id="Path_147368" data-name="Path 147368" d="M70.09,165.614c0,.076,4.888.126,10.926.126s10.939,0,10.939-.126-4.888-.114-10.939-.114S70.09,165.551,70.09,165.614Z" transform="translate(409.489 -0.041)" fill="#e0e0e0"/>
        <path id="Path_147369" data-name="Path 147369" d="M70.09,169.946c0,.063,4.888.126,10.926.126s10.939-.063,10.939-.126-4.888-.126-10.939-.126S70.09,169.883,70.09,169.946Z" transform="translate(409.489 1.096)" fill="#e0e0e0"/>
        <path id="Path_147370" data-name="Path 147370" d="M70.09,174.276c0,.063,4.888.114,10.926.114s10.939,0,10.939-.114-4.888-.126-10.939-.126S70.09,174.2,70.09,174.276Z" transform="translate(409.489 2.236)" fill="#e0e0e0"/>
        <path id="Path_147371" data-name="Path 147371" d="M70.09,179.606c0,.076,4.888.126,10.926.126s10.939,0,10.939-.126-4.888-.126-10.939-.126S70.09,179.543,70.09,179.606Z" transform="translate(409.489 3.638)" fill="#e0e0e0"/>
        <path id="Path_147372" data-name="Path 147372" d="M65.46,194.888c0,.189,7.806.328,17.419.328s17.431-.139,17.431-.328-7.806-.328-17.431-.328S65.46,194.712,65.46,194.888Z" transform="translate(406.982 7.606)" fill="#e0e0e0"/>
        <path id="Path_147373" data-name="Path 147373" d="M70.38,198.507a93.75,93.75,0,0,0,11.2.328,93.877,93.877,0,0,0,11.217-.328,97.153,97.153,0,0,0-11.217-.328,97.024,97.024,0,0,0-11.2.328Z" transform="translate(408.277 8.548)" fill="#e0e0e0"/>
        <path id="Path_147374" data-name="Path 147374" d="M67.332,291.8h28.13a3.524,3.524,0,0,0,3.512-3.524V249.354a3.524,3.524,0,0,0-3.512-3.524H77.626L63.82,260.066v28.206a3.524,3.524,0,0,0,3.512,3.524Z" transform="translate(410.391 21.098)" fill="#ebebeb"/>
        <path id="Path_147375" data-name="Path 147375" d="M94.526,245.83v10.951a3.272,3.272,0,0,1-3.272,3.272H80.72Z" transform="translate(393.491 21.098)" fill="#f5f5f5"/>
        <path id="Path_147376" data-name="Path 147376" d="M94.495,255.26a3.638,3.638,0,0,1-2.88,3.537,2.9,2.9,0,0,1-.354.076c-1.364.253-10.421,1.857-10.421,1.655v-2.943H91.375S94,257.458,94.495,255.26Z" transform="translate(393.371 23.579)" fill="#e0e0e0"/>
        <path id="Path_147377" data-name="Path 147377" d="M67.348,291.821a3.711,3.711,0,0,1-.606-.076A3.561,3.561,0,0,1,65.15,291a3.486,3.486,0,0,1-1.263-2.526c0-1.137,0-2.463,0-3.928V260.04h0l13.844-14.1H94.682a8.012,8.012,0,0,1,1.352,0,3.373,3.373,0,0,1,2.2,1.377,3.31,3.31,0,0,1,.619,1.73V287.4a9.449,9.449,0,0,1-.088,1.617,3.41,3.41,0,0,1-2.893,2.716,12.43,12.43,0,0,1-1.377,0h.063a10.5,10.5,0,0,0,1.4,0,3.625,3.625,0,0,0,3.069-2.716,7.652,7.652,0,0,0,0-1.516V249.126A3.625,3.625,0,0,0,96,245.8a8.662,8.662,0,0,0-1.389-.063H77.592L63.76,259.964h0V288.4a3.562,3.562,0,0,0,1.263,2.526,3.435,3.435,0,0,0,1.629.72,2.52,2.52,0,0,0,.455,0Z" transform="translate(410.375 21.073)" fill="#e0e0e0"/>
        <path id="Path_147378" data-name="Path 147378" d="M80.6,260.1H91.262a3.385,3.385,0,0,0,2.438-1.149,3.5,3.5,0,0,0,.695-1.263,3.789,3.789,0,0,0,.152-1.339V245.69a.72.72,0,0,0,0,.278v10.383a3.259,3.259,0,0,1-.783,2.4,3.12,3.12,0,0,1-2.274,1.061h-10.4A5.435,5.435,0,0,1,80.6,260.1Z" transform="translate(393.609 21.061)" fill="#e0e0e0"/>
        <path id="Path_147379" data-name="Path 147379" d="M68.56,253.6c0,.063,3.322.126,7.415.126s7.415,0,7.415-.126-3.322-.126-7.415-.126S68.56,253.533,68.56,253.6Z" transform="translate(419.987 23.108)" fill="#e0e0e0"/>
        <path id="Path_147380" data-name="Path 147380" d="M68.56,257.926c0,.063,4.888.114,10.926.114s10.939,0,10.939-.114-4.888-.126-10.939-.126S68.56,257.851,68.56,257.926Z" transform="translate(412.952 24.248)" fill="#e0e0e0"/>
        <path id="Path_147381" data-name="Path 147381" d="M68.56,262.246c0,.076,4.888.126,10.926.126s10.939,0,10.939-.126-4.888-.126-10.939-.126S68.56,262.183,68.56,262.246Z" transform="translate(412.952 25.385)" fill="#e0e0e0"/>
        <path id="Path_147382" data-name="Path 147382" d="M68.56,266.576c0,.063,4.888.126,10.926.126s10.939,0,10.939-.126-4.888-.126-10.939-.126S68.56,266.5,68.56,266.576Z" transform="translate(412.952 26.524)" fill="#e0e0e0"/>
        <path id="Path_147383" data-name="Path 147383" d="M68.56,270.894c0,.076,4.888.126,10.926.126s10.939,0,10.939-.126-4.888-.114-10.939-.114S68.56,270.831,68.56,270.894Z" transform="translate(412.952 27.663)" fill="#e0e0e0"/>
        <path id="Path_147384" data-name="Path 147384" d="M68.56,276.236c0,.063,4.888.126,10.926.126s10.939-.063,10.939-.126-4.888-.126-10.939-.126S68.56,276.173,68.56,276.236Z" transform="translate(412.952 29.066)" fill="#e0e0e0"/>
        <path id="Path_147385" data-name="Path 147385" d="M63.94,291.518c0,.177,7.806.328,17.419.328s17.419-.152,17.419-.328-7.794-.328-17.419-.328S63.94,291.342,63.94,291.518Z" transform="translate(410.435 33.034)" fill="#e0e0e0"/>
        <path id="Path_147386" data-name="Path 147386" d="M68.85,295.137a97.351,97.351,0,0,0,11.217.328,97.187,97.187,0,0,0,11.217-.328,97.16,97.16,0,0,0-11.217-.328,97.338,97.338,0,0,0-11.217.328Z" transform="translate(411.727 33.976)" fill="#e0e0e0"/>
        <path id="Path_147387" data-name="Path 147387" d="M213.719,289.571h28.143a3.5,3.5,0,0,0,3.512-3.512v-38.9a3.512,3.512,0,0,0-3.512-3.524H224.026L210.22,257.853v28.219A3.511,3.511,0,0,0,213.719,289.571Z" transform="translate(79.066 20.519)" fill="#ebebeb"/>
        <path id="Path_147388" data-name="Path 147388" d="M240.946,243.63v10.951a3.272,3.272,0,0,1-3.272,3.272H227.14Z" transform="translate(62.121 20.519)" fill="#f5f5f5"/>
        <path id="Path_147389" data-name="Path 147389" d="M240.917,253.06a3.638,3.638,0,0,1-2.893,3.537l-.341.076c-1.377.24-10.434,1.857-10.434,1.642v-2.943h10.535S240.412,255.283,240.917,253.06Z" transform="translate(62.011 23)" fill="#e0e0e0"/>
        <path id="Path_147390" data-name="Path 147390" d="M213.821,289.646a4.255,4.255,0,0,1-.606-.063,3.536,3.536,0,0,1-1.6-.745,3.474,3.474,0,0,1-1.263-2.526V257.954l13.844-14.16h16.951a7.973,7.973,0,0,1,1.352,0,3.372,3.372,0,0,1,2.2,1.377,3.322,3.322,0,0,1,.632,1.718c0,.632,0,1.263,0,1.92v36.454a8.122,8.122,0,0,1-.063,1.478,3.41,3.41,0,0,1-2.893,2.716h-1.415a13.15,13.15,0,0,0,1.4,0,3.587,3.587,0,0,0,1.377-.48,3.638,3.638,0,0,0,1.693-2.387,8.762,8.762,0,0,0,.076-1.516V246.7a3.562,3.562,0,0,0-.669-1.857,3.651,3.651,0,0,0-2.362-1.478,10.379,10.379,0,0,0-1.389,0h-17.09L210.2,257.613h0v28.446a3.587,3.587,0,0,0,1.263,2.526,3.537,3.537,0,0,0,1.629.72,1.62,1.62,0,0,0,.455,0Z" transform="translate(78.964 20.443)" fill="#e0e0e0"/>
        <path id="Path_147391" data-name="Path 147391" d="M227.031,257.856h1.048l2.829.139h6.758a3.36,3.36,0,0,0,3.133-2.375,4.144,4.144,0,0,0,.164-1.339c0-.872,0-1.705,0-2.526v-7.869a1.072,1.072,0,0,0,0-.265,1.072,1.072,0,0,0,0,.265v10.4a3.259,3.259,0,0,1-.783,2.4,3.12,3.12,0,0,1-2.274,1.061h-10.4Z" transform="translate(62.229 20.516)" fill="#e0e0e0"/>
        <path id="Path_147392" data-name="Path 147392" d="M214.97,251.4s3.322.126,7.415.126,7.427-.063,7.427-.126-3.322-.126-7.427-.126S214.97,251.32,214.97,251.4Z" transform="translate(88.627 22.529)" fill="#e0e0e0"/>
        <path id="Path_147393" data-name="Path 147393" d="M214.97,255.714c0,.076,4.888.126,10.939.126s10.939,0,10.939-.126-4.9-.114-10.939-.114S214.97,255.651,214.97,255.714Z" transform="translate(81.592 23.669)" fill="#e0e0e0"/>
        <path id="Path_147394" data-name="Path 147394" d="M214.97,260.026c0,.076,4.888.126,10.939.126s10.939,0,10.939-.126-4.9-.126-10.939-.126S214.97,260.026,214.97,260.026Z" transform="translate(81.592 24.8)" fill="#e0e0e0"/>
        <path id="Path_147395" data-name="Path 147395" d="M214.97,264.376s4.888.114,10.939.114,10.939,0,10.939-.114-4.9-.126-10.939-.126S214.97,264.3,214.97,264.376Z" transform="translate(81.592 25.945)" fill="#e0e0e0"/>
        <path id="Path_147396" data-name="Path 147396" d="M214.97,268.7c0,.076,4.888.126,10.939.126s10.939,0,10.939-.126-4.9-.126-10.939-.126S214.97,268.633,214.97,268.7Z" transform="translate(81.592 27.082)" fill="#e0e0e0"/>
        <path id="Path_147397" data-name="Path 147397" d="M214.97,274.026c0,.063,4.888.126,10.939.126s10.939-.063,10.939-.126-4.9-.126-10.939-.126S214.97,274.026,214.97,274.026Z" transform="translate(81.592 28.484)" fill="#e0e0e0"/>
        <path id="Path_147398" data-name="Path 147398" d="M210.35,289.318c0,.177,7.806.328,17.431.328s17.419-.152,17.419-.328-7.806-.328-17.419-.328S210.35,289.129,210.35,289.318Z" transform="translate(79.075 32.455)" fill="#e0e0e0"/>
        <path id="Path_147399" data-name="Path 147399" d="M215.25,292.937a97.18,97.18,0,0,0,11.217.328,97.044,97.044,0,0,0,11.2-.328,97.023,97.023,0,0,0-11.2-.328A97.167,97.167,0,0,0,215.25,292.937Z" transform="translate(80.415 33.397)" fill="#e0e0e0"/>
        <path id="Path_147400" data-name="Path 147400" d="M189.946,57.193l-1.263,25.162a1.592,1.592,0,0,1-1.465,1.579h-38.8A1.592,1.592,0,0,1,147,82.254V62.663a1.591,1.591,0,0,1,1.465-1.705l23.8.24A1.377,1.377,0,0,0,173.3,60.7l4.143-4.775a1.352,1.352,0,0,1,1.023-.48h10.105A1.6,1.6,0,0,1,189.946,57.193Z" transform="translate(214.35 -29)" fill="#ebebeb"/>
        <rect id="Rectangle_110256" data-name="Rectangle 110256" width="42.404" height="29.57" transform="translate(361.311 28.989)" fill="#f5f5f5"/>
        <path id="Path_147401" data-name="Path 147401" d="M193.306,59.81l-3.234,30.871a1.023,1.023,0,0,1-.935.96h-41.33a1.011,1.011,0,0,1-.935-1.011l-2.084-30.846a1.048,1.048,0,0,1,.935-1.175h46.648a1.048,1.048,0,0,1,.935,1.2Z" transform="translate(213.781 -28.168)" fill="#ebebeb"/>
        <path id="Path_147402" data-name="Path 147402" d="M150.2,97.2c0,.189,7.794.328,17.419.328s17.419-.139,17.419-.328-7.794-.328-17.419-.328S150.2,97.034,150.2,97.2Z" transform="translate(215.216 -18.1)" fill="#e0e0e0"/>
        <path id="Path_147403" data-name="Path 147403" d="M155.12,100.817a93.88,93.88,0,0,0,11.2.328,94.041,94.041,0,0,0,11.217-.328,97.345,97.345,0,0,0-11.217-.328,97.163,97.163,0,0,0-11.2.328Z" transform="translate(216.498 -17.158)" fill="#e0e0e0"/>
        <path id="Path_147404" data-name="Path 147404" d="M191.132,150.856l-1.326,25.162a1.579,1.579,0,0,1-1.465,1.592H149.448A1.579,1.579,0,0,1,148,175.917v-19.6a1.579,1.579,0,0,1,1.465-1.693l23.861.177a1.377,1.377,0,0,0,1.036-.493l4.143-4.762a1.364,1.364,0,0,1,1.023-.493h10.105a1.617,1.617,0,0,1,1.5,1.806Z" transform="translate(211.9 -4.369)" fill="#ebebeb"/>
        <rect id="Rectangle_110257" data-name="Rectangle 110257" width="42.404" height="29.57" transform="translate(359.946 147.27)" fill="#f5f5f5"/>
        <path id="Path_147405" data-name="Path 147405" d="M194.383,153.465,191.137,184.3a.985.985,0,0,1-.922.96h-41.33a1,1,0,0,1-.935-1l-2.084-30.846a1.048,1.048,0,0,1,.935-1.175h46.648a1.048,1.048,0,0,1,.935,1.225Z" transform="translate(211.34 -3.53)" fill="#ebebeb"/>
        <path id="Path_147406" data-name="Path 147406" d="M151.28,190.848c0,.177,7.794.328,17.419.328s17.419-.152,17.419-.328-7.794-.328-17.419-.328S151.28,190.659,151.28,190.848Z" transform="translate(212.772 6.543)" fill="#e0e0e0"/>
        <path id="Path_147407" data-name="Path 147407" d="M156.24,194.468a97.174,97.174,0,0,0,11.217.328,97.358,97.358,0,0,0,11.217-.328,94.038,94.038,0,0,0-11.217-.328A93.877,93.877,0,0,0,156.24,194.468Z" transform="translate(213.951 7.484)" fill="#e0e0e0"/>
        <path id="Path_147408" data-name="Path 147408" d="M174.845,266.316l-1.339,25.162a1.566,1.566,0,0,1-1.453,1.592h-38.8a1.592,1.592,0,0,1-1.465-1.693v-19.6a1.579,1.579,0,0,1,1.465-1.693l23.873.177a1.377,1.377,0,0,0,1.036-.493L162.3,265a1.364,1.364,0,0,1,1.023-.493H173.43a1.617,1.617,0,0,1,1.415,1.806Z" transform="translate(248.663 26.013)" fill="#ebebeb"/>
        <rect id="Rectangle_110258" data-name="Rectangle 110258" width="42.404" height="29.57" transform="translate(380.46 293.113)" fill="#f5f5f5"/>
        <path id="Path_147409" data-name="Path 147409" d="M178.094,268.915l-3.246,30.846a.985.985,0,0,1-.922.96H132.6a1.011,1.011,0,0,1-.935-1.01l-2.034-30.833a1.048,1.048,0,0,1,.935-1.187h46.6a1.048,1.048,0,0,1,.935,1.225Z" transform="translate(248.142 26.85)" fill="#ebebeb"/>
        <path id="Path_147410" data-name="Path 147410" d="M135.04,306.308c0,.177,7.794.328,17.419.328s17.419-.152,17.419-.328-7.806-.328-17.419-.328S135.04,306.119,135.04,306.308Z" transform="translate(249.525 36.926)" fill="#e0e0e0"/>
        <path id="Path_147411" data-name="Path 147411" d="M139.95,309.928a97.173,97.173,0,0,0,11.217.328,97.325,97.325,0,0,0,11.217-.328,94.057,94.057,0,0,0-11.217-.328,93.878,93.878,0,0,0-11.217.328Z" transform="translate(250.817 37.867)" fill="#e0e0e0"/>
        <path id="Path_147568" data-name="Path 147568" d="M0,0H280.671V246.831H0Z" transform="translate(0.808 21.259)" fill="#fff" opacity="0.19"/>
        <path id="Path_147413" data-name="Path 147413" d="M246.71,71.437c0,.114,62.311.215,139.161.215s139.186-.1,139.186-.215-62.311-.227-139.186-.227S246.71,71.311,246.71,71.437Z" transform="translate(-246.71 -24.853)" fill="#e0e0e0"/>
        <path id="Path_147414" data-name="Path 147414" d="M254.791,62.829A2.88,2.88,0,1,0,257.671,60a2.88,2.88,0,0,0-2.88,2.829Z" transform="translate(7.59 -27.802)" fill="#ebebeb"/>
        <path id="Path_147415" data-name="Path 147415" d="M262.281,62.829A2.88,2.88,0,1,0,265.161,60a2.88,2.88,0,0,0-2.88,2.829Z" transform="translate(-9.361 -27.802)" fill="#ebebeb"/>
        <path id="Path_147416" data-name="Path 147416" d="M269.771,62.829A2.88,2.88,0,1,0,272.651,60a2.88,2.88,0,0,0-2.88,2.829Z" transform="translate(-26.312 -27.802)" fill="#ebebeb"/>
        <path id="Path_147417" data-name="Path 147417" d="M393.889,91.38a3.159,3.159,0,0,1-.467-.088,1.617,1.617,0,0,1-.985-.922,2.351,2.351,0,0,1-.114-1.011V79.9a1.5,1.5,0,0,1,1.453-1.364h79.086a1.389,1.389,0,0,1,1.4,1.263v9.512a1.819,1.819,0,0,1-.177,1.036,1.44,1.44,0,0,1-.758.632,1.694,1.694,0,0,1-.505.076h-51.5l-20.109.076h-7.377a3.529,3.529,0,0,0,.48,0h6.9l20.109.076h51.5a2.21,2.21,0,0,0,.644-.1,1.907,1.907,0,0,0,1-.834,2.248,2.248,0,0,0,.24-1.263V79.873a1.857,1.857,0,0,0-1.844-1.693H393.776a1.718,1.718,0,0,0-1.667,1.579c0,.4,0,.758,0,1.124v8.362a2.527,2.527,0,0,0,.139,1.048,1.63,1.63,0,0,0,1.048.922,1.137,1.137,0,0,0,.594.164Z" transform="translate(-380.02 -23.018)" fill="#e0e0e0"/>
        <path id="Path_147418" data-name="Path 147418" d="M396.3,85.584l.215-.455a2.109,2.109,0,0,0,1.364.467c.72,0,1.023-.278,1.023-.632,0-1.011-2.526-.379-2.526-1.907,0-.644.493-1.187,1.579-1.187a2.527,2.527,0,0,1,1.326.366l-.19.48a2.084,2.084,0,0,0-1.137-.341c-.707,0-1.01.291-1.01.657,0,1.011,2.526.379,2.526,1.895,0,.632-.505,1.175-1.6,1.175a2.526,2.526,0,0,1-1.566-.518Z" transform="translate(-330.869 -22.047)" fill="#e0e0e0"/>
        <path id="Path_147419" data-name="Path 147419" d="M402.317,84.448h-2.526a1.048,1.048,0,0,0,1.137.922,1.149,1.149,0,0,0,.9-.379l.316.366a1.591,1.591,0,0,1-1.263.505,1.566,1.566,0,0,1-1.667-1.528,1.541,1.541,0,0,1,1.566-1.6,1.516,1.516,0,0,1,1.554,1.6A.709.709,0,0,0,402.317,84.448Zm-2.526-.4H401.8a.985.985,0,0,0-1.01-.9.96.96,0,0,0-1.01.9Z" transform="translate(-330.105 -21.821)" fill="#e0e0e0"/>
        <path id="Path_147420" data-name="Path 147420" d="M404.768,83.956v1.895h-.543v-.417a1.175,1.175,0,0,1-1.023.442c-.72,0-1.162-.379-1.162-.922s.328-.909,1.263-.909h.9v-.114c0-.48-.278-.758-.846-.758a1.528,1.528,0,0,0-.985.341l-.24-.429a2.059,2.059,0,0,1,1.263-.4C404.276,82.68,404.768,83.084,404.768,83.956Zm-.568.935v-.442h-.884c-.556,0-.72.215-.72.48s.265.518.695.518a.935.935,0,0,0,.91-.556Z" transform="translate(-329.359 -21.834)" fill="#e0e0e0"/>
        <path id="Path_147421" data-name="Path 147421" d="M406.718,82.681v.556h-.126a.935.935,0,0,0-.985,1.061v1.566H405V82.707h.543v.531a1.263,1.263,0,0,1,1.175-.556Z" transform="translate(-328.579 -21.836)" fill="#e0e0e0"/>
        <path id="Path_147422" data-name="Path 147422" d="M406.661,84.348a1.579,1.579,0,0,1,1.693-1.667,1.377,1.377,0,0,1,1.263.669l-.429.278a.985.985,0,0,0-.846-.455,1.112,1.112,0,0,0,0,2.211.96.96,0,0,0,.846-.455l.429.278a1.377,1.377,0,0,1-1.263.669,1.566,1.566,0,0,1-1.693-1.528Z" transform="translate(-328.143 -21.835)" fill="#e0e0e0"/>
        <path id="Path_147423" data-name="Path 147423" d="M412.511,84.3v1.806h-.568V84.363c0-.619-.316-.922-.846-.922a.935.935,0,0,0-1,1.048v1.617h-.568v-4.4h.594v1.705a1.377,1.377,0,0,1,1.112-.48,1.263,1.263,0,0,1,1.276,1.364Z" transform="translate(-327.388 -22.09)" fill="#e0e0e0"/>
        <path id="Path_147424" data-name="Path 147424" d="M412.51,84.974a.392.392,0,0,1,.4-.4.4.4,0,0,1,0,.808.392.392,0,0,1-.4-.4Z" transform="translate(-326.603 -21.337)" fill="#e0e0e0"/>
        <path id="Path_147425" data-name="Path 147425" d="M413.57,84.974a.4.4,0,1,1,.4.4.4.4,0,0,1-.4-.4Z" transform="translate(-326.325 -21.337)" fill="#e0e0e0"/>
        <path id="Path_147426" data-name="Path 147426" d="M414.63,84.974a.4.4,0,1,1,.4.4.4.4,0,0,1-.4-.4Z" transform="translate(-326.047 -21.337)" fill="#e0e0e0"/>
        <path id="Path_147427" data-name="Path 147427" d="M435.69,106.1v44.21H381.88V106.1a3.789,3.789,0,0,1,3.789-3.789h46.193a3.789,3.789,0,0,1,3.827,3.789Z" transform="translate(-328.083 -16.669)" fill="#e0e0e0"/>
        <path id="Path_147428" data-name="Path 147428" d="M431.324,124.707l-.366-16.257H383.88v9.271" transform="translate(-326.242 -15.053)" fill="#f5f5f5"/>
        <rect id="Rectangle_110260" data-name="Rectangle 110260" width="41.141" height="4.396" transform="translate(60.517 89.001)" fill="#f5f5f5"/>
        <path id="Path_147429" data-name="Path 147429" d="M427.785,105.034h-3.133l-8.69-.076-29.318-.088h-.215v4.56c.442.442.139.126.24.227h24.707l16.421-.088h.088v-4.206a2.222,2.222,0,0,0,0-.278,1.7,1.7,0,0,0,0,.3c0,.215,0,.505,0,.859v3.234l.1-.088-16.421-.088h-24.72c.088.088-.24-.227.2.215v-4.484l-.215.227,29.153-.1h11.76Z" transform="translate(-326.127 -15.995)" fill="#e0e0e0"/>
        <path id="Path_147430" data-name="Path 147430" d="M386.64,149.165c0,.126,10.282.227,22.964.227s22.964-.1,22.964-.227-10.282-.215-22.964-.215S386.64,149.013,386.64,149.165Z" transform="translate(-330.973 -4.396)" fill="#e0e0e0"/>
        <path id="Path_147431" data-name="Path 147431" d="M436.532,115.66l-4.13,32.033h-53.81V116.658H403.02l4.75-4.168h25.983a2.8,2.8,0,0,1,2.779,3.171Z" transform="translate(-324.793 -13.99)" fill="#ebebeb"/>
        <path id="Path_147432" data-name="Path 147432" d="M391.92,125.765c0,.126,5.9.227,13.162.227s13.162-.1,13.162-.227-5.9-.215-13.162-.215S391.92,125.651,391.92,125.765Z" transform="translate(-323.318 -10.553)" fill="#e0e0e0"/>
        <path id="Path_147433" data-name="Path 147433" d="M391.92,128.267c0,.126,5.9.215,13.162.215s13.162-.088,13.162-.215-5.9-.227-13.162-.227S391.92,128.141,391.92,128.267Z" transform="translate(-323.318 -9.898)" fill="#e0e0e0"/>
        <path id="Path_147434" data-name="Path 147434" d="M391.2,153.9c0,.126,6.442.227,14.4.227s14.4-.1,14.4-.227-6.455-.215-14.4-.215S391.2,153.791,391.2,153.9Z" transform="translate(-324.165 -3.148)" fill="#e0e0e0"/>
        <path id="Path_147435" data-name="Path 147435" d="M343.04,106.1v44.21H289.23V106.1a3.789,3.789,0,0,1,3.789-3.789h46.193a3.789,3.789,0,0,1,3.827,3.789Z" transform="translate(-118.402 -16.669)" fill="#e0e0e0"/>
        <path id="Path_147436" data-name="Path 147436" d="M338.674,124.707l-.366-16.257H291.23v9.271" transform="translate(-116.562 -15.053)" fill="#f5f5f5"/>
        <rect id="Rectangle_110261" data-name="Rectangle 110261" width="41.141" height="4.396" transform="translate(177.548 89.001)" fill="#f5f5f5"/>
        <path id="Path_147437" data-name="Path 147437" d="M335.135,105.034H332l-8.69-.076-29.318-.088h-.215v4.56c.442.442.139.126.24.227h24.707l16.421-.088h.088v-4.206a2.222,2.222,0,0,0,0-.278,1.711,1.711,0,0,0,0,.3v4.093l.1-.088-16.421-.088H294.007c.088.088-.24-.227.2.215v-4.484l-.215.227,29.153-.1h11.76Z" transform="translate(-116.447 -15.995)" fill="#e0e0e0"/>
        <path id="Path_147438" data-name="Path 147438" d="M293.94,149.165c0,.126,10.282.227,22.964.227s22.964-.1,22.964-.227-10.282-.215-22.964-.215S293.94,149.013,293.94,149.165Z" transform="translate(-121.179 -4.396)" fill="#e0e0e0"/>
        <path id="Path_147439" data-name="Path 147439" d="M343.921,115.66l-4.13,32.033h-53.81V116.658h24.48l4.749-4.168h25.983a2.8,2.8,0,0,1,2.728,3.171Z" transform="translate(-115.203 -13.99)" fill="#ebebeb"/>
        <path id="Path_147440" data-name="Path 147440" d="M299.27,125.765c0,.126,5.9.227,13.162.227s13.162-.1,13.162-.227-5.9-.215-13.162-.215S299.27,125.651,299.27,125.765Z" transform="translate(-113.638 -10.553)" fill="#e0e0e0"/>
        <path id="Path_147441" data-name="Path 147441" d="M299.27,128.267c0,.126,5.9.215,13.162.215s13.162-.088,13.162-.215-5.9-.227-13.162-.227S299.27,128.141,299.27,128.267Z" transform="translate(-113.638 -9.898)" fill="#e0e0e0"/>
        <path id="Path_147442" data-name="Path 147442" d="M298.57,153.9c0,.126,6.442.227,14.4.227s14.4-.1,14.4-.227-6.455-.215-14.4-.215S298.57,153.791,298.57,153.9Z" transform="translate(-114.529 -3.148)" fill="#e0e0e0"/>
        <path id="Path_147443" data-name="Path 147443" d="M341.7,180.539v44.21H287.9v-44.21a3.789,3.789,0,0,1,3.789-3.789h46.193a3.789,3.789,0,0,1,3.815,3.789Z" transform="translate(-115.379 2.92)" fill="#e0e0e0"/>
        <path id="Path_147444" data-name="Path 147444" d="M337.331,199.147l-.354-16.257H289.9v9.272" transform="translate(-113.539 4.536)" fill="#f5f5f5"/>
        <rect id="Rectangle_110262" data-name="Rectangle 110262" width="41.141" height="4.396" transform="translate(179.241 183.03)" fill="#f5f5f5"/>
        <path id="Path_147445" data-name="Path 147445" d="M333.808,179.454h-3.133l-8.69-.063-29.318-.1h-.227v4.61c.442.442.139.126.24.227H317.4l16.421-.088h.1v-4.484a1.263,1.263,0,0,0,0,.29v4.093l.088-.088-16.421-.088h-24.72c.088.1-.24-.215.2.215v-4.383l-.215.215,29.153-.1H334Z" transform="translate(-113.427 3.588)" fill="#e0e0e0"/>
        <path id="Path_147446" data-name="Path 147446" d="M292.64,223.6c0,.126,10.282.227,22.964.227s22.964-.1,22.964-.227-10.282-.215-22.964-.215S292.64,223.491,292.64,223.6Z" transform="translate(-118.237 15.193)" fill="#e0e0e0"/>
        <path id="Path_147447" data-name="Path 147447" d="M342.543,190.088,338.4,222.121H284.6V191.1h24.429l4.737-4.168h26a2.8,2.8,0,0,1,2.779,3.158Z" transform="translate(-112.082 5.599)" fill="#ebebeb"/>
        <path id="Path_147448" data-name="Path 147448" d="M297.93,200.217c0,.114,5.886.215,13.162.215s13.162-.1,13.162-.215-5.9-.227-13.162-.227S297.93,200.091,297.93,200.217Z" transform="translate(-110.605 9.035)" fill="#e0e0e0"/>
        <path id="Path_147449" data-name="Path 147449" d="M297.93,202.7c0,.126,5.886.215,13.162.215s13.162-.088,13.162-.215-5.9-.215-13.162-.215S297.93,202.578,297.93,202.7Z" transform="translate(-110.605 9.693)" fill="#e0e0e0"/>
        <path id="Path_147450" data-name="Path 147450" d="M297.2,228.345c0,.126,6.442.227,14.4.227s14.4-.1,14.4-.227-6.455-.215-14.4-.215S297.2,228.231,297.2,228.345Z" transform="translate(-111.429 16.44)" fill="#e0e0e0"/>
        <path id="Path_147451" data-name="Path 147451" d="M435.37,180.539v44.21H381.56v-44.21a3.789,3.789,0,0,1,3.789-3.789h46.206a3.789,3.789,0,0,1,3.815,3.789Z" transform="translate(-327.358 2.92)" fill="#e0e0e0"/>
        <path id="Path_147452" data-name="Path 147452" d="M431,199.147l-.354-16.257H383.56v9.272" transform="translate(-325.518 4.536)" fill="#f5f5f5"/>
        <rect id="Rectangle_110263" data-name="Rectangle 110263" width="41.141" height="4.396" transform="translate(60.922 183.03)" fill="#f5f5f5"/>
        <path id="Path_147453" data-name="Path 147453" d="M427.5,179.454h-3.12l-8.7-.063-29.318-.1h-.2v4.61l.227.227h24.707l16.421-.088h.1v-.1c0-1.415,0-2.526-.063-3.3v-1.086a2.621,2.621,0,0,0,0,.29v4.093l.088-.088-16.421-.088H386.5c.1.1-.227-.215.215.215v-4.383l-.227.215,29.166-.1h11.975Z" transform="translate(-325.44 3.588)" fill="#e0e0e0"/>
        <path id="Path_147454" data-name="Path 147454" d="M386.27,223.6c0,.126,10.282.227,22.964.227s22.964-.1,22.964-.227-10.282-.215-22.964-.215S386.27,223.491,386.27,223.6Z" transform="translate(-330.136 15.193)" fill="#e0e0e0"/>
        <path id="Path_147455" data-name="Path 147455" d="M436.215,190.088l-4.143,32.033h-53.81V191.1H402.7l4.737-4.168h26a2.8,2.8,0,0,1,2.779,3.158Z" transform="translate(-324.061 5.599)" fill="#ebebeb"/>
        <path id="Path_147456" data-name="Path 147456" d="M391.6,200.215c0,.114,5.886.215,13.149.215s13.162-.1,13.162-.215S412.025,200,404.775,200,391.6,200.088,391.6,200.215Z" transform="translate(-322.582 9.038)" fill="#e0e0e0"/>
        <path id="Path_147457" data-name="Path 147457" d="M391.6,202.7c0,.126,5.886.215,13.149.215s13.162-.088,13.162-.215-5.886-.215-13.162-.215S391.6,202.578,391.6,202.7Z" transform="translate(-322.582 9.693)" fill="#e0e0e0"/>
        <path id="Path_147458" data-name="Path 147458" d="M390.9,228.345c0,.126,6.455.227,14.4.227s14.4-.1,14.4-.227-6.442-.215-14.4-.215S390.9,228.231,390.9,228.345Z" transform="translate(-323.486 16.44)" fill="#e0e0e0"/>
      </g>
      <g id="freepik--Table--inject-13" transform="translate(4.636 544.315)">
        <path id="Path_147459" data-name="Path 147459" d="M24.6,465.758c0,.19,124.092.328,277.122.328s277.147-.139,277.147-.328-124.066-.328-277.147-.328S24.6,465.582,24.6,465.758Z" transform="translate(-24.6 -465.43)" fill="#263238"/>
      </g>
      <g id="freepik--speech-bubble--inject-13" transform="translate(202.898 72.198)">
        <path id="Path_147460" data-name="Path 147460" d="M116.266,305.5h98.2l18.758,27.789,18.3-27.789h96.454a11.166,11.166,0,0,0,11.166-11.166V103.079A11.166,11.166,0,0,0,347.978,91.9H116.266A11.166,11.166,0,0,0,105.1,103.079v191.3A11.166,11.166,0,0,0,116.266,305.5Z" transform="translate(-104.821 -91.606)" fill="#fafafa"/>
        <path id="Path_147461" data-name="Path 147461" d="M116.244,305.559h-.606a11.212,11.212,0,0,1-1.806-.265,11.091,11.091,0,0,1-8.349-8.261,8.4,8.4,0,0,1-.265-3.006V274.8c0-24,.063-58.585.1-101.367v-70A10.939,10.939,0,0,1,112.9,92.77a13.022,13.022,0,0,1,4.712-.531H349.079a11.713,11.713,0,0,1,1.453.265,10.749,10.749,0,0,1,7.945,7.97,22.6,22.6,0,0,1,.316,5.419V291.8a25.677,25.677,0,0,1-.2,4.648,10.875,10.875,0,0,1-5.053,7.213,10.559,10.559,0,0,1-4.232,1.453c-1.478.152-3.057.063-4.573.088H251.362l-.076.114-18.278,27.789h.379L214.6,305.319l-.063-.089h-.1l-72.454.328h0l72.391.089-.164-.089q8.716,12.985,18.732,27.852l.189.291.189-.291,18.316-27.789-.2.114H344.7c1.541,0,3.044.063,4.636-.088a11.5,11.5,0,0,0,9.916-8.93,25.27,25.27,0,0,0,.227-4.762V103.241a11.457,11.457,0,0,0-8.766-11.267,12.712,12.712,0,0,0-1.541-.278H117.6a13.7,13.7,0,0,0-4.888.568,11.6,11.6,0,0,0-4.219,2.526,11.368,11.368,0,0,0-2.792,3.966,12.013,12.013,0,0,0-.9,4.737v70c0,42.783.076,77.418.1,101.367V294.09a12.784,12.784,0,0,0,.063,1.566,10.926,10.926,0,0,0,.265,1.478,11.191,11.191,0,0,0,8.5,8.3,10.292,10.292,0,0,0,1.806.215Z" transform="translate(-104.798 -91.667)" fill="#263238"/>
        <path id="Path_147462" data-name="Path 147462" d="M185.24,185.842c0,2.526-1.857,4.017-4.838,4.017h-2.236v3.069H175.64V181.8h4.813C183.383,181.851,185.24,183.392,185.24,185.842Zm-2.615,0c0-1.263-.783-1.945-2.362-1.945h-2.1v3.865h2.1C181.842,187.813,182.625,187.105,182.625,185.842Z" transform="translate(-88.572 -67.949)" fill="#263238"/>
        <path id="Path_147463" data-name="Path 147463" d="M192.162,187.574v4.876h-2.324v-1.061a2.817,2.817,0,0,1-2.6,1.187c-2,0-3.2-1.112-3.2-2.589s1.074-2.526,3.676-2.526h1.971c0-1.061-.632-1.68-1.971-1.68a4.106,4.106,0,0,0-2.463.8l-.9-1.73a6.594,6.594,0,0,1,3.688-1.036C190.659,183.772,192.162,184.985,192.162,187.574Zm-2.526,2.173v-.872h-1.705c-1.162,0-1.528.429-1.528,1s.531,1.036,1.4,1.036a1.832,1.832,0,0,0,1.882-1.162Z" transform="translate(-86.361 -67.421)" fill="#263238"/>
        <path id="Path_147464" data-name="Path 147464" d="M191.59,191.642l.821-1.781a5.9,5.9,0,0,0,2.981.821c1.137,0,1.566-.29,1.566-.771,0-1.4-5.166,0-5.166-3.385,0-1.617,1.465-2.766,3.966-2.766a7.125,7.125,0,0,1,3.284.745l-.821,1.768a4.9,4.9,0,0,0-2.526-.632c-1.112,0-1.592.341-1.592.783,0,1.465,5.166,0,5.166,3.423,0,1.592-1.478,2.716-4.042,2.716a7.428,7.428,0,0,1-3.638-.922Z" transform="translate(-84.374 -67.434)" fill="#263238"/>
        <path id="Path_147465" data-name="Path 147465" d="M198.27,191.642l.821-1.781a5.9,5.9,0,0,0,2.968.821c1.15,0,1.579-.29,1.579-.771,0-1.4-5.166,0-5.166-3.385,0-1.617,1.465-2.766,3.954-2.766a7.137,7.137,0,0,1,3.3.745l-.834,1.768a4.838,4.838,0,0,0-2.463-.632c-1.112,0-1.579.341-1.579.783,0,1.465,5.154,0,5.154,3.423,0,1.592-1.478,2.716-4.03,2.716A7.389,7.389,0,0,1,198.27,191.642Z" transform="translate(-82.615 -67.434)" fill="#263238"/>
        <path id="Path_147466" data-name="Path 147466" d="M219.44,183.88l-3.095,8.551h-2.387l-1.92-5.305-1.983,5.305h-2.413l-3.082-8.551H206.9l2.021,5.785,2.1-5.785h2.1l2.034,5.785,2.084-5.785Z" transform="translate(-80.961 -67.402)" fill="#263238"/>
        <path id="Path_147467" data-name="Path 147467" d="M216.572,188.312a4.7,4.7,0,1,1,4.7,4.4,4.4,4.4,0,0,1-4.7-4.4Zm6.884,0a2.2,2.2,0,1,0-2.185,2.362,2.173,2.173,0,0,0,2.16-2.362Z" transform="translate(-77.802 -67.552)" fill="#263238"/>
        <path id="Path_147468" data-name="Path 147468" d="M230.626,183.783v2.286h-.556a2.1,2.1,0,0,0-2.274,2.375v4.042H225.27v-8.552h2.375v1.124a3.436,3.436,0,0,1,2.981-1.276Z" transform="translate(-75.512 -67.431)" fill="#263238"/>
        <path id="Path_147469" data-name="Path 147469" d="M239.478,181.328v11.785h-2.362v-.985a3.3,3.3,0,0,1-2.665,1.112,4.421,4.421,0,1,1,0-8.842,3.284,3.284,0,0,1,2.526,1.036V181.29Zm-2.425,7.579a2.2,2.2,0,1,0-2.185,2.362,2.173,2.173,0,0,0,2.185-2.425Z" transform="translate(-74.257 -68.083)" fill="#263238"/>
        <rect id="Rectangle_110264" data-name="Rectangle 110264" width="29.937" height="41.419" rx="5.48" transform="translate(182.665 144.217)" fill="#ebebeb"/>
        <rect id="Rectangle_110265" data-name="Rectangle 110265" width="29.128" height="41.419" rx="5.48" transform="translate(112.017 144.217)" fill="#ebebeb"/>
        <rect id="Rectangle_110266" data-name="Rectangle 110266" width="29.128" height="41.419" rx="5.48" transform="translate(147.032 144.217)" fill="#ebebeb"/>
        <rect id="Rectangle_110267" data-name="Rectangle 110267" width="29.949" height="41.419" rx="5.48" transform="translate(76.346 144.217)" fill="#ebebeb"/>
        <rect id="Rectangle_110268" data-name="Rectangle 110268" width="29.949" height="41.419" rx="5.48" transform="translate(42.001 144.217)" fill="#ebebeb"/>
        <path id="Path_147470" data-name="Path 147470" d="M149.176,222.583l-3.2,1.73,1.44,2.413,3.221-1.92v3.562h2.754v-3.587l3.234,1.945,1.415-2.413-3.208-1.73,3.208-1.768-1.415-2.413-3.234,1.945V216.76h-2.754v3.587L147.42,218.4l-1.44,2.413Z" transform="translate(44.643 -58.75)" fill="#0079f2"/>
        <path id="Path_147471" data-name="Path 147471" d="M176.9,222.428l-3.208,1.73,1.44,2.413,3.234-1.895-.063,3.562h2.766v-3.587L184.3,226.6l1.4-2.413-3.2-1.73,3.2-1.768-1.4-2.413-3.234,1.945V216.63H178.3l.063,3.587-3.234-1.945-1.44,2.413Z" transform="translate(-18.018 -58.784)" fill="#0079f2"/>
        <path id="Path_147472" data-name="Path 147472" d="M205.208,222.433,202,224.164l1.44,2.413,3.3-1.895-.063,3.562h2.766v-3.587l3.234,1.945,1.377-2.438-3.2-1.731,3.2-1.768-1.4-2.413-3.234,1.945V216.61h-2.766l.063,3.587-3.234-1.945-1.44,2.413Z" transform="translate(-82.126 -58.789)" fill="#0079f2"/>
        <path id="Path_147473" data-name="Path 147473" d="M232.566,222.428l-3.2,1.73,1.44,2.413,3.234-1.895-.063,3.562h2.766v-3.587l3.234,1.945,1.415-2.413-3.208-1.73,3.208-1.768-1.415-2.413-3.234,1.945V216.63H233.98l.063,3.587-3.234-1.945-1.44,2.413Z" transform="translate(-144.043 -58.784)" fill="#0079f2"/>
        <path id="Path_147474" data-name="Path 147474" d="M145.355,247.576h15.486a7.238,7.238,0,0,0,7.225-7.225V212.865a7.238,7.238,0,0,0-7.225-7.225H145.355a7.225,7.225,0,0,0-7.225,7.225v27.486a7.238,7.238,0,0,0,7.225,7.225Zm15.486-41.482a6.72,6.72,0,0,1,6.707,6.72V240.3a6.707,6.707,0,0,1-6.707,6.707H145.355a6.72,6.72,0,0,1-6.72-6.707V212.865a6.733,6.733,0,0,1,6.72-6.72Z" transform="translate(44.535 -61.676)" fill="#263238"/>
        <path id="Path_147475" data-name="Path 147475" d="M173.813,247.576h15.5a7.238,7.238,0,0,0,7.225-7.225V212.865a7.238,7.238,0,0,0-7.225-7.225h-15.5a7.225,7.225,0,0,0-7.213,7.225v27.486a7.225,7.225,0,0,0,7.213,7.225Zm15.5-41.482a6.72,6.72,0,0,1,6.707,6.72V240.3a6.707,6.707,0,0,1-6.707,6.707h-15.5a6.707,6.707,0,0,1-6.707-6.707V212.865a6.72,6.72,0,0,1,6.707-6.72Z" transform="translate(-19.897 -61.676)" fill="#263238"/>
        <path id="Path_147476" data-name="Path 147476" d="M201.48,247.576h15.511a7.238,7.238,0,0,0,7.225-7.225V212.865a7.238,7.238,0,0,0-7.225-7.225h-15.5a7.225,7.225,0,0,0-7.213,7.225v27.486a7.225,7.225,0,0,0,7.2,7.225Zm15.511-41.482a6.72,6.72,0,0,1,6.707,6.72V240.3a6.707,6.707,0,0,1-6.707,6.707h-15.5a6.707,6.707,0,0,1-6.707-6.707V212.865a6.72,6.72,0,0,1,6.707-6.72Z" transform="translate(-82.541 -61.676)" fill="#263238"/>
        <path id="Path_147477" data-name="Path 147477" d="M229.48,247.576h15.511a7.238,7.238,0,0,0,7.225-7.225V212.865a7.225,7.225,0,0,0-7.225-7.225H229.505a7.238,7.238,0,0,0-7.225,7.225v27.486a7.238,7.238,0,0,0,7.2,7.225Zm15.511-41.482a6.733,6.733,0,0,1,6.72,6.72V240.3a6.72,6.72,0,0,1-6.72,6.707H229.505A6.707,6.707,0,0,1,222.8,240.3V212.865a6.72,6.72,0,0,1,6.707-6.72Z" transform="translate(-145.909 -61.676)" fill="#263238"/>
        <path id="Path_147478" data-name="Path 147478" d="M256.715,247.576H272.2a7.238,7.238,0,0,0,7.225-7.225V212.865a7.225,7.225,0,0,0-7.225-7.225H256.715a7.238,7.238,0,0,0-7.225,7.225v27.486a7.238,7.238,0,0,0,7.225,7.225ZM272.2,206.095a6.732,6.732,0,0,1,6.72,6.72V240.3a6.72,6.72,0,0,1-6.72,6.707H256.715a6.707,6.707,0,0,1-6.707-6.707V212.865a6.72,6.72,0,0,1,6.707-6.72Z" transform="translate(-207.489 -61.676)" fill="#263238"/>
        <path id="Path_147479" data-name="Path 147479" d="M254.77,230.207a51.54,51.54,0,0,0,8.3.328,51.546,51.546,0,0,0,8.3-.328,53.346,53.346,0,0,0-8.3-.328A53.354,53.354,0,0,0,254.77,230.207Z" transform="translate(-206.1 -55.308)" fill="#0079f2"/>
        <ellipse id="Ellipse_802" data-name="Ellipse 802" cx="33.461" cy="33.461" rx="33.461" ry="33.461" transform="translate(92.476 34.348)" fill="#0079f2"/>
        <path id="Path_147480" data-name="Path 147480" d="M214.134,142.6h.556v-3.12a6.53,6.53,0,1,0-13.048,0v2.526h.556V139.48a5.975,5.975,0,1,1,11.937,0Z" transform="translate(-82.311 -80.879)" fill="#fff"/>
        <path id="Path_147481" data-name="Path 147481" d="M200.754,162.4h16.585a2.741,2.741,0,0,0,2.754-2.754V143.064a2.754,2.754,0,0,0-2.754-2.754H200.754A2.766,2.766,0,0,0,198,143.064v16.585A2.754,2.754,0,0,0,200.754,162.4Zm16.585-21.537a2.2,2.2,0,0,1,2.2,2.2v16.585a2.2,2.2,0,0,1-2.2,2.2H200.754a2.2,2.2,0,0,1-2.2-2.2V143.064a2.2,2.2,0,0,1,2.2-2.2Z" transform="translate(-83.115 -78.867)" fill="#fff"/>
        <path id="Path_147482" data-name="Path 147482" d="M207.332,150.579a2.615,2.615,0,1,0-2.6-2.6,2.615,2.615,0,0,0,2.6,2.6Zm0-4.648a2.034,2.034,0,1,1-1.451.6,2.046,2.046,0,0,1,1.451-.6Z" transform="translate(-81.483 -77.541)" fill="#fff"/>
        <rect id="Rectangle_110269" data-name="Rectangle 110269" width="0.556" height="4.699" transform="translate(125.659 72.634)" fill="#fff"/>
        <ellipse id="Ellipse_803" data-name="Ellipse 803" cx="10.332" cy="10.333" rx="10.332" ry="10.333" transform="matrix(-0.215, -0.977, 0.977, -0.215, 14.865, 31.58)" fill="#e0e0e0"/>
        <path id="Path_147483" data-name="Path 147483" d="M292.56,111.358a.316.316,0,0,0,.227-.1.3.3,0,0,0,0-.442l-6.695-6.695a.3.3,0,0,0-.442,0,.316.316,0,0,0,0,.455l6.695,6.682A.316.316,0,0,0,292.56,111.358Z" transform="translate(-266.5 -88.416)" fill="#fff"/>
        <path id="Path_147484" data-name="Path 147484" d="M285.877,111.358a.316.316,0,0,0,.215-.1l6.695-6.682a.316.316,0,0,0,0-.455.3.3,0,0,0-.442,0l-6.695,6.695a.3.3,0,0,0,0,.442A.316.316,0,0,0,285.877,111.358Z" transform="translate(-266.499 -88.416)" fill="#fff"/>
      </g>
      <g id="freepik--Plant--inject-13" transform="translate(412.397 332.805)">
        <path id="Path_147485" data-name="Path 147485" d="M48.534,438.67S81.906,400.258,94.5,361.846s6.619-34,6.619-34-17,37.313-29.911,55.338-35.9,44.463-35.9,44.463Z" transform="translate(30.446 -290.167)" fill="#455a64"/>
        <path id="Path_147486" data-name="Path 147486" d="M97.039,332.745a1.945,1.945,0,0,1,3.613,1.263c-2.034,13.5-6.429,45.158-6.316,65.684.215,26.678,0,36.985,0,36.985H80.441s2.526-55.149,5.608-72C88.3,352.917,92.972,339.831,97.039,332.745Z" transform="translate(-24.703 -289.095)" fill="#455a64"/>
        <path id="Path_147487" data-name="Path 147487" d="M114.34,433.171A147.092,147.092,0,0,1,102.909,391.7c-1.137-9.815.9-23.09,3.928-40.8a108.919,108.919,0,0,0,1.756-19.629,3.309,3.309,0,0,0-6.215-1.554c-1.68,2.994-6.53,13.212-7.768,19.617-3.36,17.482-7.162,26.223-4.257,42.821s13.68,42.138,13.68,42.138Z" transform="translate(-49.583 -290.086)" fill="#455a64"/>
        <path id="Path_147488" data-name="Path 147488" d="M151.472,438.725S114.841,359.98,112.314,348.3s-11.179-38.6-12.189-37.073-2.526,15.739,4.055,32,34.8,97.906,34.8,97.906h12.493" transform="translate(-99.22 -294.516)" fill="#455a64"/>
        <path id="Path_147489" data-name="Path 147489" d="M35.7,430.641a6.534,6.534,0,0,0,1.023-.707c.657-.493,1.642-1.187,2.842-2.16,2.438-1.92,5.861-4.838,9.853-8.69a165.473,165.473,0,0,0,26.526-34.1A223.819,223.819,0,0,0,94.1,345.669c1.844-5.229,3.183-9.512,4.055-12.48.455-1.491.758-2.653.973-3.436a7.375,7.375,0,0,0,.291-1.263,7.23,7.23,0,0,0-.442,1.162c-.278.846-.644,1.983-1.112,3.4-.96,2.943-2.387,7.187-4.282,12.391a238.81,238.81,0,0,1-18.3,39.094,173.051,173.051,0,0,1-26.3,34.1c-3.928,3.9-7.276,6.872-9.65,8.842-1.175,1.01-2.135,1.743-2.741,2.274a7.709,7.709,0,0,0-.884.884Z" transform="translate(33.074 -289.956)" fill="#263238"/>
        <path id="Path_147490" data-name="Path 147490" d="M81.9,391.628a11.078,11.078,0,0,0,.328-2.312c.177-1.629.4-3.789.682-6.316.581-5.33,1.49-12.632,2.779-20.753s2.741-15.335,3.865-20.564c.543-2.526.985-4.61,1.339-6.215a12.835,12.835,0,0,0,.4-2.3,13.543,13.543,0,0,0-.707,2.223c-.4,1.453-.947,3.549-1.579,6.164-1.263,5.217-2.792,12.48-4.093,20.577S82.8,377.595,82.4,382.951c-.215,2.665-.366,4.838-.429,6.316A14.225,14.225,0,0,0,81.9,391.628Z" transform="translate(-17.146 -288.724)" fill="#263238"/>
        <path id="Path_147491" data-name="Path 147491" d="M102.133,328.87a4.9,4.9,0,0,0-.429,1l-1.1,2.931c-.493,1.263-1.048,2.829-1.579,4.686s-1.263,3.928-1.781,6.316l-.909,3.7c-.3,1.263-.518,2.653-.8,4.055-.606,2.792-.973,5.823-1.415,9.006A133.889,133.889,0,0,0,95.616,402.2c.669,3.133,1.263,6.139,2.046,8.842.392,1.377.707,2.728,1.1,3.992l1.175,3.688c.695,2.324,1.554,4.358,2.223,6.164a40.3,40.3,0,0,0,1.907,4.56l1.263,2.842a4.977,4.977,0,0,0,.505.96,5.744,5.744,0,0,0-.354-1.023c-.3-.733-.695-1.693-1.175-2.893s-1.149-2.779-1.768-4.61-1.453-3.789-2.122-6.177c-.354-1.149-.72-2.362-1.112-3.625s-.682-2.6-1.048-3.979c-.758-2.741-1.263-5.722-1.971-8.842a138.819,138.819,0,0,1-1.491-41.406c.429-3.171.771-6.189,1.339-8.981.265-1.389.467-2.754.758-4.042s.581-2.526.859-3.7c.493-2.362,1.162-4.446,1.655-6.316s1.011-3.436,1.453-4.724l.947-2.968a5.736,5.736,0,0,0,.328-1.086Z" transform="translate(-45.953 -289.856)" fill="#263238"/>
        <path id="Path_147492" data-name="Path 147492" d="M103.98,312.46a1.5,1.5,0,0,0,0,.354,8.779,8.779,0,0,0,.164,1.023c.164.9.366,2.223.72,3.916a142.3,142.3,0,0,0,3.789,14.172c1.895,5.911,4.32,12.859,7.288,20.476s6.392,15.928,9.65,24.77,5.848,17.444,8.236,25.263,4.623,14.842,6.8,20.64a130.979,130.979,0,0,0,5.747,13.478c.745,1.554,1.427,2.716,1.857,3.524l.518.9c.114.2.177.3.189.291a1.061,1.061,0,0,0-.126-.328l-.442-.935c-.392-.821-1.023-2.008-1.73-3.587-1.465-3.12-3.461-7.705-5.533-13.528s-4.295-12.821-6.619-20.652-4.888-16.421-8.2-25.263-6.72-17.166-9.714-24.77-5.545-14.488-7.44-20.375-3.145-10.711-3.941-14.071c-.4-1.68-.657-2.994-.872-3.89-.088-.4-.177-.733-.24-1A1.15,1.15,0,0,0,103.98,312.46Z" transform="translate(-102.684 -294.174)" fill="#263238"/>
        <path id="Path_147493" data-name="Path 147493" d="M103.482,298.876a3.145,3.145,0,0,1,5.192,3.208,89.869,89.869,0,0,1-4.6,11.848c-5.053,10.7-19.831,49.111-26.766,70.206s-16.636,60.454-16.636,60.454l-14.791-2.4s13.528-64.61,26.7-87.965C83.208,335.507,93.844,308.451,103.482,298.876Z" transform="translate(10.804 -297.983)" fill="#455a64"/>
        <path id="Path_147494" data-name="Path 147494" d="M86.644,376.64a8.274,8.274,0,0,0-.771,1.768c-.429,1.162-1.036,2.855-1.705,4.964-1.364,4.219-3.032,10.105-4.7,16.661s-3.082,12.518-4.055,16.838c-.442,2.034-.808,3.789-1.112,5.116a9.765,9.765,0,0,0-.3,1.907,9.471,9.471,0,0,0,.606-1.832c.354-1.352.808-3.044,1.352-5.053,1.137-4.446,2.615-10.295,4.269-16.762s3.246-12.455,4.472-16.7c.581-2.008,1.074-3.688,1.465-5.053A9.637,9.637,0,0,0,86.644,376.64Z" transform="translate(-2.536 -277.285)" fill="#263238"/>
        <path id="Path_147495" data-name="Path 147495" d="M47.241,443.259a1.568,1.568,0,0,0,.076-.392,8.754,8.754,0,0,1,.177-1.162c.152-1.023.291-2.526.606-4.484.543-3.891,1.5-9.486,3.095-16.32a235.506,235.506,0,0,1,6.922-23.621c3.044-8.766,6.846-18.24,11.154-28.042,8.7-19.566,17.394-36.934,23.116-49.768,2.88-6.417,5.053-11.634,6.594-15.284.745-1.819,1.263-3.246,1.655-4.206.177-.442.3-.808.417-1.1a1.428,1.428,0,0,0,.114-.392,1.7,1.7,0,0,0-.189.354l-.48,1.074c-.442,1.011-1.036,2.4-1.806,4.156-1.554,3.6-3.865,8.842-6.808,15.158-5.836,12.745-14.615,30.088-23.33,49.692-4.307,9.815-8.109,19.313-11.116,28.118a223.579,223.579,0,0,0-6.783,23.747A164.469,164.469,0,0,0,47.8,437.209c-.265,1.945-.354,3.474-.467,4.5l-.088,1.175a1.643,1.643,0,0,0,0,.379Z" transform="translate(16.758 -297.85)" fill="#263238"/>
        <path id="Path_147496" data-name="Path 147496" d="M82.93,425.1a16.231,16.231,0,0,0,.505-2.526c.291-1.731.682-4.029,1.149-6.8,1.011-5.735,2.526-13.629,4.813-22.219s4.712-16.206,6.632-21.7c.935-2.653,1.718-4.838,2.312-6.493a15.671,15.671,0,0,0,.783-2.413,15.163,15.163,0,0,0-1.074,2.3c-.632,1.5-1.528,3.688-2.526,6.417A214.752,214.752,0,0,0,88.652,393.4a225.347,225.347,0,0,0-4.61,22.32c-.417,2.88-.733,5.217-.9,6.846a16.847,16.847,0,0,0-.215,2.526Z" transform="translate(-26.295 -280.888)" fill="#263238"/>
        <rect id="Rectangle_110270" data-name="Rectangle 110270" width="57.738" height="70.345" transform="translate(26.269 142.087)" fill="#0079f2"/>
        <g id="Group_131781" data-name="Group 131781" transform="translate(26.269 142.087)" opacity="0.3">
          <rect id="Rectangle_110271" data-name="Rectangle 110271" width="57.738" height="70.345"/>
        </g>
        <rect id="Rectangle_110272" data-name="Rectangle 110272" width="51.221" height="70.345" transform="translate(44.698 142.087)" fill="#0079f2"/>
      </g>
      <g id="freepik--Character--inject-13" transform="translate(11.451 150.776)">
        <path id="Path_147497" data-name="Path 147497" d="M308.886,287.486l30.353-4.4,60.72,8.981L417,298.1l-3.019,37.263L355.6,346.108l-39.385-11.671L301.32,312.521Z" transform="translate(-219.083 -119.874)" fill="#ffbe9d"/>
        <path id="Path_147498" data-name="Path 147498" d="M325.682,290.637,351.1,284.65s17.949,55.578,62.273,53.141c36.126-1.958,36.543-42.277,36.543-42.277l26.033,8.337s9.966,66.783-1.061,114.1c-2.526,11.053-6.025,25.945-6.025,25.945l3.524,69.132-192.554.3,45.852-222.692Z" transform="translate(-255.016 -119.463)" fill="#0079f2"/>
        <g id="Group_131782" data-name="Group 131782" transform="translate(26.772 363.943)" opacity="0.3">
          <path id="Path_147499" data-name="Path 147499" d="M461.68,458.206c-9.373-.24-18.013.556-27.385.328-11.242-.278-22.572-.556-33.676,1.263-8.312,1.377-16.421,3.9-24.732,5.217-11.368,1.794-23.482,1.162-33.587-4.307l1.629-9.436L382.3,442Z" transform="translate(-342.3 -442)"/>
        </g>
        <path id="Path_147500" data-name="Path 147500" d="M262.4,315.525c-8.842-11.368-23.444-16.105-23.444-16.105L229.1,385.175l18.657,124.875,61.111-.291S275.167,332.009,262.4,315.525Z" transform="translate(-19.728 -115.576)" fill="#0079f2"/>
        <path id="Path_147501" data-name="Path 147501" d="M464.822,288.89s-41.128,3.3-55.882,70.736c-6.669,30.48-15.158,66.189-17.545,90.2-1.756,17.406,7.705,44.665,25.061,46.9l21.827,2.93a36.062,36.062,0,0,0,12.859-.467c13.781-3.171,15.158-12.631,17.684-22.737l6.316-20.109c3.486-19.124-14.337-22.737-24.177-22.471l7.339-87.3Z" transform="translate(-391.187 -118.347)" fill="#0079f2"/>
        <path id="Path_147502" data-name="Path 147502" d="M289.423,337.17a4.467,4.467,0,0,1,.19.935c.1.682.24,1.592.417,2.716.076.594.177,1.263.278,1.97s.152,1.5.24,2.349c.177,1.68.379,3.6.467,5.735a145,145,0,0,1,.1,14.994,183.036,183.036,0,0,1-1.819,18.253c-.947,6.455-2.135,12.543-3.347,18.05s-2.387,10.446-3.423,14.589-1.907,7.465-2.526,9.764c-.3,1.1-.543,1.983-.733,2.64a4.463,4.463,0,0,1-.3.91,4.694,4.694,0,0,1,.177-.935c.152-.682.354-1.566.606-2.678.568-2.387,1.364-5.722,2.349-9.815s2.122-9.095,3.272-14.6,2.349-11.583,3.284-18.012,1.592-12.632,1.87-18.2a130.25,130.25,0,0,0,0-14.93c-.063-2.135-.227-4.042-.366-5.735q-.088-1.263-.189-2.349c-.076-.707-.152-1.364-.215-1.97-.126-1.124-.227-2.034-.291-2.728A4.844,4.844,0,0,1,289.423,337.17Z" transform="translate(-65.107 -105.643)" fill="#263238"/>
        <path id="Path_147503" data-name="Path 147503" d="M410.54,427.355a7.405,7.405,0,0,1,.291-1.73,27.562,27.562,0,0,1,1.592-4.434,30.227,30.227,0,0,1,24.139-17.57,26.518,26.518,0,0,1,4.711-.152,7.7,7.7,0,0,1,1.718.215,56.4,56.4,0,0,0-6.316.392,31.187,31.187,0,0,0-23.785,17.305A61.255,61.255,0,0,0,410.54,427.355Z" transform="translate(-383.036 -88.208)" fill="#263238"/>
        <path id="Path_147504" data-name="Path 147504" d="M410.7,395.81a3.17,3.17,0,0,1,1-.088,20.969,20.969,0,0,1,2.716.126,31.165,31.165,0,0,1,8.678,2.173,31.894,31.894,0,0,1,7.705,4.56A21.94,21.94,0,0,1,432.8,404.4c.442.467.669.733.644.771s-1.112-.884-2.943-2.223a36.266,36.266,0,0,0-16.156-6.644C412.113,395.974,410.7,395.924,410.7,395.81Z" transform="translate(-373.695 -90.237)" fill="#263238"/>
        <path id="Path_147505" data-name="Path 147505" d="M407.044,335.764a9.332,9.332,0,0,1-.1-1.806c0-1.162-.076-2.829-.215-4.888a78.491,78.491,0,0,0-8.665-30.846c-.947-1.832-1.768-3.3-2.362-4.282a9.316,9.316,0,0,1-.846-1.592,9.522,9.522,0,0,1,1.074,1.453,49.025,49.025,0,0,1,2.526,4.206,71.14,71.14,0,0,1,8.716,31.048c.076,2.072.076,3.789,0,4.914A8.713,8.713,0,0,1,407.044,335.764Z" transform="translate(-327.46 -117.437)" fill="#263238"/>
        <path id="Path_147506" data-name="Path 147506" d="M390.808,375.15a2.741,2.741,0,0,1-.177.707c-.151.455-.341,1.15-.682,1.983a41.152,41.152,0,0,1-3.423,6.935,44.576,44.576,0,0,1-43.667,20.968,42.562,42.562,0,0,1-7.579-1.655c-.872-.265-1.528-.556-1.97-.72a3.778,3.778,0,0,1-.669-.291c0-.063.973.265,2.716.758a45.783,45.783,0,0,0,50.791-19.3,47.885,47.885,0,0,0,3.587-6.783A17.071,17.071,0,0,1,390.808,375.15Z" transform="translate(-232.454 -95.648)" fill="#263238"/>
        <path id="Path_147507" data-name="Path 147507" d="M468.32,453.631c-.063-.063-.707.859-2.248,2.122a20.653,20.653,0,0,1-7.579,3.587,39.829,39.829,0,0,1-12.379,1.1c-4.7-.341-9.89-.9-15.271-1.693a78.315,78.315,0,0,1-14.905-3.436,18.945,18.945,0,0,1-5.47-3.65,28.4,28.4,0,0,1-3.789-4.358,41.188,41.188,0,0,1-4.206-7.288c-.392-.922-.695-1.629-.884-2.122a2.878,2.878,0,0,0-.328-.733,5.193,5.193,0,0,0,.2.771c.152.518.417,1.263.783,2.185a36.913,36.913,0,0,0,4.055,7.465,28.219,28.219,0,0,0,3.789,4.471,19.1,19.1,0,0,0,5.608,3.789,74.289,74.289,0,0,0,15.031,3.524c5.419.808,10.6,1.339,15.335,1.655a39.79,39.79,0,0,0,12.543-1.263,20.212,20.212,0,0,0,7.579-3.789,12.108,12.108,0,0,0,1.6-1.68A3.31,3.31,0,0,0,468.32,453.631Z" transform="translate(-396.644 -79.331)" fill="#263238"/>
        <path id="Path_147508" data-name="Path 147508" d="M414.611,343.72c-.164,0-4.509,16.787-9.676,37.6s-9.221,37.717-9.044,37.768,4.509-16.8,9.676-37.616S414.788,343.758,414.611,343.72Z" transform="translate(-336.151 -103.919)" fill="#263238"/>
        <path id="Path_147509" data-name="Path 147509" d="M415.219,423.092a5.154,5.154,0,0,0,.215-1.39,24.75,24.75,0,0,0,.088-3.789,11.23,11.23,0,0,0-1.857-5.394,16.041,16.041,0,0,0-2.109-2.653,14.861,14.861,0,0,0-2.918-2.173,36.984,36.984,0,0,0-11.975-3.865,33.64,33.64,0,0,0-3.789-.328,4.774,4.774,0,0,0-1.4,0c0,.1,1.983.177,5.128.745a39.889,39.889,0,0,1,11.722,3.966,14.649,14.649,0,0,1,2.8,2.072,15.865,15.865,0,0,1,2.046,2.526,10.877,10.877,0,0,1,1.895,5.053,32.3,32.3,0,0,1,.114,3.79,6.228,6.228,0,0,0,.038,1.44Z" transform="translate(-331.518 -88.202)" fill="#263238"/>
        <g id="Group_131783" data-name="Group 131783" transform="translate(222.117 228.786)" opacity="0.3">
          <path id="Path_147510" data-name="Path 147510" d="M275.756,394.368c10.5-17.772,10.724-40.863,1.566-59.368a166.432,166.432,0,0,1-1.869,59.292" transform="translate(-275.453 -335)"/>
        </g>
        <path id="Path_147511" data-name="Path 147511" d="M325.966,417.08h-.076Z" transform="translate(-159.086 -84.615)" fill="#ffbe9d"/>
        <path id="Path_147512" data-name="Path 147512" d="M326.414,417.25l-.164.076Z" transform="translate(-159.989 -84.57)" fill="#ffbe9d"/>
        <path id="Path_147513" data-name="Path 147513" d="M326.379,417.11l-.379.177Z" transform="translate(-159.638 -84.607)" fill="#ffbe9d"/>
        <path id="Path_147514" data-name="Path 147514" d="M325.924,417l-.164.076Z" transform="translate(-158.88 -84.636)" fill="#ffbe9d"/>
        <path id="Path_147515" data-name="Path 147515" d="M436,453.2c-3.309-6.24-29.115-22.737-29.115-22.737l6.985-1.617,7.718,3.259a18.948,18.948,0,0,0,3.322,7.225c2.829,4.042,7.642-.139,7.642-.139l-3.259-15.625-15.259-9.183s-14.349,2.2-16.674,3.309l-6.114,5.6c-2.691,2.109-10.446,10.408-12.568,10.661S309.9,419.23,309.9,419.23h0c-9.133,7.238-13.895,21.6-15.385,31.97,0,0-1.629,5.053.139,7.857l81.764,6.417,17.33,4.787a122.689,122.689,0,0,0,14.236,4.888c5.76,1.263,9.638-.644,9.8-3.789s-4.32-3.537-4.32-3.537a87.165,87.165,0,0,1-11.141-4.9,19.541,19.541,0,0,1-6.316-6.9l6.177.733s13.137,9.12,18.076,11.8,5.912-2.236,6.316-3.789-14.754-16.307-14.754-16.307,14.413,8.842,17,11.116,6.429,2.918,7.25,1.415S439.3,459.436,436,453.2Z" transform="translate(-230.318 -85.325)" fill="#ffbe9d"/>
        <path id="Path_147516" data-name="Path 147516" d="M326.519,417.31l-.139.076Z" transform="translate(-160.258 -84.554)" fill="#ffbe9d"/>
        <path id="Path_147517" data-name="Path 147517" d="M326.56,417.4Z" transform="translate(-160.526 -84.531)" fill="#ffbe9d"/>
        <path id="Path_147518" data-name="Path 147518" d="M326.578,417.37h-.088Z" transform="translate(-160.456 -84.538)" fill="#ffbe9d"/>
        <path id="Path_147519" data-name="Path 147519" d="M340.624,450.555a3.553,3.553,0,0,1-.076-1.011,5.918,5.918,0,0,1,.076-1.187,8.934,8.934,0,0,1,.291-1.554,22.182,22.182,0,0,1,4.181-8.072,46.737,46.737,0,0,1,6.316-6.543,18.148,18.148,0,0,1,2.968-2.3A31.86,31.86,0,0,1,351.7,432.5a60.179,60.179,0,0,0-6.114,6.606,23.762,23.762,0,0,0-4.244,7.806C340.687,449.115,340.75,450.568,340.624,450.555Z" transform="translate(-206.005 -81.244)" fill="#eb996e"/>
        <path id="Path_147520" data-name="Path 147520" d="M326.837,427.313a9.474,9.474,0,0,1-8.147-2.741c.1-.139,1.68,1.036,3.941,1.768S326.837,427.137,326.837,427.313Z" transform="translate(-150.863 -82.646)" fill="#eb996e"/>
        <path id="Path_147521" data-name="Path 147521" d="M328.2,441.385a81.239,81.239,0,0,1-12.909-5.305,39.454,39.454,0,0,1,6.568,2.375,41.191,41.191,0,0,1,6.341,2.93Z" transform="translate(-147.93 -79.615)" fill="#eb996e"/>
        <path id="Path_147522" data-name="Path 147522" d="M332.894,447.742a15.159,15.159,0,0,1-3.36-1.2,14.863,14.863,0,0,1-3.284-1.4A13.289,13.289,0,0,1,332.894,447.742Z" transform="translate(-166.469 -77.231)" fill="#eb996e"/>
        <path id="Path_147523" data-name="Path 147523" d="M321.079,441.186a14.3,14.3,0,0,0-2.526,2.223,14.006,14.006,0,0,0-1.465,3.057c-.076,0-.152-.417,0-1.074a5.47,5.47,0,0,1,1.036-2.349,5.407,5.407,0,0,1,1.983-1.617C320.675,441.148,321.079,441.123,321.079,441.186Z" transform="translate(-142.97 -78.279)" fill="#eb996e"/>
        <path id="Path_147524" data-name="Path 147524" d="M315.091,433.637c.088.152-1.048.771-1.794,2.072a16.423,16.423,0,0,0-.922,2.589,3.07,3.07,0,0,1,.417-2.931C313.638,433.9,315.065,433.473,315.091,433.637Z" transform="translate(-130.893 -80.267)" fill="#eb996e"/>
        <path id="Path_147525" data-name="Path 147525" d="M313.329,421.3c-.076,0-.3-.253-.493-.821a4.485,4.485,0,0,1,0-2.274,4.4,4.4,0,0,1,1.086-2c.417-.417.758-.568.808-.505a11.92,11.92,0,0,0-1.263,2.653,10.889,10.889,0,0,0-.139,2.943Z" transform="translate(-131.178 -84.981)" fill="#eb996e"/>
        <path id="Path_147526" data-name="Path 147526" d="M394.485,460.578a11.738,11.738,0,0,0,.1-1.882,20.5,20.5,0,0,1,.089-2.2c.088-.859.076-1.832.2-2.893a64.815,64.815,0,0,1,3.575-16.421,58.848,58.848,0,0,1,3.865-8.387c.758-1.263,1.415-2.387,2.173-3.411.354-.518.707-1.01,1.048-1.491a11.13,11.13,0,0,1,1.048-1.263c2.716-3.347,4.8-5.053,4.7-5.154a8.632,8.632,0,0,0-1.465,1.175,18.725,18.725,0,0,0-1.617,1.528c-.594.619-1.263,1.263-1.983,2.147-.341.43-.707.859-1.086,1.263a16.941,16.941,0,0,0-1.1,1.49c-.783,1.023-1.465,2.211-2.236,3.423a54.869,54.869,0,0,0-3.966,8.463,60.151,60.151,0,0,0-3.423,16.573c-.088,1.074-.076,2.059-.1,2.918s0,1.6,0,2.211A9.419,9.419,0,0,0,394.485,460.578Z" transform="translate(-330.817 -84.509)" fill="#263238"/>
        <g id="Group_131784" data-name="Group 131784" transform="translate(21.605 314.539)" opacity="0.3">
          <path id="Path_147527" data-name="Path 147527" d="M424.638,406a41.078,41.078,0,0,1,24.227-2.211h0a33.512,33.512,0,0,0-32.7,21.145c-.581,1.566-1.743,3.423-3.41,3.183s-2.122-2.173-2.122-3.726C410.617,416.217,417.1,409.143,424.638,406Z" transform="translate(-410.63 -402.888)"/>
        </g>
        <path id="Path_147528" data-name="Path 147528" d="M261.56,336.164a3.968,3.968,0,0,0,1.086-.366c.695-.265,1.667-.707,2.855-1.263a59.8,59.8,0,0,0,8.842-5.419,60.639,60.639,0,0,0,7.756-6.821c.909-.96,1.629-1.768,2.084-2.337s.707-.909.669-.947-1.187,1.137-3.082,2.956a80.254,80.254,0,0,1-7.819,6.631,78.86,78.86,0,0,1-8.627,5.52C262.949,335.418,261.484,336.075,261.56,336.164Z" transform="translate(-36.714 -110.422)" fill="#fff"/>
        <path id="Path_147529" data-name="Path 147529" d="M280.35,336.36a1.416,1.416,0,0,0,.316.215l.973.581c.846.518,2.135,1.263,3.789,2.1a106.1,106.1,0,0,0,14.716,6.2,141.663,141.663,0,0,0,23.027,5.533,223.475,223.475,0,0,0,28.9,2.4c10.295.24,20.1,0,29.052-.152a193.56,193.56,0,0,0,23.621-1.781,91.65,91.65,0,0,0,15.562-3.613c1.781-.606,3.158-1.112,4.067-1.5l1.036-.442a1.856,1.856,0,0,0,.354-.164l-.379.1-1.061.379c-.922.354-2.312.821-4.105,1.389a99.94,99.94,0,0,1-15.537,3.4,203.361,203.361,0,0,1-23.57,1.629c-8.842.164-18.695.341-28.964.1a226.99,226.99,0,0,1-28.825-2.349,144.088,144.088,0,0,1-22.977-5.368,114.338,114.338,0,0,1-14.754-5.987c-1.68-.834-2.981-1.5-3.789-1.983l-1-.518A2.392,2.392,0,0,0,280.35,336.36Z" transform="translate(-201.36 -105.856)" fill="#fff"/>
        <path id="Path_147530" data-name="Path 147530" d="M249.55,374.426a6.968,6.968,0,0,0,1.566-.328l4.206-1.149c3.537-1,8.413-2.425,13.794-4.029s10.232-3.107,13.743-4.219L287,363.361a8.7,8.7,0,0,0,1.491-.581,6.97,6.97,0,0,0-1.566.328l-4.206,1.15c-3.537,1-8.413,2.425-13.794,4.029s-10.232,3.095-13.743,4.206l-4.143,1.352a7.583,7.583,0,0,0-1.49.581Z" transform="translate(-25.184 -98.904)" fill="#fff"/>
        <path id="Path_147531" data-name="Path 147531" d="M238.84,430.771c0,.164,12.631-3.448,28.168-8.084s28.029-8.539,27.979-8.716-12.631,3.436-28.168,8.084S238.79,430.594,238.84,430.771Z" transform="translate(-18.15 -85.434)" fill="#fff"/>
        <path id="Path_147532" data-name="Path 147532" d="M396.01,307.69a8.741,8.741,0,0,0,1.389,1.1c.91.669,2.274,1.6,3.979,2.716a135.561,135.561,0,0,0,28.509,14.008c1.92.669,3.486,1.175,4.585,1.49a8.515,8.515,0,0,0,1.718.43,9.763,9.763,0,0,0-1.642-.669l-4.509-1.68c-3.789-1.453-8.981-3.6-14.539-6.316s-10.434-5.52-13.895-7.642l-4.093-2.526A8.959,8.959,0,0,0,396.01,307.69Z" transform="translate(-357.883 -113.4)" fill="#fff"/>
        <path id="Path_147533" data-name="Path 147533" d="M403.31,364.51a15.622,15.622,0,0,0,2.046.973c1.326.594,3.3,1.377,5.747,2.274a133.475,133.475,0,0,0,39.878,7.933c2.615.114,4.724.139,6.189.088a16.958,16.958,0,0,0,2.261-.1,13.6,13.6,0,0,0-2.261-.152c-1.453,0-3.562-.126-6.164-.3a154.909,154.909,0,0,1-20.147-2.615,157.192,157.192,0,0,1-19.617-5.28c-2.463-.846-4.446-1.566-5.81-2.084A13.141,13.141,0,0,0,403.31,364.51Z" transform="translate(-390.344 -98.448)" fill="#fff"/>
        <path id="Path_147534" data-name="Path 147534" d="M408.278,468.939a2.725,2.725,0,0,0-.063-.707c-.076-.518-.19-1.175-.316-1.983s-.316-1.92-.442-3.158-.341-2.627-.392-4.194c0-.77-.1-1.592-.152-2.438s0-1.743,0-2.653c0-1.832.076-3.789.177-5.848a85.765,85.765,0,0,1,2.034-13.238A86.759,86.759,0,0,1,413.331,422c.859-1.869,1.629-3.676,2.526-5.28.429-.808.821-1.6,1.263-2.349l1.263-2.1c.771-1.364,1.6-2.526,2.274-3.549a31.555,31.555,0,0,1,1.832-2.6l1.187-1.629a2.633,2.633,0,0,0,.379-.594,3.784,3.784,0,0,0-.48.505l-1.263,1.566a30.3,30.3,0,0,0-1.933,2.526c-.707,1.023-1.566,2.16-2.362,3.511l-1.263,2.1c-.442.733-.846,1.541-1.263,2.349a54.361,54.361,0,0,0-2.526,5.293,76.267,76.267,0,0,0-6.316,26.16c-.076,2.072-.19,4.042-.114,5.886,0,.922,0,1.819.076,2.678s.126,1.667.19,2.451c.088,1.579.341,2.968.505,4.206s.354,2.3.543,3.145.328,1.453.442,1.983a3.143,3.143,0,0,0-.013.682Z" transform="translate(-359.01 -88.083)" fill="#fff"/>
        <path id="Path_147535" data-name="Path 147535" d="M411.375,430.861c.063,0,.1-1.036.392-2.855a24.543,24.543,0,0,1,2.526-7.352,30.973,30.973,0,0,1,7.137-8.994,37.062,37.062,0,0,1,12.139-7.1,47.308,47.308,0,0,1,13.907-2.425,88.134,88.134,0,0,1,11.6.442c3.3.3,5.962.644,7.806.846l2.122.227a2.765,2.765,0,0,0,.745,0,2.853,2.853,0,0,0-.72-.164l-2.109-.354c-1.832-.291-4.5-.682-7.794-1.061a84.834,84.834,0,0,0-11.672-.581,47.4,47.4,0,0,0-14.1,2.438,37.365,37.365,0,0,0-12.328,7.276,30.709,30.709,0,0,0-7.149,9.234,23.228,23.228,0,0,0-2.312,7.579,15.767,15.767,0,0,0-.152,2.147A3.1,3.1,0,0,0,411.375,430.861Z" transform="translate(-410.839 -88.72)" fill="#fff"/>
        <path id="Path_147536" data-name="Path 147536" d="M293.92,395.79a2.968,2.968,0,0,0,.72.126l2.059.215,7.579.632c6.4.493,15.259,1.1,25.036,1.6s18.657.821,25.086.9h9.638a2.634,2.634,0,0,0,.72-.076,3.148,3.148,0,0,0-.72-.063h-2.059l-7.579-.189c-6.4-.189-15.271-.568-25.048-1.086l-25.036-1.415-7.579-.43-2.072-.088a2.88,2.88,0,0,0-.745-.126Z" transform="translate(-157.494 -90.217)" fill="#fff"/>
        <g id="Group_131785" data-name="Group 131785" transform="translate(102.346 293.649)" opacity="0.3">
          <path id="Path_147537" data-name="Path 147537" d="M365.521,400.9c-7.958,2.337-18.947,2.905-26.741,0,6.063,8.627,17.772,11.747,27.941,8.943s19.528-12.973,20.311-23.495C382.106,392.982,373.479,398.539,365.521,400.9Z" transform="translate(-338.78 -386.35)"/>
        </g>
        <path id="Path_147538" data-name="Path 147538" d="M356.25,391.281a3.983,3.983,0,0,0,.644.177l1.832.392c1.6.328,3.916.758,6.8,1.263,5.747,1.01,13.718,2.248,22.547,3.335s16.876,1.794,22.737,2.2c2.905.2,5.267.341,6.9.4l1.869.063a2.03,2.03,0,0,0,.657,0,3.387,3.387,0,0,0-.644-.1l-1.87-.189-6.872-.619c-5.81-.518-13.819-1.263-22.661-2.387s-16.787-2.248-22.547-3.133l-6.821-1.061-1.87-.265a2,2,0,0,0-.695-.076Z" transform="translate(-291.698 -91.405)" fill="#fff"/>
        <g id="Group_131786" data-name="Group 131786" transform="translate(60.38 243.641)" opacity="0.3">
          <path id="Path_147539" data-name="Path 147539" d="M413.53,346.76c2,22.863-4.232,45.549-10.408,67.654a9.4,9.4,0,0,1-1.693,3.789,3.284,3.284,0,0,1-3.789,1.048c-1.933-.985-1.667-3.789-1.124-5.861l17.166-65.684" transform="translate(-396.119 -346.76)"/>
        </g>
        <path id="Path_147540" data-name="Path 147540" d="M398.941,366.019,372.983,493.47H147.638a4.5,4.5,0,0,1-4.5-4.5h0a4.5,4.5,0,0,1,4.5-4.5H193.01l24.063-118.534A4.926,4.926,0,0,1,221.848,362l172.217-1.882a4.914,4.914,0,0,1,4.876,5.9Z" transform="translate(-1.322 -99.604)" fill="#e0e0e0"/>
        <path id="Path_147541" data-name="Path 147541" d="M399.238,366.034a3.037,3.037,0,0,0,.076-.379,4.661,4.661,0,0,0,0-1.162,5.053,5.053,0,0,0-2.387-3.726,4.886,4.886,0,0,0-1.491-.581,7.4,7.4,0,0,0-1.768-.114h-4.055l-10.105.088-65.115.619-45.4.455-25.44.265-13.339.139-6.808.063h-1.743a4.952,4.952,0,0,0-1.743.505A5.153,5.153,0,0,0,217.4,364.8a8.009,8.009,0,0,0-.467,1.73l-.354,1.718c-.227,1.137-.467,2.286-.695,3.436-.48,2.312-.947,4.636-1.427,6.96l-2.88,14.185q-2.918,14.337-5.962,29.343c-4.067,19.983-8.3,40.762-12.631,62.185l.3-.253H148.667a8.38,8.38,0,0,0-1.756.1,4.876,4.876,0,0,0-2.93,2.1,4.825,4.825,0,0,0,1.667,6.973,4.749,4.749,0,0,0,2.122.568h225.7v-.189c7.945-39.158,14.4-71.039,18.871-93.119,2.211-11.04,3.941-19.629,5.116-25.465.581-2.918,1.023-5.141,1.263-6.644s.417-2.274.417-2.274-.177.771-.493,2.261l-1.389,6.619c-1.2,5.836-2.968,14.425-5.242,25.44l-19.074,93.094.24-.2h-225.5a4.321,4.321,0,0,1-1.844-.493,4.206,4.206,0,0,1-1.44-6.076,4.119,4.119,0,0,1,2.526-1.705,8.486,8.486,0,0,1,1.629-.1H193.56v-.24q6.518-32.21,12.631-62.2,3.044-14.981,5.949-29.343L215.1,378.83c.467-2.337.935-4.648,1.4-6.96.24-1.15.467-2.3.707-3.448l.341-1.705a7.174,7.174,0,0,1,.442-1.629,4.61,4.61,0,0,1,2.16-2.324,4.7,4.7,0,0,1,1.554-.455H223.4l6.821-.076,13.339-.152,25.427-.3,45.4-.531,65.115-.8,10.105-.139,4.055-.063a7.833,7.833,0,0,1,1.743.088,5.132,5.132,0,0,1,1.453.568,4.914,4.914,0,0,1,2.387,3.638A5.876,5.876,0,0,1,399.238,366.034Z" transform="translate(-1.619 -99.619)" fill="#263238"/>
        <path id="Path_147543" data-name="Path 147543" d="M342.806,365.61H330.983l-32.223.152-106.294.745-15.373.126H173.3a9.221,9.221,0,0,0-1.933.114,5.2,5.2,0,0,0-1.819.733,5.292,5.292,0,0,0-2.286,3.107c-.291,1.263-.493,2.425-.745,3.638-1.907,9.6-3.789,18.859-5.495,27.676-3.486,17.684-6.632,33.536-9.259,46.888l-6.2,31.579c-.707,3.726-1.263,6.619-1.655,8.6-.177.973-.316,1.718-.417,2.248a6.656,6.656,0,0,0-.114.758s.076-.253.177-.745.278-1.263.48-2.236c.4-1.983,1-4.863,1.768-8.577,1.516-7.478,3.688-18.265,6.392-31.579l9.4-46.863q2.634-13.263,5.52-27.676c.253-1.187.48-2.425.733-3.587a4.736,4.736,0,0,1,2.034-2.741,4.647,4.647,0,0,1,1.617-.606,8.439,8.439,0,0,1,1.806-.1h3.789l15.373-.114,106.306-.935,32.21-.354,8.766-.126h2.274Z" transform="translate(54.611 -98.159)" fill="#263238"/>
        <path id="Path_147544" data-name="Path 147544" d="M351.14,212.37a83.494,83.494,0,0,0,26.627,62.993q5.975-17.242,11.911-34.484" transform="translate(-254.668 -138.483)" fill="#263238"/>
        <path id="Path_147545" data-name="Path 147545" d="M392.395,159.174c-10.219-5.583-22.56-6.392-33.979-4.105s-22.055,7.453-32.134,13.288c-5.659,3.272-11.293,6.872-15.36,11.975-7.415,9.335-14.754,24.669-15.461,36.631-.581,9.625,3.107,33.713,7.175,42.454,3.726,8.021,21.2,14.135,29.823,16.118l79.124-92.083a40.092,40.092,0,0,0-19.187-24.278Z" transform="translate(-206.188 -153.876)" fill="#263238"/>
        <path id="Path_147546" data-name="Path 147546" d="M300.88,168.6l-18.947-3.385c10.37,24.694,13.187,81.157,19.111,107.279,7-10.105,23.229-41.052,22.358-53.343S323.352,166.511,300.88,168.6Z" transform="translate(-101.032 -150.893)" fill="#263238"/>
        <path id="Path_147547" data-name="Path 147547" d="M290.23,208.99c1.023-14.425,10.37-26.248,24.379-29.823L358.3,168.026c18.871-2.034,31.478,21.183,32.715,40.13,1.377,21.057,2.223,43.263-.24,58.976-4.939,31.579-29.141,35.671-29.141,35.671v24.252l-14.615,60.517-47.1-65.077-9.752-113.1C290.129,208.838,290.23,209.71,290.23,208.99Z" transform="translate(-180.33 -150.185)" fill="#ffbe9d"/>
        <path id="Path_147548" data-name="Path 147548" d="M306.8,219.423a4.055,4.055,0,0,1-3.9,4.093,3.878,3.878,0,0,1-4.181-3.65,4.055,4.055,0,0,1,3.891-4.093,3.878,3.878,0,0,1,4.194,3.65Z" transform="translate(-105.605 -137.591)" fill="#263238"/>
        <path id="Path_147549" data-name="Path 147549" d="M310.944,210.444c-.505.531-3.575-1.73-7.933-1.718s-7.579,2.211-8.021,1.68c-.24-.24.278-1.187,1.667-2.211a11.141,11.141,0,0,1,6.417-2,10.762,10.762,0,0,1,6.316,2.021C310.78,209.257,311.234,210.2,310.944,210.444Z" transform="translate(-105.045 -140.107)" fill="#263238"/>
        <path id="Path_147550" data-name="Path 147550" d="M336.884,219.426a4.055,4.055,0,0,1-3.9,4.093,3.865,3.865,0,0,1-4.181-3.663,4.055,4.055,0,0,1,3.89-4.093,3.878,3.878,0,0,1,4.194,3.663Z" transform="translate(-173.68 -137.594)" fill="#263238"/>
        <path id="Path_147551" data-name="Path 147551" d="M343.7,210.444c-.505.531-3.587-1.731-7.945-1.718s-7.579,2.211-8.021,1.68c-.227-.24.278-1.187,1.667-2.211a11.217,11.217,0,0,1,6.379-2,10.825,10.825,0,0,1,6.316,2.021C343.486,209.257,343.94,210.2,343.7,210.444Z" transform="translate(-179.144 -140.107)" fill="#263238"/>
        <path id="Path_147552" data-name="Path 147552" d="M310.372,244.218c0-.24,2.69-.72,7.086-1.263,1.112-.114,2.16-.341,2.349-1.1a5.621,5.621,0,0,0-.758-3.3q-1.579-4.029-3.309-8.476c-4.6-12.05-7.92-21.966-7.44-22.143s4.61,9.436,9.208,21.473q1.667,4.446,3.171,8.514a6.467,6.467,0,0,1,.594,4.37,2.779,2.779,0,0,1-1.832,1.629,6.8,6.8,0,0,1-1.882.265C313.2,244.445,310.461,244.471,310.372,244.218Z" transform="translate(-132.263 -139.649)" fill="#263238"/>
        <path id="Path_147553" data-name="Path 147553" d="M314.48,265.79s10.282,21.739,41.886,18.669v-7.427A79.578,79.578,0,0,1,314.48,265.79Z" transform="translate(-175.074 -124.426)" fill="#eb996e"/>
        <path id="Path_147554" data-name="Path 147554" d="M348.688,197.755c-.429,1.187-4.775.632-9.89,1.263s-9.246,2.034-9.928.973c-.3-.518.417-1.629,2.084-2.779a16.421,16.421,0,0,1,7.352-2.526,16.712,16.712,0,0,1,7.743.884C347.93,196.265,348.877,197.187,348.688,197.755Z" transform="translate(-185.509 -143.169)" fill="#263238"/>
        <path id="Path_147555" data-name="Path 147555" d="M310.841,199.935c-.758,1-3.789,0-7.377-.063s-6.669.682-7.377-.354c-.3-.505.177-1.49,1.5-2.438a10.712,10.712,0,0,1,11.886.341C310.765,198.432,311.182,199.455,310.841,199.935Z" transform="translate(-106.319 -142.937)" fill="#263238"/>
        <path id="Path_147556" data-name="Path 147556" d="M397.625,181.84c-1.933-4.749-7.149-7.579-12.265-7.857s-10.105,1.68-14.577,4.244c-18.808,10.876-28.484,37.136-47.065,48.391-4.573,2.766-10.522.227-14.413,3.891s-6.4,9.524-4.257,14.413a44.31,44.31,0,0,1-6.455-10.9c-1.415-4-1.592-8.64.531-12.316,1.6-2.792,4.446-4.914,5.217-8.034.695-2.754-.392-5.621-.278-8.45a18.53,18.53,0,0,1,2.893-8.059c7.288-12.871,17.305-24.518,30.2-31.768a53.52,53.52,0,0,1,27.726-7.162A40.9,40.9,0,0,1,391.309,168.7c4.156,3.878,8.526,7.882,6.316,13.137" transform="translate(-195.516 -152.732)" fill="#263238"/>
        <path id="Path_147557" data-name="Path 147557" d="M384.589,218.9c-.328-.909-16.812-6.846-17.027,10.661-.215,17.015,16.951,13.667,16.989,13.175S384.589,218.9,384.589,218.9Z" transform="translate(-270.345 -137.211)" fill="#ffbe9d"/>
        <path id="Path_147558" data-name="Path 147558" d="M379.217,235.1c-.076,0-.291.2-.8.429a3.006,3.006,0,0,1-2.223,0c-1.781-.669-3.271-3.549-3.322-6.606a9.764,9.764,0,0,1,.859-4.244A3.449,3.449,0,0,1,376,222.427a1.49,1.49,0,0,1,1.731.821c.227.48.114.821.215.846s.366-.278.227-.985a1.9,1.9,0,0,0-.657-1.061,2.2,2.2,0,0,0-1.629-.455,4.143,4.143,0,0,0-3.12,2.615,9.9,9.9,0,0,0-1.074,4.724c.076,3.436,1.794,6.657,4.257,7.389a3.158,3.158,0,0,0,2.7-.417C379.192,235.513,379.28,235.134,379.217,235.1Z" transform="translate(-270.202 -136.06)" fill="#eb996e"/>
        <path id="Path_147559" data-name="Path 147559" d="M300.44,223.566a6.746,6.746,0,0,0,1.023-.568c.657-.417,1.667-.973,2.855-1.819a58.221,58.221,0,0,0,9.2-8.362,164.8,164.8,0,0,0,11.229-14.589,133.157,133.157,0,0,1,14.034-17.482,53.269,53.269,0,0,1,9.069-7.162,44.627,44.627,0,0,1,9.777-4.446,48.48,48.48,0,0,1,18.025-2.211,46.65,46.65,0,0,1,12.076,2.362c1.4.429,2.438.9,3.158,1.175a6.481,6.481,0,0,0,1.112.392,8.183,8.183,0,0,0-1.048-.531,27.344,27.344,0,0,0-3.12-1.263,43.528,43.528,0,0,0-12.139-2.627,48.239,48.239,0,0,0-18.278,2.021,44.564,44.564,0,0,0-9.966,4.472,54.318,54.318,0,0,0-9.208,7.263,130.356,130.356,0,0,0-14.071,17.684,175.9,175.9,0,0,1-11.065,14.64A63.539,63.539,0,0,1,304.141,221c-1.162.872-2.135,1.465-2.754,1.92a6.929,6.929,0,0,0-.947.644Z" transform="translate(-192.966 -150.613)" fill="#455a64"/>
        <path id="Path_147560" data-name="Path 147560" d="M375.015,234.672a3.347,3.347,0,1,0,.8.253" transform="translate(-267.932 -132.629)" fill="#fff"/>
        <path id="Path_147561" data-name="Path 147561" d="M376,234.944a4.611,4.611,0,0,1,1.528,2.286,2.88,2.88,0,0,1-.657,2.665,2.981,2.981,0,0,1-5.242-1.655,2.893,2.893,0,0,1,1.01-2.526,4.535,4.535,0,0,1,2.526-.985,1.533,1.533,0,0,0-.8-.189,3.473,3.473,0,0,0-2.122.745,3.411,3.411,0,0,0-1.364,3.069,3.651,3.651,0,0,0,6.48,2.059,3.411,3.411,0,0,0,.657-3.284,3.36,3.36,0,0,0-1.263-1.832C376.314,234.957,376.011,234.906,376,234.944Z" transform="translate(-268.12 -132.649)" fill="#263238"/>
        <path id="Path_147562" data-name="Path 147562" d="M352.143,220.474c-.265,4.648-.48,9.549,1.667,13.68s7.579,6.947,11.6,4.636c3.3-1.882,4.282-6.114,4.85-9.865,1.6-10.838,2.349-21.789,4.055-32.614Z" transform="translate(-240.387 -142.709)" fill="#263238"/>
        <path id="Path_147563" data-name="Path 147563" d="M387.189,170.686c0,.088-1.5-.291-4.219-.379a29.407,29.407,0,0,0-11.267,2.059A37.146,37.146,0,0,0,364.654,176a74.867,74.867,0,0,0-7.276,5.558,86.854,86.854,0,0,0-14.248,15.36c-2.16,3.032-4.08,6.152-6.151,9.044a44.1,44.1,0,0,1-6.821,7.667,76.279,76.279,0,0,1-14.375,9.613c-4.358,2.3-8,3.916-10.509,5.053l-2.905,1.263a5.138,5.138,0,0,1-1.048.379,4.875,4.875,0,0,1,.96-.543l2.842-1.4c2.526-1.263,6.05-2.931,10.333-5.293a78.673,78.673,0,0,0,14.122-9.726,43.088,43.088,0,0,0,6.644-7.579c2.034-2.855,3.941-5.975,6.126-9.044A85.475,85.475,0,0,1,356.8,180.88a74.645,74.645,0,0,1,7.427-5.558,37.07,37.07,0,0,1,7.238-3.6,28.257,28.257,0,0,1,11.52-1.794,19.544,19.544,0,0,1,3.145.442,4.043,4.043,0,0,1,1.061.316Z" transform="translate(-189.273 -149.662)" fill="#455a64"/>
        <path id="Path_147564" data-name="Path 147564" d="M388.754,211.67a7.717,7.717,0,0,1-1.5,1.01l-4.32,2.526-1.44.821a4.421,4.421,0,0,1-1.869.619,1.793,1.793,0,0,1-1.149-.265,1.491,1.491,0,0,1-.632-1.124,3.79,3.79,0,0,1,.8-2.147l5.053-8.008.682.619a17.835,17.835,0,0,1-11.558,3.448,4.9,4.9,0,0,1-1.554-.265A2.084,2.084,0,0,1,370,207.754a1.844,1.844,0,0,1,.291-1.718,6.655,6.655,0,0,1,.96-1.061,35.458,35.458,0,0,0,5.8-7.314,61.215,61.215,0,0,0,3.688-7.832,8.916,8.916,0,0,1-.543,2.286A30.882,30.882,0,0,1,377.664,198a33.752,33.752,0,0,1-5.76,7.579c-.632.606-1.263,1.263-1.023,1.832s1.175.808,2.072.808a17.117,17.117,0,0,0,5.76-.695A17.331,17.331,0,0,0,383.9,205l2.021-1.491-1.352,2.109-5.053,7.945a3.233,3.233,0,0,0-.72,1.667c0,.48.429.758.973.72a8.438,8.438,0,0,0,3.057-1.263l4.446-2.274A7.855,7.855,0,0,1,388.754,211.67Z" transform="translate(-277.465 -144.415)" fill="#455a64"/>
        <path id="Path_147565" data-name="Path 147565" d="M321.337,243.9a5.684,5.684,0,0,1,5.874-4.32,5.9,5.9,0,0,1,4.573,3.246,7.313,7.313,0,0,1,.265,5.7l-.1.4a6.48,6.48,0,0,1-7.288,1.554,6.051,6.051,0,0,1-3.322-6.581Z" transform="translate(-159.737 -131.325)" fill="#eb996e"/>
        <path id="Path_147566" data-name="Path 147566" d="M331.327,249.664c0-.657-4.408-.455-7.73-4.067s-3.057-8.337-3.676-8.337c-.278,0-.808,1.086-.758,3.082a10.964,10.964,0,0,0,2.817,6.96,9.587,9.587,0,0,0,6.467,3.133C330.266,250.51,331.365,249.967,331.327,249.664Z" transform="translate(-155.946 -131.934)" fill="#263238"/>
        <path id="Path_147567" data-name="Path 147567" d="M344.78,459a1.127,1.127,0,0,0,.291,0l.884.088,3.373.278c2.931.24,7.175.518,12.429.834,10.5.619,25.01,1.263,41.052,1.528s30.593.114,41.1-.164c5.255-.126,9.511-.278,12.442-.4l3.385-.177h-3.385L443.9,461.2c-10.509.152-25.036.227-41.078,0s-30.543-.834-41.04-1.339l-12.442-.619-3.385-.152h-.872Z" transform="translate(-317.895 -73.584)" fill="#fff"/>
        <g id="Group_131794" data-name="Group 131794" transform="translate(290.37 315.049)">
          <path id="Path_147136-2" data-name="Path 147136" d="M-287.57,970.011a9.221,9.221,0,0,0-6.829-1.353,9.03,9.03,0,0,0-5.681,3.855,8.986,8.986,0,0,0,2.559,12.448q.278.183.568.345l.008,0a8.943,8.943,0,0,0,6.52.874l.185-.048a.1.1,0,0,1,.125.1q-.158,2.905-3.511,6.207a.188.188,0,0,0,.167.32c.11-.023.22-.048.329-.075a12.747,12.747,0,0,0,8.11-6.441c2.23-3.861,3.029-9,.634-12.973A10.061,10.061,0,0,0-287.57,970.011Z" transform="translate(304.645 -968.481)" fill="#0079f2"/>
          <path id="Path_147201" data-name="Path 147201" d="M2.728,1.912l.417-.085a.184.184,0,0,0,0-.361l-.417-.085A1.044,1.044,0,0,1,1.912.565L1.827.148a.184.184,0,0,0-.361,0L1.381.565a1.044,1.044,0,0,1-.816.816l-.417.085a.184.184,0,0,0,0,.361l.417.085a1.044,1.044,0,0,1,.816.816l.085.417a.184.184,0,0,0,.361,0l.085-.417A1.044,1.044,0,0,1,2.728,1.912Z" transform="matrix(0.998, 0.07, -0.07, 0.998, 16.566, 10.126)" fill="#fff"/>
          <g id="Path_147136-3" data-name="Path 147136" transform="translate(0 0.124)">
            <path id="Path_147202" data-name="Path 147202" d="M-495.456,993.4c-.179,0-.364-.005-.552-.015a.3.3,0,0,1-.279-.231.306.306,0,0,1,.14-.337c2.7-1.615,4.37-3.35,4.954-5.158h-.021a9.133,9.133,0,0,1-6.307-2.349l-.017-.014c-.169-.152-.333-.311-.489-.474a9.149,9.149,0,0,1-2.558-6.568,9.15,9.15,0,0,1,2.835-6.454,9.266,9.266,0,0,1,6.554-2.559,9.4,9.4,0,0,1,6.513,2.9,10.307,10.307,0,0,1,2.433,3.973.224.224,0,0,1-.142.283.225.225,0,0,1-.283-.143,9.855,9.855,0,0,0-2.327-3.8,8.957,8.957,0,0,0-6.2-2.769,8.82,8.82,0,0,0-6.235,2.434,8.7,8.7,0,0,0-2.7,6.14,8.7,8.7,0,0,0,2.434,6.249c.145.151.3.3.455.442l.018.014a8.673,8.673,0,0,0,6.009,2.243l.121,0a.375.375,0,0,1,.308.145.37.37,0,0,1,.061.331c-.558,1.861-2.164,3.632-4.777,5.268h.206a12.587,12.587,0,0,0,9.178-4.407,15.879,15.879,0,0,0,2.047-2.753.224.224,0,0,1,.306-.08.224.224,0,0,1,.08.306,16.319,16.319,0,0,1-2.105,2.831,13.017,13.017,0,0,1-9.5,4.55Z" transform="translate(500.587 -969.242)" fill="#00cafd"/>
          </g>
        </g>
      </g>
    </g>
    <g id="Group_127217" data-name="Group 127217" transform="translate(0 0)">
      <g id="Group_127211" data-name="Group 127211" transform="translate(37.991 294.209)" opacity="0.4">
        <line id="Line_1" data-name="Line 1" x2="13.607" transform="translate(0 6.803)" fill="none" stroke="#fff" stroke-linecap="round" stroke-linejoin="round" stroke-width="2.475"/>
        <line id="Line_2" data-name="Line 2" y1="13.607" transform="translate(6.803)" fill="none" stroke="#fff" stroke-linecap="round" stroke-linejoin="round" stroke-width="2.475"/>
      </g>
      <g id="Group_127212" data-name="Group 127212" transform="translate(671.727 68.901)" opacity="0.3">
        <line id="Line_3" data-name="Line 3" x2="13.607" transform="translate(0 6.803)" fill="none" stroke="#fff" stroke-linecap="round" stroke-linejoin="round" stroke-width="2.475"/>
        <line id="Line_4" data-name="Line 4" y1="13.607" transform="translate(6.804)" fill="none" stroke="#fff" stroke-linecap="round" stroke-linejoin="round" stroke-width="2.475"/>
      </g>
      <g id="Group_127213" data-name="Group 127213" transform="translate(118.84 65.282)" opacity="0.4">
        <line id="Line_5" data-name="Line 5" x2="16.127" transform="translate(0 8.063)" fill="none" stroke="#fff" stroke-linecap="round" stroke-linejoin="round" stroke-width="1.714"/>
        <line id="Line_6" data-name="Line 6" y1="16.127" transform="translate(8.063)" fill="none" stroke="#fff" stroke-linecap="round" stroke-linejoin="round" stroke-width="1.714"/>
      </g>
      <g id="Group_127214" data-name="Group 127214" transform="translate(280.276 15.234)" opacity="0.3">
        <line id="Line_7" data-name="Line 7" x2="13.607" transform="translate(0 6.803)" fill="none" stroke="#fff" stroke-linecap="round" stroke-linejoin="round" stroke-width="2.475"/>
        <line id="Line_8" data-name="Line 8" y1="13.607" transform="translate(6.803)" fill="none" stroke="#fff" stroke-linecap="round" stroke-linejoin="round" stroke-width="2.475"/>
      </g>
      <g id="Group_127215" data-name="Group 127215" transform="translate(100.723 374.703)">
        <line id="Line_9" data-name="Line 9" x2="9.587" transform="translate(0 4.793)" fill="none" stroke="#fff" stroke-linecap="round" stroke-linejoin="round" stroke-width="1.743"/>
        <line id="Line_10" data-name="Line 10" y1="9.586" transform="translate(4.793)" fill="none" stroke="#fff" stroke-linecap="round" stroke-linejoin="round" stroke-width="1.743"/>
      </g>
      <g id="Group_127216" data-name="Group 127216" transform="translate(515.838 5.296)" opacity="0.3">
        <line id="Line_11" data-name="Line 11" x2="6.803" transform="translate(0 3.402)" fill="none" stroke="#fff" stroke-linecap="round" stroke-linejoin="round" stroke-width="1.237"/>
        <line id="Line_12" data-name="Line 12" y1="6.804" transform="translate(3.402)" fill="none" stroke="#fff" stroke-linecap="round" stroke-linejoin="round" stroke-width="1.237"/>
      </g>
      <path id="Path_147203" data-name="Path 147203" d="M427.976,67.856a7.89,7.89,0,1,1-7.891-7.889A7.89,7.89,0,0,1,427.976,67.856Z" transform="translate(-241.079 -59.967)" fill="none" stroke="#fff" stroke-linecap="round" stroke-linejoin="round" stroke-width="2.112" opacity="0.7"/>
      <path id="Path_147205" data-name="Path 147205" d="M562.64,88.863a7.89,7.89,0,1,1-7.891-7.891A7.89,7.89,0,0,1,562.64,88.863Z" transform="translate(-147.909 -45.434)" fill="none" stroke="#fff" stroke-linecap="round" stroke-linejoin="round" stroke-width="2.112" opacity="0.7"/>
      <path id="Path_147206" data-name="Path 147206" d="M670.325,132.478a8.607,8.607,0,1,1-8.607-8.6A8.607,8.607,0,0,1,670.325,132.478Z" transform="translate(-74.397 -15.752)" fill="none" stroke="#fff" stroke-linecap="round" stroke-linejoin="round" stroke-width="0.535"/>
      <path id="Path_147208" data-name="Path 147208" d="M323.527,144.87a6.236,6.236,0,1,1-6.236-6.236A6.237,6.237,0,0,1,323.527,144.87Z" transform="translate(-311.055 -5.54)" fill="none" stroke="#fff" stroke-linecap="round" stroke-linejoin="round" stroke-width="0.619"/>
    </g>
  </g>
</svg>
