<svg xmlns="http://www.w3.org/2000/svg" width="21" height="21" viewBox="0 0 21 21"><g transform="translate(-1129.037 -369.529)"><circle cx="10.5" cy="10.5" r="10.5" transform="translate(1129.037 369.529)" fill="#bac1cc"/><path d="M7.857,3.543H5.238a.154.154,0,0,1-.154-.154V.77a.77.77,0,0,0-1.541,0V3.389a.154.154,0,0,1-.154.154H.77a.77.77,0,0,0,0,1.541H3.389a.154.154,0,0,1,.154.154V7.857a.77.77,0,0,0,1.541,0V5.238a.154.154,0,0,1,.154-.154H7.857a.77.77,0,0,0,0-1.541Zm0,0" transform="translate(1135.224 375.716)" fill="#fff"/></g></svg>