<svg id="Group_132172" data-name="Group 132172" xmlns="http://www.w3.org/2000/svg" width="30" height="30" viewBox="0 0 30 30">
  <rect id="Rectangle_110317" data-name="Rectangle 110317" width="30" height="30" fill="#171e48" opacity="0"/>
  <g id="Group_132183" data-name="Group 132183" transform="translate(4 3)">
    <g id="Group" transform="translate(5.667 9.928)">
      <g id="Group-2" data-name="Group">
        <path id="Vector" d="M1.627,3.779H4.495A1.445,1.445,0,0,0,6.088,2.06L5.622,0H.5L.033,2.06A1.5,1.5,0,0,0,1.627,3.779Z" transform="translate(2.358 9.626)" fill="none" stroke="#fff" stroke-linecap="round" stroke-linejoin="round" stroke-width="1.5"/>
        <path id="Vector-2" data-name="Vector" d="M7.979,9.615,9.948,7.862c1.1-.979,1.15-1.662.273-2.766L6.75.691A1.617,1.617,0,0,0,4.1.691L.627,5.1C-.25,6.2-.25,6.917.9,7.862L2.869,9.615" transform="translate(0)" fill="none" stroke="#fff" stroke-linecap="round" stroke-linejoin="round" stroke-width="1.5"/>
        <path id="Vector-3" data-name="Vector" d="M0,0V2.88" transform="translate(5.418 0.452)" fill="none" stroke="#fff" stroke-linecap="round" stroke-linejoin="round" stroke-width="1.5"/>
      </g>
    </g>
    <g id="Group-3" data-name="Group">
      <path id="Vector-4" data-name="Vector" d="M2.276,3.415H1.138A1.142,1.142,0,0,1,0,2.276V1.138A1.142,1.142,0,0,1,1.138,0H2.276A1.142,1.142,0,0,1,3.415,1.138V2.276A1.142,1.142,0,0,1,2.276,3.415Z" transform="translate(9.39)" fill="none" stroke="#fff" stroke-linecap="round" stroke-linejoin="round" stroke-width="1.5"/>
      <path id="Vector-5" data-name="Vector" d="M1.138,3.415H2.276A1.142,1.142,0,0,0,3.415,2.276V1.138A1.142,1.142,0,0,0,2.276,0H1.138A1.142,1.142,0,0,0,0,1.138V2.276A1.142,1.142,0,0,0,1.138,3.415Z" transform="translate(0 10.437)" fill="none" stroke="#fff" stroke-linecap="round" stroke-linejoin="round" stroke-width="1.5"/>
      <path id="Vector-6" data-name="Vector" d="M2.276,3.415H1.138A1.142,1.142,0,0,1,0,2.276V1.138A1.142,1.142,0,0,1,1.138,0H2.276A1.142,1.142,0,0,1,3.415,1.138V2.276A1.142,1.142,0,0,1,2.276,3.415Z" transform="translate(18.735 10.437)" fill="none" stroke="#fff" stroke-linecap="round" stroke-linejoin="round" stroke-width="1.5"/>
      <path id="Vector-7" data-name="Vector" d="M7.706,0A8.73,8.73,0,0,0,0,8.662" transform="translate(1.685 1.776)" fill="none" stroke="#fff" stroke-linecap="round" stroke-linejoin="round" stroke-width="1.5"/>
      <path id="Vector-8" data-name="Vector" d="M7.66,8.662A8.734,8.734,0,0,0,0,0" transform="translate(12.805 1.776)" fill="none" stroke="#fff" stroke-linecap="round" stroke-linejoin="round" stroke-width="1.5"/>
    </g>
  </g>
</svg>
