<svg xmlns="http://www.w3.org/2000/svg" xmlns:xlink="http://www.w3.org/1999/xlink" width="28" height="28" viewBox="0 0 28 28">
  <defs>
    <clipPath id="clip-path">
      <rect id="Rectangle_110820" data-name="Rectangle 110820" width="28" height="28" rx="8" transform="translate(14 0.359)" fill="#f5f5f5"/>
    </clipPath>
  </defs>
  <g id="Mask_Group_165" data-name="Mask Group 165" transform="translate(-14 -0.359)" clip-path="url(#clip-path)">
    <g id="Group_134596" data-name="Group 134596" transform="translate(6.574 -0.523)">
      <g id="Group_134595" data-name="Group 134595" transform="translate(0 0)">
        <rect id="Rectangle_110819" data-name="Rectangle 110819" width="42" height="30" transform="translate(0.426 -0.118)" fill="#006634"/>
        <g id="Group_134594" data-name="Group 134594" transform="translate(11.772 8.711)">
          <path id="Path_150866" data-name="Path 150866" d="M1977.878,2430.675c.147-.113.135.2.013.549a1.248,1.248,0,0,0,.208-.6c-.037-.275-.2-.225-.319-.063C1977.682,2430.675,1977.756,2430.774,1977.878,2430.675Z" transform="translate(-1977.278 -2430.376)" fill="#fff"/>
          <path id="Path_150867" data-name="Path 150867" d="M1974.649,2433.541a8.978,8.978,0,0,0,.281-1.137c.1-.312.135-.074.1.113-.085.5-.061,1.311.637,1.3.037.45.159,1.287.159,1.573s.049.212.123.051a1.22,1.22,0,0,0,.049-.575c-.024-.25-.038-.662-.085-1.223a.886.886,0,0,0,.221-.275c.1-.187.121-.175.159-.024.073.3.367.5.759.211.368-.262.208-.811.049-1.41.135.024.184-.088.1-.237a1.025,1.025,0,0,0-.171-.237c-.062-.075-.122-.137-.183-.062s-.111.137-.147.187-.037.1.013.224a3.967,3.967,0,0,1,.269.937c.037.2-.037.25-.171.25a.372.372,0,0,1-.392-.337,1.971,1.971,0,0,1-.1-.637.709.709,0,0,0-.1-.535c-.147-.2-.159-.163-.2-.063a.931.931,0,0,0-.024.462c.061.274.1.512.135.674a.625.625,0,0,1-.246.475c-.037-.375-.1-.875-.122-1.274.208-.075.1-.362-.074-.674-.122-.237-.172-.137-.257.012s-.024.212.037.337c-.049.1.037.25.073.524.012.175.049.676.086,1.111a.354.354,0,0,1-.331-.262,1.108,1.108,0,0,1-.037-.787c.061-.187.123-.474.012-.549s-.232.013-.318.149a1.81,1.81,0,0,0-.293.887,1.562,1.562,0,0,1-.111.5c-.049.1-.135.112-.22-.037a2.708,2.708,0,0,1-.184-1.149c0-.15-.037-.175-.086,0a2.414,2.414,0,0,0,.16,1.523C1974.355,2433.828,1974.527,2433.765,1974.649,2433.541Z" transform="translate(-1974 -2431.007)" fill="#fff"/>
          <path id="Path_150868" data-name="Path 150868" d="M1992.081,2431.25c.061-.075.061-.087.123.013.036.075.159.051.2-.025a.248.248,0,0,0,.025-.212c-.037-.088-.037-.063-.062.038-.023.162-.171.125-.184-.075s-.036-.087-.085.038c-.085.187-.208.149-.208-.013,0-.137-.037-.25-.1-.087a.322.322,0,0,0,.049.3A.161.161,0,0,0,1992.081,2431.25Z" transform="translate(-1989.595 -2430.739)" fill="#fff"/>
          <path id="Path_150869" data-name="Path 150869" d="M1976.255,2455.337c.123-.037.135-.05.123-.187s-.074-.088-.221-.038a2.374,2.374,0,0,0-1.04.737c-.147.175-.025.087.074.011A4.5,4.5,0,0,1,1976.255,2455.337Z" transform="translate(-1974.921 -2451.904)" fill="#fff"/>
          <path id="Path_150870" data-name="Path 150870" d="M1975.9,2468.561c-.122.2-.343-.062-.2-.6a1.625,1.625,0,0,0,.074-.288,2.411,2.411,0,0,0-.013-.262c-.024-.087-.073.037-.11.2a2.014,2.014,0,0,0-.147,1.061c.037.45.539.412.551-.125C1976.071,2468.386,1976.01,2468.361,1975.9,2468.561Z" transform="translate(-1975.311 -2462.681)" fill="#fff"/>
          <path id="Path_150871" data-name="Path 150871" d="M1984.477,2435.664c0-.187-.012-.387-.024-.6.024-.012.037-.037.049-.05.11.363.625.262.783.05.086-.1.086-.112.159,0,.11.162.49.212.588-.012a1.305,1.305,0,0,0,.048-.637c-.024-.175-.061-.162-.171-.075s-.025.112-.013.237c.049.475-.355.437-.4-.05-.025-.3-.074-.187-.111-.049-.172.586-.673.7-.624.025.012-.2-.111-.138-.172-.062a1.831,1.831,0,0,1-.172.15c-.037-.549-.073-1.173-.135-1.922.147.187.281-.026.184-.238-.073-.162-.184-.524-.257-.724s-.1-.138-.258.025-.122.212-.049.387a4.19,4.19,0,0,0,.061.861c.036.312.135.962.184,1.786-.074.037-.184.113-.257.15a1.306,1.306,0,0,0-.281-.388c-.22-.224-.4-.237-.588.038a.685.685,0,0,0-.147.562c.012.238-.037.324.147.386a.426.426,0,0,0,.355,0,3.27,3.27,0,0,0,.331-.112.463.463,0,0,1-.061.362c-.453.55-1.151.95-1.457.587a1.121,1.121,0,0,1-.2-.886c.049-.312-.049-.174-.085-.063a1.75,1.75,0,0,0,0,1.149.733.733,0,0,0,1.065.288,1.456,1.456,0,0,0,1.016-1.249c0-.112-.013-.211-.013-.287.049-.025.135-.088.2-.114.012.2-.012.45,0,.65a1.007,1.007,0,0,1-.441,1,2.463,2.463,0,0,1-1.077.474c-.845.125-1.041-.425-1.028-1.161,0-.113.048-.188.048-.35-.012-.312-.048-.263-.146.05a2.377,2.377,0,0,0,.085,1.573c.295.574,1.286.412,2.057.037A1.66,1.66,0,0,0,1984.477,2435.664Zm-1.052-.574c-.221.062-.257-.025-.245-.163s.024-.175.171-.112a.6.6,0,0,1,.208.224C1983.51,2435.052,1983.461,2435.076,1983.425,2435.089Z" transform="translate(-1980.522 -2431.382)" fill="#fff"/>
          <path id="Path_150872" data-name="Path 150872" d="M2011.733,2464.144a.778.778,0,0,0,.085-.5c-.012-.126-.012-.164-.122-.213s-.16.025-.2.124c-.05.126.012.263.184.189a.785.785,0,0,1-.025.374C2011.611,2464.231,2011.66,2464.282,2011.733,2464.144Z" transform="translate(-2006.897 -2459.213)" fill="#fff"/>
          <path id="Path_150873" data-name="Path 150873" d="M2014.643,2443.247c-.146.188-.257.462-.049.625.11.1.343-.013.428-.2s.05-.225-.1-.063c-.209.237-.416.025-.2-.3C2014.876,2443.084,2014.79,2443.034,2014.643,2443.247Z" transform="translate(-2009.525 -2441.462)" fill="#fff"/>
          <path id="Path_150874" data-name="Path 150874" d="M2009.283,2432.817a2.151,2.151,0,0,0,.991-.787c.147.025.184-.1.11-.2a1.075,1.075,0,0,0,.1-.275c.135-.5-.354-.549-.5-.162a.445.445,0,0,0,.1.511,3.414,3.414,0,0,1-.894.824C2009,2432.842,2009.037,2432.929,2009.283,2432.817Zm.906-1.349c.049-.112.11-.037.086.038a.918.918,0,0,1-.061.163C2010.14,2431.619,2010.151,2431.556,2010.188,2431.468Z" transform="translate(-2004.777 -2430.995)" fill="#fff"/>
          <path id="Path_150875" data-name="Path 150875" d="M2022.859,2432.135c.11-.275.184-.55.257-.738s.135-.149.123.026c-.036.349-.061.911.281,1.123s.869-.15,1.053-.524c.551.749,1.042.4,1.1-.325a2.826,2.826,0,0,0-.148-.849c-.061-.149-.024-.149.062-.075s.233.137.159-.112a1.046,1.046,0,0,0-.318-.487c-.122-.112-.147-.05-.2.037s-.038.114-.11.176-.061.112,0,.249c.208.549.4,1.348.073,1.423-.305.062-.5-.612-.513-.912a3.475,3.475,0,0,0-.135-.948c-.085-.212-.11-.25-.171-.137-.049.086-.062.149-.111.237s0,.113.037.287c.183.874.159,1.274-.232,1.5s-.6.013-.6-.261a4.991,4.991,0,0,1,.025-.862c.024-.25.085-.287,0-.412s-.16-.087-.27.075a5.363,5.363,0,0,0-.575,1.212c-.086.286-.257.187-.38-.051a1.919,1.919,0,0,1-.073-1c.049-.2.024-.287-.061-.062a1.475,1.475,0,0,0,.22,1.56C2022.59,2432.546,2022.761,2432.422,2022.859,2432.135Z" transform="translate(-2016.137 -2430)" fill="#fff"/>
          <path id="Path_150876" data-name="Path 150876" d="M2036.287,2432.51c-.012.125.012.25.073.025a1.583,1.583,0,0,0-.025-.724c-.061-.188-.135-.238-.184-.163-.085.089-.085.1-.012.213A.969.969,0,0,1,2036.287,2432.51Z" transform="translate(-2028.488 -2431.411)" fill="#fff"/>
          <path id="Path_150877" data-name="Path 150877" d="M2005.348,2452.485c-.061.063-.183.137-.27.212-.012-.162.013-.386.013-.475,0-.112-.037-.161-.1-.025a3.751,3.751,0,0,0-.269.763,12.4,12.4,0,0,1-1.506.9c-.184.087-.073.15.061.1a9.816,9.816,0,0,0,1.432-.524c.024.324.16.586.441.649.563.15,1.163-.337,1.776-1.223a1.743,1.743,0,0,0,1.505,1.161c.4.063.4.013.453-.175s.1-.237-.233-.325c-.428-.162-.575-.474-.159-.648a7.908,7.908,0,0,1,1.383-.426c.246-.038.344-.012.43-.261s.134-.313-.16-.288-1.763.063-2.118.038a7.531,7.531,0,0,1,1.029-.437c.11.075.159.05.122-.038a2.156,2.156,0,0,0,.331-.149c.355-.212.5-.624.134-.887s-.686-.349-.882-.062c-.159.237-.294.461-.085.773-.331.1-.649.225-.967.35-.233.1-.33.137-.416.424s-.122.325.2.338c.428.024.808-.013,1.052.224-.4.149-.71.474-.563.9a1.2,1.2,0,0,1-.526-.275c-.318-.3-.294-.849-.428-1.486a6.613,6.613,0,0,0-.478-1.386c-.086-.224-.122-.125-.2.037s-.135.25-.061.451c.147.4.392,1.185.5,1.623-.245.524-.82,1.211-1.335,1.285-.391.063-.477-.15-.452-.362a2.9,2.9,0,0,0,.722-.573c.477-.475.55-.887.245-1.686.2.024.16-.125-.123-.462-.2-.237-.232-.187-.331.025s-.158.337.062.424c.037.1.122.263.232.488C2006.071,2451.974,2005.691,2452.174,2005.348,2452.485Zm3.857-1.71c.171.112.318.137.061.2-.1.025-.184.037-.269.062-.025-.1-.025-.175-.037-.25C2008.947,2450.663,2009.021,2450.663,2009.2,2450.775Z" transform="translate(-1999.557 -2447.567)" fill="#fff"/>
          <path id="Path_150878" data-name="Path 150878" d="M2040.045,2451.909c0,.312-.1.312-.208.014-.037-.113-.086-.113-.1.037,0,.287-.122.324-.2.038-.024-.126-.049-.225-.073-.038a.487.487,0,0,0,.073.374.122.122,0,0,0,.22-.025c.037-.112.062-.125.135-.037s.368.012.233-.424C2040.07,2451.672,2040.045,2451.71,2040.045,2451.909Z" transform="translate(-2031.451 -2449.001)" fill="#fff"/>
          <path id="Path_150879" data-name="Path 150879" d="M2068.8,2431.544a.5.5,0,0,1,.184.5c-.037.175,0,.311.109.062a.936.936,0,0,0-.086-.774c-.1-.175-.159-.137-.22-.038S2068.7,2431.47,2068.8,2431.544Z" transform="translate(-2057.14 -2431.058)" fill="#fff"/>
          <path id="Path_150880" data-name="Path 150880" d="M2053.511,2431.1c-.012.113.024.188.183.25.319.424.637.861.931,1.311.036.374.11.787.147,1.124a8.6,8.6,0,0,1,.123,2.285c-.1.338,0,.487.159-.024a4.145,4.145,0,0,0,.037-1.761c-.037-.3-.049-.673-.086-1.023a14.609,14.609,0,0,1,1.188,2.123c.111.287.208.349.135-.075a9.854,9.854,0,0,0-1.358-2.635q-.037-.468-.037-.862c.11.125.184.051.147-.112a6.235,6.235,0,0,0-.318-.849c-.05-.138-.184-.174-.245.025-.086.237-.1.287.012.449a7.309,7.309,0,0,0,.073.749c-.134-.2-.306-.449-.44-.661.208.087.33.024.147-.175a8.284,8.284,0,0,0-.6-.575c-.159-.15-.232-.049-.208.087A1.735,1.735,0,0,1,2053.511,2431.1Z" transform="translate(-2043.766 -2430.516)" fill="#fff"/>
          <path id="Path_150881" data-name="Path 150881" d="M2069.633,2441.859c-.037.187-.1.112-.147-.038-.024-.1-.074-.037-.061.113.024.175.073.262.208.137.061-.062.085-.062.171.013a.112.112,0,0,0,.183-.038.562.562,0,0,0,.012-.312c-.025-.175-.073-.087-.109.075s-.123.187-.16.012S2069.658,2441.7,2069.633,2441.859Z" transform="translate(-2057.745 -2440.174)" fill="#fff"/>
          <path id="Path_150882" data-name="Path 150882" d="M2054.013,2475.932a1.545,1.545,0,0,0,.44-.288c.172-.137.049-.137-.06-.086s-.209.112-.355.162-.2-.012-.123-.261c.073-.213,0-.226-.1-.176a1.863,1.863,0,0,0-.282.176c-.061.037-.074.112.1.037.147-.062.111.012.061.2S2053.768,2475.994,2054.013,2475.932Z" transform="translate(-2043.765 -2469.566)" fill="#fff"/>
          <path id="Path_150883" data-name="Path 150883" d="M2067.668,2435.505c.036.7.134,1.023-.294,1.5a1.906,1.906,0,0,1-.955.687c-.258.075-.355.188.037.162.575-.037.661-.049,1.126-.611a2.126,2.126,0,0,0,.38-1.623c-.025-1.624-.245-2.322-.208-3.2.1.088.208.088.147-.1s-.111-.412-.172-.624-.1-.263-.171-.163-.147.151-.208.225a.279.279,0,0,0,0,.324A30.259,30.259,0,0,1,2067.668,2435.505Z" transform="translate(-2054.91 -2431.298)" fill="#fff"/>
          <path id="Path_150884" data-name="Path 150884" d="M2082.761,2435.331a2.774,2.774,0,0,1,.013,1.1c-.037.137.012.176.1.012a2.392,2.392,0,0,0,.074-1.61c-.062-.575-.258-2.1-.294-2.71l.037.025c.172.089.355.138.22-.074a3.226,3.226,0,0,1-.318-.786c-.087-.25-.11-.238-.246-.025-.208.324-.023.636.025,1.011C2082.541,2433.608,2082.712,2434.969,2082.761,2435.331Z" transform="translate(-2069 -2430.961)" fill="#fff"/>
          <path id="Path_150885" data-name="Path 150885" d="M2091.6,2443.578a1.813,1.813,0,0,1,.27.461c.086.188.135.026.135-.086a4.969,4.969,0,0,1,.012-.6c.073-.175.184.074.233-.05.036-.087-.037-.1-.062-.2s-.085-.1-.171-.038a.356.356,0,0,0-.122.2,2.781,2.781,0,0,0,.025.426c0,.136-.025.162-.074.062a2.32,2.32,0,0,0-.232-.462.1.1,0,0,0-.171.075,1.061,1.061,0,0,1,0,.2C2091.425,2443.691,2091.572,2443.691,2091.6,2443.578Z" transform="translate(-2077.064 -2441.381)" fill="#fff"/>
          <path id="Path_150886" data-name="Path 150886" d="M2093.2,2453.131c-.11.112-.454.362-.575.462-.148.125-.184.15-.184.237s.158-.037.281-.137a4.973,4.973,0,0,1,.6-.374c.135-.075.11-.124.1-.262S2093.314,2453.019,2093.2,2453.131Z" transform="translate(-2077.949 -2450.097)" fill="#fff"/>
          <path id="Path_150887" data-name="Path 150887" d="M2085.451,2433.157c.244.349.465.661.636.911a5.847,5.847,0,0,1,.111,1.311c-.025.411.061.411.147-.013a5.209,5.209,0,0,0-.013-.973c.331.449.527.749.662.961.147.262.233.487.2-.05a1.55,1.55,0,0,0-.294-.687c-.221-.324-.416-.624-.612-.911-.061-.75-.147-1.549-.147-1.973.1.1.171,0,.123-.162s-.147-.6-.22-.787-.135-.137-.233.025-.147.237-.086.362a15.089,15.089,0,0,0,.233,2.061c-.2-.275-.38-.537-.551-.774-.012-.275-.037-.55-.049-.825.11.088.159.063.1-.1s-.184-.537-.246-.7-.1-.162-.183-.037a.483.483,0,0,0-.061.562c.012.175.037.362.049.524-.11-.15-.208-.3-.294-.437.11.063.2-.038.074-.15a4.863,4.863,0,0,1-.441-.437c-.111-.137-.208-.137-.208-.012a3.338,3.338,0,0,1,0,.35c-.025.1-.025.2.122.374.282.349.551.712.808,1.049a24.991,24.991,0,0,1,.135,2.547c-.012.3-.11.474-.269.524s-.319-.05-.466-.274c-.27-.4-.367-.325-.575.024a8.482,8.482,0,0,0-.44.837c-.1.225-.27.425-.429.125a1.84,1.84,0,0,1-.159-.874c0-.237-.036-.425-.122-.05-.221.924-.086,1.124.158,1.324.306.274.4.3.563.062.318-.449.4-.848.588-1.074.146-.175.146-.037.22.051a.821.821,0,0,0,.6.362c.257.05.722-.175.686-1.049C2085.536,2434.63,2085.5,2433.918,2085.451,2433.157Z" transform="translate(-2069.338 -2430.586)" fill="#fff"/>
          <path id="Path_150888" data-name="Path 150888" d="M2113.89,2434.944c0,.212.073.186.109-.013a1.668,1.668,0,0,0-.085-.824c-.111-.275-.147-.175-.208-.088-.073.125-.061.15.024.287A1.469,1.469,0,0,1,2113.89,2434.944Z" transform="translate(-2096.566 -2433.433)" fill="#fff"/>
          <path id="Path_150889" data-name="Path 150889" d="M2112.229,2434.5c-.062-1.623-.27-2.335-.221-2.947.135.125.209.088.122-.125s-.2-.437-.281-.637-.123-.162-.232-.013-.135.262-.086.35c.232,1.985.343,3.021.367,3.621a1.856,1.856,0,0,1-.992,1.922c-.268.187-.575.4.073.238S2112.3,2436.311,2112.229,2434.5Z" transform="translate(-2093.877 -2430.569)" fill="#fff"/>
          <path id="Path_150890" data-name="Path 150890" d="M2097.735,2459.057a.544.544,0,0,0-.085-.575c-.1-.13-.16-.1-.22-.028s-.086.13.012.187.245.2.184.37C2097.587,2459.14,2097.625,2459.242,2097.735,2459.057Z" transform="translate(-2082.279 -2454.82)" fill="#fff"/>
          <path id="Path_150891" data-name="Path 150891" d="M2102.182,2475.991c-.025,0-.039-.052,0-.123a.515.515,0,0,0,.064-.127c.024-.054,0-.089-.083-.118a.664.664,0,0,0-.221,0c-.052.011-.071.035-.08.1,0,.1.063.093.123.133a.108.108,0,0,1,0,.162c-.058.054-.1.083-.156.137-.027.047-.045.119.038.142.154.043.443-.151.443-.156a.116.116,0,0,0,.034-.127C2102.308,2475.973,2102.232,2476,2102.182,2475.991Z" transform="translate(-2086.162 -2469.875)" fill="#fff"/>
          <path id="Path_150892" data-name="Path 150892" d="M2006.073,2516.67c-.476.008-.962.016-1.454.021l0-.162c.132-.152.135-.213.026-.375-.054-.072-.073-.089-.1-.089s-.067.03-.113.1c-.093.134-.116.188.042.377l0,.154c-3.745.035-7.9-.022-11.451-.078.389.663,1.723.67,4.458.679,1.118,0,3.4-.039,7.007-.116l0,.177c-.16.187-.12.244-.05.349.049.07.086.115.133.115s.078-.056.1-.09a.374.374,0,0,0,.046-.088l.575-.01c0,.061.093.113.142.113a.137.137,0,0,0,.129-.125l.63-.007a.283.283,0,0,0,.25.147c.233-.011.332-.286.308-.623C2006.72,2516.736,2006.525,2516.659,2006.073,2516.67Zm.07.792-.575.006a.148.148,0,0,0-.135-.111.144.144,0,0,0-.135.123l-.57.01a.323.323,0,0,0-.1-.148l0-.167,1.546-.04A.674.674,0,0,0,2006.143,2517.461Z" transform="translate(-1990.693 -2505.238)" fill="#fff"/>
        </g>
      </g>
    </g>
  </g>
</svg>
