
<svg id="Group_133057" data-name="Group 133057" xmlns="http://www.w3.org/2000/svg" width="31" height="31" viewBox="0 0 31 31">
  <g id="_chevron_right" data-name=" chevron_right" transform="translate(31.396 0) rotate(90)">
    <rect id="Path" width="31" height="31" rx="4" transform="translate(0 0.396)" fill="#717b8c" opacity="0"/>
    <path id="Union_1" data-name="Union 1" d="M9937.492-22114.959l-6.757-6.475a1.363,1.363,0,0,1-.395-.955,1.321,1.321,0,0,1,.395-.943,1.369,1.369,0,0,1,1.888-.018l.011.006,5.8,5.574,5.818-5.58a1.362,1.362,0,0,1,1.882.018l.022.016a1.423,1.423,0,0,1,.361.945,1.3,1.3,0,0,1-.384.938l0,.012-6.746,6.463a1.311,1.311,0,0,1-.949.389A1.306,1.306,0,0,1,9937.492-22114.959Z" transform="translate(-9923.188 22136.152)" fill="#717b8c"/>
  </g>
</svg>
