<svg id="Group_133057" data-name="Group 133057" xmlns="http://www.w3.org/2000/svg" width="31" height="31" viewBox="0 0 31 31">
  <g id="_chevron_right" data-name=" chevron_right" transform="translate(31.396 0) rotate(90)">
    <rect id="Path" width="31" height="31" rx="4" transform="translate(0 0.396)" fill="#717b8c" opacity="0"/>
    <path id="Union_1" data-name="Union 1" d="M9.028,8.76l6.757-6.475a1.363,1.363,0,0,0,.395-.955,1.321,1.321,0,0,0-.395-.943A1.369,1.369,0,0,0,13.9.369l-.011.006-5.8,5.574L2.266.369A1.362,1.362,0,0,0,.384.387L.361.4A1.423,1.423,0,0,0,0,1.348a1.3,1.3,0,0,0,.384.938l0,.012L7.135,8.76a1.347,1.347,0,0,0,1.894,0Z" transform="translate(23.333 21.584) rotate(180)" fill="#717b8c"/>
  </g>
</svg>