<svg xmlns="http://www.w3.org/2000/svg" width="24" height="24" viewBox="0 0 24 24">
  <g id="vuesax_linear_briefcase" data-name="vuesax/linear/briefcase" transform="translate(0 0)">
    <g id="briefcase" transform="translate(0 0)">
      <path id="Vector" d="M13.361,16.818H5.39c-2.087,0-3.562-.429-4.509-1.31a4.762,4.762,0,0,1-1.327-3.13v-.012l-.747-8.118A4.868,4.868,0,0,1-.249.289C.68-.747,2.2-1.25,4.393-1.25h9.964c2.195,0,3.714.5,4.643,1.539a4.868,4.868,0,0,1,.945,3.96L19.2,12.367v.012a4.762,4.762,0,0,1-1.327,3.13C16.923,16.39,15.448,16.818,13.361,16.818Zm-12-4.624a2.922,2.922,0,0,0,.757,1.983A4.891,4.891,0,0,0,5.39,15h7.971a4.891,4.891,0,0,0,3.27-.823,2.922,2.922,0,0,0,.757-1.983l.747-8.119V4.06a3.187,3.187,0,0,0-.49-2.557C17.09.883,15.983.568,14.357.568H4.393C2.767.568,1.661.883,1.1,1.5A3.187,3.187,0,0,0,.614,4.06v.015Z" transform="translate(2.625 6.06)" fill="#0079f2"/>
      <path id="Vector-2" data-name="Vector" d="M7.784,4.631a.909.909,0,0,1-.909-.909V2.909A3.646,3.646,0,0,0,6.63,1.127C6.374.756,5.669.568,4.534.568H2.909c-1.135,0-1.84.188-2.1.559A3.646,3.646,0,0,0,.568,2.909v.813a.909.909,0,0,1-.909.909.909.909,0,0,1-.909-.909V2.909A4.789,4.789,0,0,1-.683.093C-.049-.823,1.092-1.25,2.909-1.25H4.534c1.817,0,2.958.427,3.592,1.343a4.789,4.789,0,0,1,.567,2.816v.813A.909.909,0,0,1,7.784,4.631Z" transform="translate(8.278 2.372)" fill="#0079f2"/>
      <path id="Vector-3" data-name="Vector" d="M.675-1.25H2.706a1.937,1.937,0,0,1,1.531.393A1.937,1.937,0,0,1,4.631.675V1.721A3.189,3.189,0,0,1,4.2,3.662a2.933,2.933,0,0,1-2.511.969A2.925,2.925,0,0,1-.828,3.653,3.228,3.228,0,0,1-1.25,1.711V.675A1.937,1.937,0,0,1-.857-.857,1.937,1.937,0,0,1,.675-1.25ZM2.812.568H.568c0,.036,0,.071,0,.106V1.711a2.343,2.343,0,0,0,.093.9c.053.075.329.2,1.029.2s.975-.127,1.028-.2a2.328,2.328,0,0,0,.094-.89V.675C2.813.64,2.813.6,2.812.568Z" transform="translate(10.31 12.303)" fill="#0079f2"/>
      <path id="Vector-4" data-name="Vector" d="M7.43,3.635a.917.917,0,0,1-.115-.007A17.722,17.722,0,0,1-.876.394a.909.909,0,0,1-.2-1.27.909.909,0,0,1,1.27-.2,15.9,15.9,0,0,0,7.348,2.9A.909.909,0,0,1,7.43,3.635Z" transform="translate(2.728 11.316)" fill="#0079f2"/>
      <path id="Vector-5" data-name="Vector" d="M-.342,3.371a.909.909,0,0,1-.9-.808.909.909,0,0,1,.8-1,15.686,15.686,0,0,0,7.083-2.65A.909.909,0,0,1,7.9-.854.909.909,0,0,1,7.668.409,17.511,17.511,0,0,1-.24,3.366.919.919,0,0,1-.342,3.371Z" transform="translate(14.185 11.588)" fill="#0079f2"/>
      <path id="Vector-6" data-name="Vector" d="M0,24H24V0H0Z" fill="none" opacity="0"/>
    </g>
  </g>
</svg>
