<svg id="vuesax_linear_notification" data-name="vuesax/linear/notification" xmlns="http://www.w3.org/2000/svg" width="34" height="34" viewBox="0 0 34 34">
  <g id="notification">
    <g id="Group_133124" data-name="Group 133124" transform="translate(0 -1.813)">
      <path id="Vector" d="M11.3-.75a9.325,9.325,0,0,1,6.467,2.564A8.526,8.526,0,0,1,20.47,8.025v3.866a5.6,5.6,0,0,0,.674,2.361L22.755,16.8a3.311,3.311,0,0,1,.313,2.926,3.462,3.462,0,0,1-2.238,2.109,31.418,31.418,0,0,1-9.541,1.479,31.422,31.422,0,0,1-9.543-1.48,3.535,3.535,0,0,1-2.313-2.1A3.308,3.308,0,0,1-.176,16.8l1.615-2.555a5.422,5.422,0,0,0,.684-2.355V8.025A8.991,8.991,0,0,1,11.3-.75Zm-.007,22.564a29.924,29.924,0,0,0,9.088-1.409,1.974,1.974,0,0,0,1.283-1.2,1.821,1.821,0,0,0-.174-1.608l-1.621-2.566a7.057,7.057,0,0,1-.895-3.144V8.025A7.491,7.491,0,0,0,11.3.75,7.491,7.491,0,0,0,3.623,8.025v3.866a6.9,6.9,0,0,1-.914,3.153L1.092,17.6a1.843,1.843,0,0,0-.248,1.625,2.026,2.026,0,0,0,1.36,1.18A29.92,29.92,0,0,0,11.289,21.814Z" transform="translate(5.731 5.963)" fill="#4c535f"/>
      <path id="Vector-2" data-name="Vector" d="M5.336,2.567a.749.749,0,0,1-.209-.03,7.922,7.922,0,0,0-1.266-.264A9.817,9.817,0,0,0,2.647,2.2a8.73,8.73,0,0,0-2.438.341.75.75,0,0,1-.763-.214A.75.75,0,0,1-.7,1.544,3.593,3.593,0,0,1,2.668-.75,3.593,3.593,0,0,1,6.034,1.544a.75.75,0,0,1-.7,1.024Z" transform="translate(14.36 4.563)" fill="#4c535f"/>
      <path id="Vector-3" data-name="Vector" d="M4.327,5.077A5.111,5.111,0,0,1,.739,3.588,5.111,5.111,0,0,1-.75,0H.75A3.6,3.6,0,0,0,1.8,2.527,3.6,3.6,0,0,0,4.327,3.577,3.581,3.581,0,0,0,7.9,0H9.4A5.082,5.082,0,0,1,4.327,5.077Z" transform="translate(12.701 27.901)" fill="#4c535f"/>
    </g>
    <path id="Vector-4" data-name="Vector" d="M0,0H34V34H0Z" fill="none" opacity="0"/>
  </g>
</svg>
