<svg xmlns="http://www.w3.org/2000/svg" width="22" height="22" viewBox="0 0 22 22"><path d="M0,0V2.75" transform="translate(7.333 1.833)" fill="none" stroke="#fff" stroke-linecap="round" stroke-linejoin="round" stroke-width="1.5"/><path d="M0,0V2.75" transform="translate(14.667 1.833)" fill="none" stroke="#fff" stroke-linecap="round" stroke-linejoin="round" stroke-width="1.5"/><path d="M0,0H15.583" transform="translate(3.208 8.332)" fill="none" stroke="#fff" stroke-linecap="round" stroke-linejoin="round" stroke-width="1.5" opacity="0.4"/><path d="M16.5,4.583v7.792c0,2.75-1.375,4.583-4.583,4.583H4.583C1.375,16.958,0,15.125,0,12.375V4.583C0,1.833,1.375,0,4.583,0h7.333C15.125,0,16.5,1.833,16.5,4.583Z" transform="translate(2.75 3.208)" fill="none" stroke="#fff" stroke-linecap="round" stroke-linejoin="round" stroke-width="1.5"/><path d="M0,0H22V22H0Z" fill="none" opacity="0"/><path d="M.495.5H.5" transform="translate(13.892 12.058)" fill="none" stroke="#fff" stroke-linecap="round" stroke-linejoin="round" stroke-width="1.5" opacity="0.4"/><path d="M.495.5H.5" transform="translate(13.892 14.808)" fill="none" stroke="#fff" stroke-linecap="round" stroke-linejoin="round" stroke-width="1.5" opacity="0.4"/><path d="M.495.5H.5" transform="translate(10.501 12.058)" fill="none" stroke="#fff" stroke-linecap="round" stroke-linejoin="round" stroke-width="1.5" opacity="0.4"/><path d="M.495.5H.5" transform="translate(10.501 14.808)" fill="none" stroke="#fff" stroke-linecap="round" stroke-linejoin="round" stroke-width="1.5" opacity="0.4"/><path d="M.495.5H.5" transform="translate(7.109 12.058)" fill="none" stroke="#fff" stroke-linecap="round" stroke-linejoin="round" stroke-width="1.5" opacity="0.4"/><path d="M0,0H.008" transform="translate(7.603 15.308)" fill="none" stroke="#fff" stroke-linecap="round" stroke-linejoin="round" stroke-width="1.5" opacity="0.4"/></svg>