<svg id="calendar_7_" data-name="calendar (7)" xmlns="http://www.w3.org/2000/svg" width="17.974" height="17.974" viewBox="0 0 17.974 17.974">
  <path id="Path_29580" data-name="Path 29580" d="M14.5,1.495h-.67V.816a.7.7,0,1,0-1.4,0v.679H5.544V.816a.7.7,0,1,0-1.4,0v.679H3.47A3.475,3.475,0,0,0,0,4.966v9.65a3.475,3.475,0,0,0,3.47,3.472H14.5a3.475,3.475,0,0,0,3.47-3.472V4.966A3.475,3.475,0,0,0,14.5,1.495ZM3.47,2.9h.67V4.268a.7.7,0,1,0,1.4,0V2.9H12.43V4.268a.7.7,0,1,0,1.4,0V2.9h.67a2.069,2.069,0,0,1,2.067,2.067v.671H1.4V4.966A2.069,2.069,0,0,1,3.47,2.9ZM14.5,16.684H3.47A2.069,2.069,0,0,1,1.4,14.616V7.041H16.571v7.575A2.069,2.069,0,0,1,14.5,16.684ZM6.234,9.8a.7.7,0,0,1-.7.7H4.152a.7.7,0,0,1,0-1.4h1.38A.7.7,0,0,1,6.234,9.8Zm8.289,0a.7.7,0,0,1-.7.7h-1.38a.7.7,0,0,1,0-1.4h1.38A.7.7,0,0,1,14.524,9.8Zm-4.149,0a.7.7,0,0,1-.7.7H8.293a.7.7,0,0,1,0-1.4h1.38A.7.7,0,0,1,10.375,9.8ZM6.234,13.945a.7.7,0,0,1-.7.7H4.152a.7.7,0,0,1,0-1.4h1.38A.7.7,0,0,1,6.234,13.945Zm8.289,0a.7.7,0,0,1-.7.7h-1.38a.7.7,0,0,1,0-1.4h1.38A.7.7,0,0,1,14.524,13.945Zm-4.149,0a.7.7,0,0,1-.7.7H8.293a.7.7,0,0,1,0-1.4h1.38A.7.7,0,0,1,10.375,13.945Z" transform="translate(0 -0.114)" fill="#bac1cc"/>
</svg>
