<svg id="Group_132172" data-name="Group 132172" xmlns="http://www.w3.org/2000/svg" width="30" height="30" viewBox="0 0 30 30">
  <rect id="Rectangle_110317" data-name="Rectangle 110317" width="30" height="30" fill="#171e48" opacity="0"/>
  <g id="Group_132181" data-name="Group 132181" transform="translate(3 3)">
    <path id="Vector" d="M7.85,20.531h-.6C2.415,20.531,0,19.323,0,13.285V7.246Q0,0,7.246,0h9.662q7.246,0,7.246,7.246v6.039q0,7.246-7.246,7.246h-.6a1.224,1.224,0,0,0-.966.483L13.526,23.43a1.716,1.716,0,0,1-2.9,0L8.816,21.014A1.365,1.365,0,0,0,7.85,20.531Z" fill="none" stroke="#fff" stroke-linecap="round" stroke-linejoin="round" stroke-width="1.5"/>
    <path id="Vector-2" data-name="Vector" d="M0,0H12.077" transform="translate(6.039 7.246)" fill="none" stroke="#fff" stroke-linecap="round" stroke-linejoin="round" stroke-width="1.5"/>
    <path id="Vector-3" data-name="Vector" d="M0,0H7.246" transform="translate(6.039 13.285)" fill="none" stroke="#fff" stroke-linecap="round" stroke-linejoin="round" stroke-width="1.5"/>
  </g>
</svg>

