<svg xmlns="http://www.w3.org/2000/svg" width="17.581" height="17.581" viewBox="0 0 17.581 17.581"><g transform="translate(0)"><path d="M14.585,1H5A4,4,0,0,0,1,5v6.393A4,4,0,0,0,4.2,15.3v2.478a.8.8,0,0,0,1.243.665l4.593-3.062h4.553a4,4,0,0,0,4-4V5A4,4,0,0,0,14.585,1ZM9.347,13.92,5.795,16.288v-1.7a.8.8,0,0,0-.8-.8,2.4,2.4,0,0,1-2.4-2.4V5A2.4,2.4,0,0,1,5,2.6h9.589a2.4,2.4,0,0,1,2.4,2.4v6.393a2.4,2.4,0,0,1-2.4,2.4H9.79a.781.781,0,0,0-.444.134Z" transform="translate(-1 -1)" fill="#bac1cc"/><path d="M15.388,7H5.8a.8.8,0,0,0,0,1.6h9.589a.8.8,0,1,0,0-1.6Z" transform="translate(-1.804 -2.205)" fill="#bac1cc"/><path d="M14.192,11H7.8a.8.8,0,1,0,0,1.6h6.393a.8.8,0,0,0,0-1.6Z" transform="translate(-2.205 -3.009)" fill="#bac1cc"/></g></svg>