<svg xmlns="http://www.w3.org/2000/svg" width="13.125" height="13.125" viewBox="0 0 13.125 13.125">
  <path id="Path_151264" data-name="Path 151264" d="M7-11.812A6.547,6.547,0,0,0,.437-5.25,6.547,6.547,0,0,0,7,1.312,6.547,6.547,0,0,0,13.562-5.25,6.547,6.547,0,0,0,7-11.812ZM7,.437A5.683,5.683,0,0,1,1.312-5.25,5.683,5.683,0,0,1,7-10.937,5.683,5.683,0,0,1,12.687-5.25,5.683,5.683,0,0,1,7,.437Zm.437-5.879V-8.75A.432.432,0,0,0,7-9.187a.432.432,0,0,0-.437.437v3.5a.439.439,0,0,0,.137.3L8.887-2.762a.439.439,0,0,0,.3.137.439.439,0,0,0,.3-.137.387.387,0,0,0,0-.6Z" transform="translate(-0.437 11.812)" fill="#0079f2"/>
</svg>
