<svg xmlns="http://www.w3.org/2000/svg" width="22" height="22" viewBox="0 0 22 22"><path d="M13.549,15.579H4.933a1.081,1.081,0,0,1-.944-.669L.194,4.295C-.347,2.773.285,2.305,1.587,3.24L5.162,5.8A.966.966,0,0,0,6.693,5.33l1.613-4.3c.513-1.375,1.366-1.375,1.879,0L11.8,5.33A.959.959,0,0,0,13.32,5.8l3.355-2.393c1.43-1.027,2.118-.5,1.531,1.155L14.5,14.928A1.12,1.12,0,0,1,13.549,15.579Z" transform="translate(1.759 1.82)" fill="none" stroke="#fed029" stroke-linecap="round" stroke-linejoin="round" stroke-width="1.5"/><path d="M0,0H10.083" transform="translate(5.958 20.167)" fill="none" stroke="#fed029" stroke-linecap="round" stroke-linejoin="round" stroke-width="1.5" opacity="0.34"/><path d="M0,0H4.583" transform="translate(8.708 12.833)" fill="none" stroke="#fed029" stroke-linecap="round" stroke-linejoin="round" stroke-width="1.5" opacity="0.34"/><path d="M0,0H22V22H0Z" fill="none" opacity="0"/></svg>