<svg xmlns="http://www.w3.org/2000/svg" width="22" height="22" viewBox="0 0 22 22"><g transform="translate(-748 -572)"><g transform="translate(748 572)"><path d="M16.042,7.792A2.293,2.293,0,0,1,18.333,5.5V4.583C18.333.917,17.417,0,13.75,0H4.583C.917,0,0,.917,0,4.583v.458A2.293,2.293,0,0,1,2.292,7.333,2.293,2.293,0,0,1,0,9.625v.458c0,3.667.917,4.583,4.583,4.583H13.75c3.667,0,4.583-.917,4.583-4.583A2.293,2.293,0,0,1,16.042,7.792Z" transform="translate(1.833 3.667)" fill="none" stroke="#fff" stroke-linecap="round" stroke-linejoin="round" stroke-width="1.5"/><path d="M0,5.5,5.5,0" transform="translate(8.25 8.021)" fill="none" stroke="#fff" stroke-linecap="round" stroke-linejoin="round" stroke-width="1.5" opacity="0.4"/><path d="M.495.5H.5" transform="translate(13.25 13.021)" fill="none" stroke="#fff" stroke-linecap="round" stroke-linejoin="round" stroke-width="2" opacity="0.4"/><path d="M.495.5H.5" transform="translate(7.75 7.979)" fill="none" stroke="#fff" stroke-linecap="round" stroke-linejoin="round" stroke-width="2" opacity="0.4"/><path d="M0,0H22V22H0Z" fill="none" opacity="0"/></g></g></svg>