<svg xmlns="http://www.w3.org/2000/svg" width="22" height="22" viewBox="0 0 22 22"><g transform="translate(-620 -252)"><g transform="translate(620 252)"><path d="M7.792,5.977V1.815C7.792.523,7.205,0,5.748,0h-3.7C.587,0,0,.523,0,1.815V5.968c0,1.3.587,1.815,2.044,1.815h3.7C7.205,7.792,7.792,7.269,7.792,5.977Z" transform="translate(12.375 1.833)" fill="none" stroke="#fff" stroke-linecap="round" stroke-linejoin="round" stroke-width="1.5"/><path d="M7.792,5.748v-3.7C7.792.587,7.205,0,5.748,0h-3.7C.587,0,0,.587,0,2.044v3.7C0,7.205.587,7.792,2.044,7.792h3.7C7.205,7.792,7.792,7.205,7.792,5.748Z" transform="translate(12.375 12.375)" fill="none" stroke="#fff" stroke-linecap="round" stroke-linejoin="round" stroke-width="1.5" opacity="0.4"/><path d="M7.792,5.977V1.815C7.792.523,7.205,0,5.748,0h-3.7C.587,0,0,.523,0,1.815V5.968c0,1.3.587,1.815,2.044,1.815h3.7C7.205,7.792,7.792,7.269,7.792,5.977Z" transform="translate(1.833 1.833)" fill="none" stroke="#fff" stroke-linecap="round" stroke-linejoin="round" stroke-width="1.5" opacity="0.4"/><path d="M7.792,5.748v-3.7C7.792.587,7.205,0,5.748,0h-3.7C.587,0,0,.587,0,2.044v3.7C0,7.205.587,7.792,2.044,7.792h3.7C7.205,7.792,7.792,7.205,7.792,5.748Z" transform="translate(1.833 12.375)" fill="none" stroke="#fff" stroke-linecap="round" stroke-linejoin="round" stroke-width="1.5"/><path d="M0,0H22V22H0Z" fill="none" opacity="0"/></g></g></svg>