<svg xmlns="http://www.w3.org/2000/svg" width="18" height="13.5" viewBox="0 0 18 13.5">
  <path id="Path_147243" data-name="Path 147243" d="M-2.25-13.5h-13.5A2.266,2.266,0,0,0-18-11.25v9A2.266,2.266,0,0,0-15.75,0h13.5A2.266,2.266,0,0,0,0-2.25v-9A2.266,2.266,0,0,0-2.25-13.5Zm-13.5,1.125h13.5A1.111,1.111,0,0,1-1.125-11.25v1.266L-7.98-4.852a1.688,1.688,0,0,1-2.039,0l-6.855-5.133V-11.25A1.111,1.111,0,0,1-15.75-12.375ZM-1.125-2.25A1.111,1.111,0,0,1-2.25-1.125h-13.5A1.111,1.111,0,0,1-16.875-2.25V-8.578l6.187,4.641A2.71,2.71,0,0,0-9-3.375a2.71,2.71,0,0,0,1.687-.562l6.187-4.641Z" transform="translate(18 13.5)" fill="#bac1cc"/>
</svg>
