<svg xmlns="http://www.w3.org/2000/svg" width="32" height="32" viewBox="0 0 32 32">
  <g id="Group_133158" data-name="Group 133158" transform="translate(-13.219 -194.098)">
    <g id="Rectangle_110371" data-name="Rectangle 110371" transform="translate(13.219 194.098)" fill="#fff" stroke="#707070" stroke-width="1" opacity="0">
      <rect width="32" height="32" stroke="none"/>
      <rect x="0.5" y="0.5" width="31" height="31" fill="none"/>
    </g>
    <path id="Path_150791" data-name="Path 150791" d="M-12.9-10.934l1.09.879a2.732,2.732,0,0,1,.562-.07A3.352,3.352,0,0,1-7.91-6.961l1.09.844a3.874,3.874,0,0,0,.07-.633,4.486,4.486,0,0,0-4.5-4.5A4.2,4.2,0,0,0-12.9-10.934ZM-11.25,0c-3.762,0-7.172-2.531-8.965-6.574,0-.035-.035-.141-.035-.176a.8.8,0,0,1,.035-.141,12.091,12.091,0,0,1,1.652-2.777l-.879-.7A15.378,15.378,0,0,0-21.27-7.348a3.018,3.018,0,0,0-.105.6,3.018,3.018,0,0,0,.105.6c1.934,4.324,5.7,7.277,10.02,7.277A9.679,9.679,0,0,0-6.5-.141l-.984-.773A8.251,8.251,0,0,1-11.25,0Zm0-13.5c3.762,0,7.172,2.531,8.965,6.574,0,.035.035.141.035.176a.8.8,0,0,1-.035.141A12.091,12.091,0,0,1-3.938-3.832l.879.7A15.378,15.378,0,0,0-1.231-6.152a3.018,3.018,0,0,0,.105-.6,3.018,3.018,0,0,0-.105-.6c-1.934-4.324-5.7-7.277-10.02-7.277A9.679,9.679,0,0,0-16-13.359l.984.773A8.251,8.251,0,0,1-11.25-13.5Zm0,11.25A4.2,4.2,0,0,0-9.6-2.566l-1.09-.879a2.732,2.732,0,0,1-.562.07,3.352,3.352,0,0,1-3.34-3.164l-1.09-.844a3.874,3.874,0,0,0-.07.633A4.486,4.486,0,0,0-11.25-2.25ZM-.211,1.23-21.586-15.644a.6.6,0,0,0-.809.105.6.6,0,0,0,.105.809L-.914,2.145a.678.678,0,0,0,.352.105.619.619,0,0,0,.457-.211A.6.6,0,0,0-.211,1.23Z" transform="translate(41.219 217.098)" fill="#4c535f"/>
  </g>
</svg>
