<svg xmlns="http://www.w3.org/2000/svg" width="22" height="22" viewBox="0 0 22 22"><path d="M1.834,0h12.1a1.839,1.839,0,0,1,1.834,1.834V3.851a3.422,3.422,0,0,1-.917,2.109L10.913,9.444A2.984,2.984,0,0,0,10,11.553V15.5a2.042,2.042,0,0,1-.825,1.559l-1.284.825A1.869,1.869,0,0,1,5.044,16.32V11.461A3.544,3.544,0,0,0,4.31,9.535L.825,5.868A3.039,3.039,0,0,1,0,4.034V1.925A1.861,1.861,0,0,1,1.834,0Z" transform="translate(3.114 1.923)" fill="none" stroke="#717b8c" stroke-linecap="round" stroke-linejoin="round" stroke-width="1.5"/><path d="M4.515,0,0,7.234" transform="translate(5.501 1.923)" fill="none" stroke="#717b8c" stroke-linecap="round" stroke-linejoin="round" stroke-width="1.5" opacity="0.4"/><path d="M0,0H22V22H0Z" fill="none" opacity="0"/></svg>