<svg xmlns="http://www.w3.org/2000/svg" width="22" height="22" viewBox="0 0 22 22"><g transform="translate(-748 -637)"><g transform="translate(748 637)"><path d="M11.825,0H6.508A3.185,3.185,0,0,0,4.565.807L.807,4.565A3.185,3.185,0,0,0,0,6.508v5.317a3.185,3.185,0,0,0,.807,1.943l3.758,3.758a3.185,3.185,0,0,0,1.943.807h5.317a3.185,3.185,0,0,0,1.943-.807l3.758-3.758a3.185,3.185,0,0,0,.807-1.943V6.508a3.185,3.185,0,0,0-.807-1.943L13.768.807A3.185,3.185,0,0,0,11.825,0Z" transform="translate(1.833 1.833)" fill="none" stroke="#ef5350" stroke-linecap="round" stroke-linejoin="round" stroke-width="1.5"/><path d="M0,12.962,12.962,0" transform="translate(4.528 4.528)" fill="none" stroke="#ef5350" stroke-linecap="round" stroke-linejoin="round" stroke-width="1.5" opacity="0.4"/><path d="M0,0H22V22H0Z" fill="none" opacity="0"/></g></g></svg>