<svg xmlns="http://www.w3.org/2000/svg" width="50" height="50" viewBox="0 0 50 50">
  <g id="vuesax_linear_courthouse" data-name="vuesax/linear/courthouse" transform="translate(-172 -188)">
    <g id="courthouse" transform="translate(172 188)">
      <path id="Vector" d="M0,0H41.667" transform="translate(4.167 45.833)" fill="none" stroke="#bac1cc" stroke-linecap="round" stroke-linejoin="round" stroke-width="3"/>
      <path id="Vector-2" data-name="Vector" d="M0,0A14.063,14.063,0,0,0,10.417,0V6.25A14.063,14.063,0,0,1,0,6.25Z" transform="translate(25 4.167)" fill="none" stroke="#bac1cc" stroke-linecap="round" stroke-linejoin="round" stroke-width="3"/>
      <path id="Vector-3" data-name="Vector" d="M0,0V6.25" transform="translate(25 10.417)" fill="none" stroke="#bac1cc" stroke-linecap="round" stroke-linejoin="round" stroke-width="3"/>
      <path id="Vector-4" data-name="Vector" d="M27.083,0H6.25Q0,0,0,6.25V29.167H33.333V6.25Q33.333,0,27.083,0Z" transform="translate(8.333 16.667)" fill="none" stroke="#bac1cc" stroke-linecap="round" stroke-linejoin="round" stroke-width="3"/>
      <path id="Vector-5" data-name="Vector" d="M0,0H30.917" transform="translate(9.542 25)" fill="none" stroke="#bac1cc" stroke-linecap="round" stroke-linejoin="round" stroke-width="3"/>
      <path id="Vector-6" data-name="Vector" d="M0,0V20.833" transform="translate(16.646 25)" fill="none" stroke="#bac1cc" stroke-linejoin="round" stroke-width="3"/>
      <path id="Vector-7" data-name="Vector" d="M0,0V20.833" transform="translate(24.979 25)" fill="none" stroke="#bac1cc" stroke-linejoin="round" stroke-width="3"/>
      <path id="Vector-8" data-name="Vector" d="M0,0V20.833" transform="translate(33.313 25)" fill="none" stroke="#bac1cc" stroke-linejoin="round" stroke-width="3"/>
      <path id="Vector-9" data-name="Vector" d="M0,0H50V50H0Z" fill="none" opacity="0"/>
    </g>
  </g>
</svg>
