<svg xmlns="http://www.w3.org/2000/svg" width="20" height="20" viewBox="0 0 20 20"><path d="M12.5,6.25A6.25,6.25,0,1,1,6.25,0,6.25,6.25,0,0,1,12.5,6.25Z" transform="translate(3.75 3.75)" fill="none" stroke="#5d3ebd" stroke-linecap="round" stroke-linejoin="round" stroke-width="1.5"/><path d="M5,2.5A2.5,2.5,0,1,1,2.5,0,2.5,2.5,0,0,1,5,2.5Z" transform="translate(7.5 7.5)" fill="none" stroke="#5d3ebd" stroke-linecap="round" stroke-linejoin="round" stroke-width="1.5" opacity="0.4"/><path d="M0,1.667V0" transform="translate(10 1.667)" fill="none" stroke="#5d3ebd" stroke-linecap="round" stroke-linejoin="round" stroke-width="1.5" opacity="0.4"/><path d="M1.667,0H0" transform="translate(1.667 10)" fill="none" stroke="#5d3ebd" stroke-linecap="round" stroke-linejoin="round" stroke-width="1.5" opacity="0.4"/><path d="M0,0V1.667" transform="translate(10 16.667)" fill="none" stroke="#5d3ebd" stroke-linecap="round" stroke-linejoin="round" stroke-width="1.5" opacity="0.4"/><path d="M0,0H1.667" transform="translate(16.667 10)" fill="none" stroke="#5d3ebd" stroke-linecap="round" stroke-linejoin="round" stroke-width="1.5" opacity="0.4"/><path d="M0,0H20V20H0Z" transform="translate(20 20) rotate(180)" fill="none" opacity="0"/></svg>