<svg xmlns="http://www.w3.org/2000/svg" width="22" height="22" viewBox="0 0 22 22"><g transform="translate(-620 -188)"><g transform="translate(620 188)"><path d="M6.434.754,1.494,4.6A4.362,4.362,0,0,0,0,7.647v6.792a3.873,3.873,0,0,0,3.859,3.868H14.473a3.871,3.871,0,0,0,3.859-3.859V7.775a4.329,4.329,0,0,0-1.65-3.162L11.017.644A4.113,4.113,0,0,0,6.434.754Z" transform="translate(1.834 1.85)" fill="none" stroke="#fff" stroke-linecap="round" stroke-linejoin="round" stroke-width="1.5"/><path d="M0,2.751V0" transform="translate(11 13.74)" fill="none" stroke="#fff" stroke-linecap="round" stroke-linejoin="round" stroke-width="1.5" opacity="0.4"/><path d="M0,0H22V22H0Z" fill="none" opacity="0"/></g></g></svg>