<svg xmlns="http://www.w3.org/2000/svg" width="14" height="13.125" viewBox="0 0 14 13.125">
  <path id="Path_151266" data-name="Path 151266" d="M12.25-9.625H10.5v-1.312A1.331,1.331,0,0,0,9.187-12.25H4.812A1.331,1.331,0,0,0,3.5-10.937v1.312H1.75A1.762,1.762,0,0,0,0-7.875v7A1.762,1.762,0,0,0,1.75.875h10.5A1.762,1.762,0,0,0,14-.875v-7A1.762,1.762,0,0,0,12.25-9.625ZM4.375-10.937a.432.432,0,0,1,.437-.437H9.187a.432.432,0,0,1,.437.437v1.312H4.375ZM13.125-.875A.864.864,0,0,1,12.25,0H1.75A.864.864,0,0,1,.875-.875v-3.5H4.812v1.75a.432.432,0,0,0,.437.437h3.5a.432.432,0,0,0,.437-.437v-1.75h3.937ZM5.687-3.062V-4.375H8.312v1.312ZM13.125-5.25H.875V-7.875A.864.864,0,0,1,1.75-8.75h10.5a.864.864,0,0,1,.875.875Z" transform="translate(0 12.25)" fill="#0079f2"/>
</svg>
