<svg xmlns="http://www.w3.org/2000/svg" width="20" height="20" viewBox="0 0 20 20">
  <g id="Group_132433" data-name="Group 132433" transform="translate(-8296 622)">
    <rect id="Rectangle_110289" data-name="Rectangle 110289" width="20" height="20" transform="translate(8296 -622)" fill="#bac1cc" opacity="0"/>
    <g id="language" transform="translate(8296.504 -621.643)">
      <path id="Path_29667" data-name="Path 29667" d="M11.407,5.529H3.764A.764.764,0,1,1,3.764,4h7.643a.764.764,0,1,1,0,1.529Z" transform="translate(0 -0.471)" fill="#bac1cc"/>
      <path id="Path_29668" data-name="Path 29668" d="M8.764,5.057A.764.764,0,0,1,8,4.293V2.764a.764.764,0,0,1,1.529,0V4.293A.764.764,0,0,1,8.764,5.057Z" transform="translate(-1.179)" fill="#bac1cc"/>
      <path id="Path_29669" data-name="Path 29669" d="M4.764,14.7a.764.764,0,0,1-.485-1.355A11.759,11.759,0,0,0,7.249,9.7,11.9,11.9,0,0,0,8.585,4.731.781.781,0,0,1,9.383,4a.764.764,0,0,1,.731.8,13.43,13.43,0,0,1-1.51,5.61A13.263,13.263,0,0,1,5.25,14.526.764.764,0,0,1,4.764,14.7Z" transform="translate(-0.236 -0.471)" fill="#bac1cc"/>
      <path id="Path_29670" data-name="Path 29670" d="M17.114,19.408a.764.764,0,0,1-.745-.6l-1.28-5.759a.665.665,0,0,0-1.3,0l-1.28,5.759a.764.764,0,1,1-1.492-.332L12.3,12.719a2.193,2.193,0,0,1,4.28,0l1.28,5.759a.764.764,0,0,1-.58.912A.778.778,0,0,1,17.114,19.408Z" transform="translate(-1.886 -2.123)" fill="#bac1cc"/>
      <path id="Path_29671" data-name="Path 29671" d="M8.821,14.35a.759.759,0,0,1-.352-.086A6.832,6.832,0,0,1,5.9,11.949a6.7,6.7,0,0,1-.877-1.994A.764.764,0,1,1,6.5,9.573a5.169,5.169,0,0,0,.677,1.542,5.312,5.312,0,0,0,1.993,1.793.764.764,0,0,1-.353,1.442Z" transform="translate(-0.471 -1.65)" fill="#bac1cc"/>
      <path id="Path_29672" data-name="Path 29672" d="M16.586,17.529H12.764a.764.764,0,1,1,0-1.529h3.821a.764.764,0,0,1,0,1.529Z" transform="translate(-2.122 -3.3)" fill="#bac1cc"/>
    </g>
  </g>
</svg>
