<svg xmlns="http://www.w3.org/2000/svg" width="14" height="14" viewBox="0 0 14 14"><g transform="translate(0)"><g transform="translate(0)" fill="#fed029" stroke="#707070" stroke-width="1" opacity="0"><rect width="14" height="14" stroke="none"/><rect x="0.5" y="0.5" width="13" height="13" fill="none"/></g><g transform="translate(1.74 0.282)"><path d="M66.26,0A5.249,5.249,0,0,0,61,5.224a5.154,5.154,0,0,0,1.049,3.132l3.887,5.2c.01.013.025.017.035.029a.393.393,0,0,0,.613-.029c1.119-1.483,3.171-4.253,3.96-5.3h0l0-.006a5.163,5.163,0,0,0,.971-3.025A5.249,5.249,0,0,0,66.26,0Zm0,8.043A2.819,2.819,0,1,1,69.1,5.224,2.836,2.836,0,0,1,66.26,8.043Z" transform="translate(-61)" fill="#fed029"/></g></g></svg>