<svg xmlns="http://www.w3.org/2000/svg" width="10.5" height="14" viewBox="0 0 10.5 14">
  <path id="Path_151265" data-name="Path 151265" d="M5.25-12.25A5.251,5.251,0,0,0,0-7C0-4.895.738-4.293,4.7,1.477a.684.684,0,0,0,1.094,0C9.762-4.293,10.5-4.895,10.5-7A5.251,5.251,0,0,0,5.25-12.25ZM5.25.711C1.422-4.84.875-5.25.875-7A4.388,4.388,0,0,1,5.25-11.375,4.388,4.388,0,0,1,9.625-7C9.625-5.25,9.105-4.84,5.25.711Zm0-9.9A2.194,2.194,0,0,0,3.062-7,2.194,2.194,0,0,0,5.25-4.812,2.194,2.194,0,0,0,7.437-7,2.194,2.194,0,0,0,5.25-9.187Zm0,3.5A1.331,1.331,0,0,1,3.937-7,1.331,1.331,0,0,1,5.25-8.312,1.331,1.331,0,0,1,6.562-7,1.331,1.331,0,0,1,5.25-5.687Z" transform="translate(0 12.25)" fill="#0079f2"/>
</svg>
