<svg xmlns="http://www.w3.org/2000/svg" width="27.061" height="35.162" viewBox="0 0 27.061 35.162"><g transform="translate(0 0)"><path d="M169.033,401.144a.768.768,0,0,1-.475-1.373c3.187-2.5,10.6-9.48,10.6-20.226,0,0,0,0,0-.007a12.3,12.3,0,0,0-9.528-12.034.768.768,0,0,1,.34-1.5,13.769,13.769,0,0,1,10.725,13.543,25.072,25.072,0,0,1-4.243,13.9,31.987,31.987,0,0,1-6.945,7.533A.765.765,0,0,1,169.033,401.144Z" transform="translate(-153.634 -365.982)" fill="#fff"/><path d="M162.246,400.925a.765.765,0,0,1-.491-.177,34.228,34.228,0,0,1-6.866-7.71,24.769,24.769,0,0,1-4.126-13.493A13.768,13.768,0,0,1,161.529,366a.768.768,0,1,1,.335,1.5,12.3,12.3,0,0,0-9.564,12.036s0,0,0,.006c0,9.878,6.54,16.786,10.438,20.024a.768.768,0,0,1-.491,1.359Z" transform="translate(-150.763 -365.981)" fill="#fff"/><path d="M164.294,395.157a13.53,13.53,0,0,1-13.53-13.53.768.768,0,1,1,1.536,0,11.993,11.993,0,0,0,23.986,0,.768.768,0,1,1,1.536,0,13.53,13.53,0,0,1-13.53,13.53Z" transform="translate(-150.763 -368.422)" fill="#fff"/><path d="M171.191,382.577a.768.768,0,0,1-.768-.768,4.7,4.7,0,0,0-9.4,0,.768.768,0,1,1-1.536,0,6.234,6.234,0,0,1,12.468,0A.768.768,0,0,1,171.191,382.577Z" transform="translate(-152.195 -367.555)" fill="#fed029"/></g></svg>