<svg xmlns="http://www.w3.org/2000/svg" width="111.084" height="36.32" viewBox="0 0 111.084 36.32"><g transform="translate(0 0)"><g transform="translate(0 0)"><path d="M180.692,407.954c.017,0,.025-.008.025-.023l-.025-1.1h.008l.433.869a.049.049,0,0,0,.048.028h.1a.043.043,0,0,0,.043-.028l.393-.869h.008l.027,1.1c0,.016.009.023.026.023h.156c.017,0,.025-.008.024-.023l-.038-1.536c0-.015-.008-.023-.025-.023h-.16a.038.038,0,0,0-.038.023l-.463,1.062h-.008L180.7,406.4a.04.04,0,0,0-.04-.023H180.5a.021.021,0,0,0-.024.023l.033,1.533c0,.016.009.023.026.023Z" transform="translate(-71.639 -371.634)" fill="#fff"/><path d="M179.13,406.524c.01,0,.015.005.015.013l.027,1.351c0,.015.008.023.025.023h.171c.017,0,.025-.008.024-.023l-.027-1.351c0-.008,0-.013.014-.013h.456c.017,0,.025-.008.024-.023v-.145c0-.016-.008-.023-.025-.023h-1.16c-.017,0-.025.008-.024.023v.145c0,.016.008.023.025.023Z" transform="translate(-71.34 -371.627)" fill="#fff"/><path d="M50.286,376.673a3.427,3.427,0,0,0,1.021,2.662,4.291,4.291,0,0,0,2.969.932H71.167v-8.945a.842.842,0,0,0-.841-.841h-.084a.842.842,0,0,0-.836.841v7.505h-5.73V365.684a.841.841,0,1,0-1.681,0V378.83H54.212a2.2,2.2,0,0,1-1.641-.617,2.308,2.308,0,0,1-.6-1.682,10.707,10.707,0,0,1,.139-1.643.784.784,0,0,0-.176-.632.759.759,0,0,0-.577-.266.781.781,0,0,0-.744.568,7.329,7.329,0,0,0-.323,2.115" transform="translate(-50.279 -364.816)" fill="#fff"/><path d="M59.061,374.446c.426-.041.721-.066.88-.074v-.836c-.212.008-.555.042-1.021.1-.487.063-.829.113-1.017.146l-.071.013-.066-.032a1.238,1.238,0,0,1-.451-.373,1.185,1.185,0,0,1,.155-1.51,1.326,1.326,0,0,1,.855-.273,3.169,3.169,0,0,1,1.142.263.378.378,0,0,0,.347-.251.47.47,0,0,0-.154-.553A3.969,3.969,0,0,0,58.3,370.8a2.424,2.424,0,0,0-1.564.472,1.588,1.588,0,0,0-.575,1.3,1.3,1.3,0,0,0,.469,1.032l.372.324-1.1.15v.767c.262-.041.92-.13,2-.275.251-.033.633-.075,1.152-.125" transform="translate(-51.203 -365.797)" fill="#fff"/><path d="M73.875,385.464a1.037,1.037,0,0,0-1.139,1.147,1.136,1.136,0,0,0,.3.851,1.15,1.15,0,0,0,.836.3,1.113,1.113,0,0,0,.843-.309,1.337,1.337,0,0,0,0-1.676,1.109,1.109,0,0,0-.843-.309" transform="translate(-53.962 -368.203)" fill="#fff"/><path d="M104.308,372.684a.441.441,0,0,0,.585.418l4.055-1.433a.44.44,0,1,0-.292-.831l-4.055,1.416a.448.448,0,0,0-.3.432" transform="translate(-59.143 -365.8)" fill="#fed029"/><path d="M79.576,380.272h47.251v-5.706a6.582,6.582,0,0,0-1.9-5.023,7.65,7.65,0,0,0-5.42-1.786,15.812,15.812,0,0,0-3.646.4.757.757,0,0,0-.482.362.74.74,0,0,0,.809,1.087,13.763,13.763,0,0,1,3.32-.4,5.907,5.907,0,0,1,4.272,1.348,5.673,5.673,0,0,1,1.366,4.18v4.1h-3.021v-2.79c0-2.909-1.358-4.323-4.149-4.323a4.681,4.681,0,0,0-2.158.507,3.887,3.887,0,0,0-1.557,1.433,4.026,4.026,0,0,0-.573,2.154,3.594,3.594,0,0,0,.405,1.7,3.009,3.009,0,0,0,.736.919l.479.4H90.433V365.727a.883.883,0,1,0-1.766,0v13.107H85.612l-2.641-10.553a.9.9,0,0,0-1.739.429l2.533,10.124h-4.19a.717.717,0,0,0,0,1.434m36.526-6.252a2.4,2.4,0,0,1,1.79-.661,2.424,2.424,0,0,1,1.909.73,3.37,3.37,0,0,1,.644,2.271v2.479h-1.872a3.194,3.194,0,0,1-2.249-.8,2.8,2.8,0,0,1-.868-2.152,2.573,2.573,0,0,1,.646-1.868" transform="translate(-54.972 -364.821)" fill="#fff"/><path d="M62.019,404.733h.067a.829.829,0,0,0,.828-.828V390.238c-.074-.489-.23-.542-.354-.585l.027-.078h0l-.027.078a1.434,1.434,0,0,0-.466-.069.873.873,0,0,0-.686.251.93.93,0,0,0-.213.63v5.663H52.013L52,390.189a.555.555,0,0,0-.364-.55,1.05,1.05,0,0,0-.418-.053.939.939,0,0,0-.711.251.92.92,0,0,0-.214.629v13.445a.829.829,0,0,0,.828.828h.066a.829.829,0,0,0,.828-.828V397.6H61.19v6.312a.829.829,0,0,0,.828.828" transform="translate(-50.281 -368.878)" fill="#fff"/><path d="M69.476,403.08a2.483,2.483,0,0,0,.718,1.194,4.2,4.2,0,0,0,1.588.871,9.064,9.064,0,0,0,2.768.343,27.972,27.972,0,0,0,2.946-.124c.738-.084,1.331-.159,1.762-.23l.074-.012v-6.6a4.215,4.215,0,0,0-1.4-3.523,6.7,6.7,0,0,0-4.15-1.087,7.024,7.024,0,0,0-2,.219,3.411,3.411,0,0,0-.92.391,1.437,1.437,0,0,0-.328.324.777.777,0,0,0-.141.466.936.936,0,0,0,.136.489,1.1,1.1,0,0,0,.3.344l.056.04.054-.046a4.3,4.3,0,0,1,.976-.564,4.843,4.843,0,0,1,1.949-.313,4.306,4.306,0,0,1,2.926.8,2.9,2.9,0,0,1,.869,2.053l.014.251-.477-.023c-.238-.014-.507-.028-.808-.043s-.621-.028-.965-.043-.681-.021-1.013-.021a9.541,9.541,0,0,0-2.452.267,4.1,4.1,0,0,0-1.578.76,2.724,2.724,0,0,0-.829,1.153,4.031,4.031,0,0,0-.241,1.4,5.256,5.256,0,0,0,.161,1.254m2.437-2.99a5.879,5.879,0,0,1,2.637-.495q.471,0,1,.008c.351,0,.676.011.976.018s.563.014.789.021l.364.013v4.209l-.176.039c-.176.038-.425.084-.741.129a16.139,16.139,0,0,1-2.165.108,5.058,5.058,0,0,1-2.842-.585,2,2,0,0,1-.776-1.735,1.779,1.779,0,0,1,.937-1.729" transform="translate(-53.402 -369.588)" fill="#fff"/><path d="M87.244,388.728a.578.578,0,0,0-.328-.418,1.606,1.606,0,0,0-.418-.057.89.89,0,0,0-.673.231.825.825,0,0,0-.216.594v14.606a.828.828,0,0,0,1.656,0Z" transform="translate(-56.075 -368.661)" fill="#fff"/><path d="M91.768,403.081a2.48,2.48,0,0,0,.718,1.194,4.2,4.2,0,0,0,1.584.871,9.1,9.1,0,0,0,2.769.342,28.246,28.246,0,0,0,2.946-.123c.733-.084,1.326-.159,1.761-.23l.075-.013v-6.6a4.211,4.211,0,0,0-1.4-3.522,6.694,6.694,0,0,0-4.15-1.087,7.012,7.012,0,0,0-2,.219,3.41,3.41,0,0,0-.92.391,1.472,1.472,0,0,0-.328.324.781.781,0,0,0-.142.466.945.945,0,0,0,.136.489,1.122,1.122,0,0,0,.3.344l.056.039.053-.045a4.3,4.3,0,0,1,.977-.565,4.859,4.859,0,0,1,1.949-.313,4.3,4.3,0,0,1,2.926.806,2.9,2.9,0,0,1,.869,2.053l.014.251-.477-.023-.808-.043c-.3-.014-.623-.028-.966-.042s-.681-.022-1.013-.022a9.514,9.514,0,0,0-2.453.268,4.089,4.089,0,0,0-1.578.76,2.723,2.723,0,0,0-.829,1.153,4.052,4.052,0,0,0-.24,1.4,5.274,5.274,0,0,0,.161,1.259m2.434-2.992a5.88,5.88,0,0,1,2.637-.494c.314,0,.647,0,1,.007s.676.011.976.018.563.013.789.021l.364.012v4.209l-.176.04c-.176.038-.425.084-.742.129a16.126,16.126,0,0,1-2.164.108,5.057,5.057,0,0,1-2.842-.585,2,2,0,0,1-.776-1.735,1.779,1.779,0,0,1,.939-1.733" transform="translate(-57.058 -369.588)" fill="#fff"/><path d="M118.665,400.987a6.687,6.687,0,0,0,.405-2.361,7.085,7.085,0,0,0-.371-2.357,5.066,5.066,0,0,0-1.071-1.792h0a4.714,4.714,0,0,0-1.672-1.138,6.321,6.321,0,0,0-3.984-.141,4.807,4.807,0,0,0-1.221.6,4.012,4.012,0,0,0-.621.539l-.389.425-.018-6.318a.541.541,0,0,0-.327-.435,1.5,1.5,0,0,0-.412-.057.9.9,0,0,0-.682.229.822.822,0,0,0-.217.594v15.4l.068.017c.064.015.418.067,1.154.167a23.54,23.54,0,0,0,2.975.145,9.363,9.363,0,0,0,3.024-.441,5.882,5.882,0,0,0,2.118-1.221,4.864,4.864,0,0,0,1.244-1.863m-1.646-.492a3.555,3.555,0,0,1-.886,1.421,4.166,4.166,0,0,1-1.54.92,6.805,6.805,0,0,1-2.249.33,12.106,12.106,0,0,1-1.839-.105c-.241-.039-.437-.073-.585-.1l-.184-.033v-4.3a5.633,5.633,0,0,1,.242-1.679,3.81,3.81,0,0,1,.717-1.337,3.344,3.344,0,0,1,1.17-.883,3.912,3.912,0,0,1,1.644-.322,3.554,3.554,0,0,1,2.861,1.093,4.718,4.718,0,0,1,.931,3.124,5.784,5.784,0,0,1-.286,1.868" transform="translate(-59.762 -368.612)" fill="#fff"/><path d="M126.694,399.11l.35.24c.442.3.892.627,1.338.965.614.467,1.21.948,1.771,1.43s1.083.961,1.557,1.429c.3.3.725.781.949,1.041a.873.873,0,0,0,.659.3h.549a.532.532,0,0,0,.405-.879h0c-.554-.65-1.337-1.546-1.934-2.124a28.511,28.511,0,0,0-3.579-2.9l-.264-.184,1.543-1.075q.64-.447,1.378-.948t1.382-.949c.438-.307.8-.56,1.1-.79a1.125,1.125,0,0,0,.385-.466.385.385,0,0,0-.107-.389,1.37,1.37,0,0,0-1.543-.036,8.962,8.962,0,0,0-.98.626q-.86.591-1.72,1.2t-1.588,1.123q-.731.512-1.217.864l-.435.314.014-8.972c-.028-.411-.24-.585-.359-.616a1.566,1.566,0,0,0-.411-.057.905.905,0,0,0-.684.231.821.821,0,0,0-.216.594V403.64a.863.863,0,0,0,.688.866.836.836,0,0,0,.676-.186.828.828,0,0,0,.292-.631Z" transform="translate(-62.544 -368.662)" fill="#fff"/><g transform="translate(84.023 0.932)"><path d="M169.033,401.144a.768.768,0,0,1-.475-1.373c3.187-2.5,10.6-9.48,10.6-20.226,0,0,0,0,0-.007a12.3,12.3,0,0,0-9.528-12.034.768.768,0,0,1,.34-1.5,13.769,13.769,0,0,1,10.725,13.543,25.072,25.072,0,0,1-4.243,13.9,31.987,31.987,0,0,1-6.945,7.533A.765.765,0,0,1,169.033,401.144Z" transform="translate(-153.634 -365.982)" fill="#fff"/><path d="M162.246,400.925a.765.765,0,0,1-.491-.177,34.228,34.228,0,0,1-6.866-7.71,24.769,24.769,0,0,1-4.126-13.493A13.768,13.768,0,0,1,161.529,366a.768.768,0,1,1,.335,1.5,12.3,12.3,0,0,0-9.564,12.036s0,0,0,.006c0,9.878,6.54,16.786,10.438,20.024a.768.768,0,0,1-.491,1.359Z" transform="translate(-150.763 -365.981)" fill="#fff"/><path d="M164.294,395.157a13.53,13.53,0,0,1-13.53-13.53.768.768,0,1,1,1.536,0,11.993,11.993,0,0,0,23.986,0,.768.768,0,1,1,1.536,0,13.53,13.53,0,0,1-13.53,13.53Z" transform="translate(-150.763 -368.422)" fill="#fff"/><path d="M171.191,382.577a.768.768,0,0,1-.768-.768,4.7,4.7,0,0,0-9.4,0,.768.768,0,1,1-1.536,0,6.234,6.234,0,0,1,12.468,0A.768.768,0,0,1,171.191,382.577Z" transform="translate(-152.195 -367.555)" fill="#fed029"/></g></g></g></svg>