<svg xmlns="http://www.w3.org/2000/svg" xmlns:xlink="http://www.w3.org/1999/xlink" width="1104" height="356" viewBox="0 0 1104 356"><defs><clipPath id="a"><rect width="1104" height="356" rx="8" fill="#fff" stroke="#707070" stroke-width="1"/></clipPath><clipPath id="b"><rect width="1117" height="489" rx="6" transform="translate(0 -0.098)" fill="#fff" stroke="#707070" stroke-width="1"/></clipPath></defs><g clip-path="url(#a)"><g transform="translate(0 -79.187)"><g transform="translate(0 49.286)" clip-path="url(#b)"><g transform="translate(-22.724 -378.175)"><g transform="translate(0 0)"><path d="M458.228,1013.59q-.858-1.043-1.713-2.088c-.224-4.424-3.227-7.685-3.1-12.435.8-31.957,5.924-62.881,13.982-93.247,4.139-15.6,8.431-31.219,6.973-48.191-3.028-35.193-4.3-70.54-5.293-105.888a99.708,99.708,0,0,0-2.625-21.544c-4.324-17.473-8.081-35.159-12.108-52.739-.635-2.767-2.247-5.972.9-7.594,3.221-1.662,4.059,1.728,4.776,4.579,7.889,31.4,15.6,62.748,16.295,96.055.659,31.367,2.36,62.7,3.5,94.051.185,5.185,1.673,8,6.282,8.592a290.514,290.514,0,0,1,29.339,4.826c4.513,1.057,5.751-.28,6.444-5.333,1.809-13.28,4.086-26.469,6-39.731q5.973-41.422,11.76-82.884c.572-.7,1.141-1.383,1.713-2.08,3.915-.066,7.9-.728,11.725-.058,7.218,1.263,10.661-2.62,11.271-10.885.849-11.616,1.123-23.315,2.322-34.872,2.656-25.665-.576-51.978,5.659-77.182,1.3-5.252-.039-7.759-3.9-8.792-35.942-9.541-71.477-21.543-108.7-22.485-55.756-1.4-110.724,3.907-164.764,22-43.1,14.434-84.734,33.691-123.641,59.849C120.082,709.956,70.651,748.325,19.826,783.747c-56.834,39.615-111.1,84.294-166.441,126.849-23.094,17.751-45.994,36.175-73.2,43.835-2.1.589-3.093,1.95-3.309,4.407h-1.829V943.444c3.3-.049,6.514-.064,9.778-1.367,21-8.372,39.757-21.938,58.271-36.224,55.5-42.827,110.219-87.194,167.072-127.4,5.586-3.948,7.378-7.6,3.579-15.261q-48.424-97.5-96.341-195.4c-10.773-21.938-22.555-43.769-27.3-68.738q-15.493-81.4-28.075-163.613c-5.9-38.174-18.3-72.317-37.5-102.913-11.627-18.531-23.653-36.74-36.28-54.262-3.937-5.465-5.856-14.148-13.2-15.492V140.794c.6-.023,1.2-.023,1.8,0,.02,3.136,1.182,5.358,3.553,6.611l.037.074A158.418,158.418,0,0,0-194.3,184.792l.037.074A158.427,158.427,0,0,0-169,222.171l.037.082c1.166,7.316,4.078,7.43,7.755,2.515,8.726-11.656,14.494-25.492,19.421-39.91l.03-.033h5.3l.02.025c.46,5.249-1.276,9.559-3.362,14.065-3.87,8.355-8.805,16.04-11.226,25.346l-1.717,2.113c-7.792,5.725-8.262,12.051-3.447,21.79,8.19,16.58,17.148,33.413,20.709,52.254,9.535,50.413,17.746,101.2,26.13,151.925,4.924,29.753,9.737,59.554,22.681,86.005,35.637,72.832,71.736,145.33,107.218,218.276,4.139,8.512,7.389,9.691,13.974,4.857,24.687-18.1,49.781-35.4,74.314-53.8,43.294-32.474,87.6-62.519,135.505-83.7,20.544-9.085,41.792-15.844,62.776-23.445,5.5-2,7.183-4.694,4.562-11.8-8.107-22-15.713-44.285-23.322-66.551-.916-2.678-3.541-6.782-.183-8.739,3.844-2.237,4.67,2.449,5.867,5.89,7.995,22.862,16.36,45.553,24.05,68.573,2.283,6.84,4.66,8.141,10.718,6.962,33.114-6.422,66.256-12.264,99.984-12.328,19.867-.041,39.568,2.948,59.412,2.645,5.777-.089,8.99-1.942,9.721-9.452,1.612-16.622,3.138-33.291,5.639-49.733,1.6-10.542,3.268-21.347,12.4-27.745,28.332-19.833,53.943-45.4,84.976-59.546a10,10,0,0,0,5.545-5.333c.572-.7,1.152-1.41,1.728-2.113,9.9-8.635,15.227-22.75,25.009-31.367,7.893-6.947,14.151-15.8,21.037-23.936,5.661-6.677,6.168-12.707.777-21.291-14.511-23.1-30.7-44.652-43.262-69.6-7.611-15.113-16.094-16.834-28.177-7.217-10.8,8.594-21.639,17.112-32.442,25.713-43.215,34.4-88.222,65.149-132.9,96.582-2.837,1.991-7.108,7.97-9.867,1.965-2.367-5.152,3.96-5.857,6.286-8.7.325-.392.267-1.253.4-2-2.061-2.892-5.093-3.457-7.849-4.8-16.617-8.085-34.379-13.721-45.9-32.586-6.021-9.854-15.1-13.909-24.276-17.547-4.686-2.36-9.554-4.3-14.029-7.159-11.894-7.6-14.352-20.6-12.85-35.47.944-9.372,2.051-18.727,3.374-28.024,1.526-10.732-2.719-19.046-7.262-27.263-12.063-21.813-17.516-46.054-17.984-72.137a31.77,31.77,0,0,1,.226-4.366,18.2,18.2,0,0,1,1.227-3.105c3.024,6.578,3.63,13.222,3.775,19.537.382,16.826,3.006,33.5,11.546,46.268,14.244,21.314,13.078,44.637,10.071,68.942-2.808,22.691,4.723,34.322,23.658,36.3,11.981,3.424,22.013,10.567,30.11,22.06,4.87,6.914,10.2,13.369,17.588,16.686,10.98,4.941,21.846,10.239,32.735,15.475,4.086,1.965,7.437,1.958,11.64-1.138,24.4-17.949,49.142-35.21,73.675-52.895,25.835-18.628,50.974-38.609,75.8-59.162,1.939-1.6,4.8-2.76,3.174-6.537-1.4-3.243-3.907-2.736-6.328-1.573a12.641,12.641,0,0,1-8.9.524c-13.652-3.6-26.728-3.08-38.952,6.562a149.572,149.572,0,0,1-17.368,11.592c-7.041,4.1-13.046,3.48-17.478-5.939-6.259-13.313-12.911-26.362-19.781-39.216-3.126-5.848-4.648-11.738-3.746-18.568.568-.7,1.136-1.387,1.709-2.09,8.87-3.179,15.461-11.058,23.067-16.811,12.225-9.231,20.121-7.494,27.825,7.407,6.872,13.286,13.5,26.762,20.259,40.139,1.4,2.769,2.532,6.071,5.767,6.257,6.884.394,13.536,2.785,20.544,2.606,6.446-.165,8.14-2.466,5.6-9.765-5.024-14.459-9.835-29.032-14.7-43.58-1.085-3.251-3.549-7.609.083-9.6,3.966-2.171,4.239,3.694,5.7,6.479a37.171,37.171,0,0,1,1.648,5.079q8.4,24.22,16.839,48.43c3.081,8.8,8.286,12.754,16.4,11.649a56.213,56.213,0,0,0,27.007-11.3c31.351-24.394,62.192-49.748,93.366-74.487,4.786-3.8,4.817-6.988,1.783-12.346-4.6-8.1-8.15-17.088-12.856-25.082-10.1-17.154-16.617-37.527-30.486-51.288a241.786,241.786,0,0,1-51.3-75.4c-2.033-4.636-3.276-10.427-8.457-11.9,0-.736,0-1.474,0-2.21h10.842c.1,1.449-.134,3.1.36,4.333,12.272,30.743,30.218,56.146,51.2,78.353,7.136,7.561,13.338,15.515,18.234,25.346,8.87,17.809,18.247,35.241,27.3,52.91,3.1,6.061,6.3,8.036,11.611,3.072a208.365,208.365,0,0,1,18.017-14.54c5.024-3.744,5.513-6.758,1.341-12.69-25.924-36.837-51.741-73.8-76.9-111.4-5.34-7.978-13.619-13.835-15.02-25.385h23.493c2.5,12.049,10.919,19.013,16.916,27.793,35.012,51.232,70.663,101.808,105.944,152.768,3.113,4.49,5.309,4.628,8.884,1.123,13.51-13.247,27.088-26.4,40.86-39.247,3.874-3.612,4.513-6.8,2.19-11.959-4.035-8.97-8.7-17.842-11.151-27.492-5.437-21.355-11.078-42.924-3.8-65.689C855,25.184,857.825,12.512,861.128.061h12.653c-.108,4.389-3.085,6.962-4.529,10.524-5.987,14.779-12.246,30.458-12.6,46.342-.553,24.985,6.9,48.5,17.677,70.1,2.108,4.218,3.671,5.463,7.751,2.826,24.41-15.744,49.059-30.932,73.516-46.554,29.768-19.013,59.349-38.453,89.181-57.3,7.067-4.457,13.619-11.116,22.359-10.544V46.236c-3.7-.171-5.158-4.185-6.385-7.019-4.5-10.371-9.961-8.955-17.07-4.121-16.778,11.419-33.789,22.348-50.837,33.159q-52.8,33.46-105.773,66.485c-5.439,3.383-7,7.069-4.316,13.795,4.988,12.493,9.5,25.28,14.629,37.682,10.87,26.3,18.568,54.7,35.916,76.668,8.585,10.87,8.722,11.491,19.006,3.414,25.961-20.405,50.646-43.211,77.714-61.519,12.287-8.306,23.715-18.6,37.114-24.4v13.2c-14.2,4.513-25.44,15.867-37.857,24.476-3.449,2.393-1.085,5.644.49,8.357,7.12,12.214,13.809,24.837,21.478,36.509,5.126,7.807,7.743,18.3,15.89,23.019v17.587c-3.233.025-4.469-2.907-6.07-5.661-11.959-20.553-24.2-40.867-35.973-61.576-4.467-7.85-7.877-10.454-15.428-3.762-17.476,15.467-35.822,29.483-53.819,44.081-9.637,7.815-9.58,7.757-2.771,18.858q20.18,32.88,40.185,65.934c1.553,2.589,5.494,6.03,1.878,9.167-3.437,2.973-4.8-2.286-6.581-5.013-20.522-31.382-38.632-65.027-60.82-94.894-8.152-10.977-16.659-21.879-21.791-35.985-9.737-26.739-20.288-53.034-30.295-79.625-2.33-6.193-4.843-6.413-8.9-2.431-11.664,11.443-23.09,23.338-35.36,33.742-6.894,5.848-6.031,8.978-.773,15.424Q896.947,283.261,966.5,360.62c26.221,29.007,51.149,59.758,77.317,88.839,7.372,8.192,13.676,18.4,23.32,23.388v30.792c-8.048-7.283-17.8-12.934-23.8-22.182-12.919-19.947-29.5-35.233-44.651-51.756-14.323-15.612-27.847-32.611-42.049-48.315C940.912,364,923.5,347.979,910.274,327.133c-1.638-2.581-3.885-4.579-5.822-6.891-7.547-8.978-15.31-13.843-24.657-3.055-1.6,1.851-4.442,2.072-6.674,3.154-23.436,11.344-47.486,20.881-70.028,34.9-1.962,1.22-5.74,1.179-4.745,5.168,2.128,8.5,6.8,15.434,11.413,22.1,2.94,4.243,6.976.557,10.119-.433,23.483-7.438,46.686-15.106,71.589-10.732,12.437,2.187,24.53,2.531,35.68,11.575,13.729,11.142,18.627,25.1,13.69,44.326a42.639,42.639,0,0,1-9.291,18.316c-6.825,7.733-13.971,15.3-19.71,24.165-11.855,18.285-28.071,21.34-45.594,23.216-13.776,1.476-28.358-1.523-41.125,8.365-11.658,9.019-23.411,17.875-35.332,26.352-16.078,11.445-26.919,27.108-30.708,49.954-3.3,19.881-12.919,34.437-27.105,45.563-28.759,22.559-57.129,45.856-84.136,71.529-5.036,4.793-5.447,8.118-2.067,14.263,24.394,44.334,49.553,88,74.947,131.492,4.774,8.168,7.657,7.275,13.371,2.385q46.044-39.42,92.522-78.068c26.321-21.782,53.08-42.761,78.687-65.813,17.887-16.1,36.518-31.029,56.871-42.112,21.374-11.641,43.091-22.388,64.854-32.94,13.337-6.463,26.075-14.843,40.116-19.12v8.8c-1.762.344-3.665.28-5.274,1.082-16.936,8.454-33.818,17.038-50.721,25.583-18.562,9.388-37.849,17.129-55.514,28.572-21.665,14.033-41.831,31.417-61.663,49.168-4.373,3.923-4.458,8.143-1.634,13.148q19.882,35.205,39.762,70.408c3.4,6.036,6.092,6.578,8.372-1.107,6.642-22.394,15.111-43.809,24.268-64.8,1.728-3.958,2.192-12.789,7.1-10.019,3.763,2.13-.075,9.47-1.793,13.73-9.114,22.656-18.147,45.324-25.627,68.907-2.281,7.176-1.667,12.354,2.031,18.112,5.167,8.046,9.936,16.475,14.8,24.8q23.457,40.146,46.873,80.321c1.948,3.325,3.84,6.766,7.893,2.736,8.355-8.291,16.682-16.686,25.5-24.216,8.492-7.258,15.16-17.784,25.631-21.543v8.8c-17.771,12.165-32.312,29.613-48.656,44.112-3.217,2.859-1.205,5.653.383,8.405a476.528,476.528,0,0,1,26.15,52.133c2.336,5.52,4.924,5.077,8.642,2.49,4.629-3.22,7.987-8.873,13.481-10.38v10.994c-6.613,1.515-14.969,4.375-13.4,13.311,1.435,8.184,6.088,17.162,13.4,21.872v13.2c-6.265-2.865-7.873-10.575-11.159-16.383-9.794-17.3-9.491-17.17-24.246-5.553-31.5,24.789-60.733,53.771-94.136,75.052-14.378,9.159-28.5,18.908-42.907,27.991-6.839,4.317-7.149,8.708-2.751,16.195q31.414,53.488,62.06,107.64c3.233,5.718,5.659,5.882,10.146,2.95,28.867-18.875,57.854-37.463,86.751-56.262,5.25-3.416,9.767-8.724,16.242-8.691v24.191a20.086,20.086,0,0,0-4.271,1.589c-21.281,13.639-42.787,26.81-63.708,41.246-13.851,9.551-28.845,16.587-41.735,28.294-4.052,3.676-5.873,5.766-2.564,12.664,23.513,49.043,52.587,93.4,78.847,140.119,3.022,5.374,5.934,5.178,10.455,1.3,7.22-6.193,13.548-14.632,22.976-16.309v8.8c-3.7-.664-6.066,2.105-8.624,4.717-5.163,5.277-14.262,7.423-15.432,15.075-1.182,7.757,6.487,13.942,10.294,20.716,3.86,6.88,6.125,15.933,13.762,18.865v19.792c-2.969,0-3.939-3.039-5.278-5.341q-27.769-47.9-55.469-95.854c-19.867-34.338-40.71-67.876-57.9-104.4-3.368-7.16-6.835-8.724-13.1-4.752-12.262,7.766-24.915,14.624-37.413,21.833-24.724,14.276-49.411,28.636-74.188,42.768q-66.129,37.734-132.387,75.151c-5.291,2.981-5.718,6.013-2.554,11.557,7.887,13.82,15.671,27.731,23.124,41.9,5.913,11.241,14.745,4.778,22.231,5.916,5.411.835,6.532-5.374,7.763-10.241,4.9-19.372,14.838-33.717,30.33-40.778,36.29-16.539,72.846-32.194,109.3-48.168,2.676-1.171,6.453-3.923,7.657.919,1.178,4.735-3.339,5.061-5.976,6.232-34.438,15.271-68.815,30.728-103.366,45.6-16.194,6.97-27.08,19.6-32.3,39.525-1.2,4.6-1.5,7.881,3.988,7.005,28.234-4.49,56.388-9.324,83.375-21.136,8.664-3.793,16.352-1.893,22.6,6.972,5.2,7.388,7.893,16.3,10.986,25.016,2.106,5.949,3.459,12.608,9.2,15.516,16.08,8.143,31.923,17.073,48.271,24.313,8.347,3.7,12.071,9.831,12.8,19.825H931.61c.509-7.4-3.679-10.231-8.3-12.583-9.969-5.078-19.765-10.781-29.974-15-16.688-6.889-30.415-16.981-34.548-39.762a38.438,38.438,0,0,0-1.506-5.162c-3.258-9.946-10.138-14.467-18.57-11.8-6.967,2.2-13.78,5.137-20.768,7.193-4.5,1.326-5.688,3.668-4.76,9.33,1.634,9.969,2.314,20.169,3.626,30.227.674,5.193-1.469,7.718-5.106,8.413-2.334.443-2.944-2.039-2.45-4.48,2.143-10.707-1.817-20.749-2.157-31.138-.24-7.421-2.969-8.551-8.1-7.224-25.55,6.619-51.348,10.551-77.519,10.4-3.01-.025-6.316-.468-7.995,3.472-4.495,10.559-12.893,12.033-21.195,14.156-32.835,8.362-66.115,12.942-99.39,17.6-9.285,1.3-12.6,7.931-9.375,18.5.822,2.678,3,4.652,2.928,7.864H579.22c-.279-1.418-.647-2.818-.822-4.261-2.924-23.82.175-28.162,16.767-30.669,20.448-3.08,41.07-4.381,61.374-9,13.813-3.138,27.7-5.776,41.461-9.2,10.463-2.6,13.009-10.681,7.208-21.339-7.291-13.4-14.93-26.533-21.867-40.19-3.077-6.061-6.05-7.2-10.933-3.678-19.095,13.8-39.562,24.527-58.271,39.271-24.915,19.636-50.514,38.01-75.317,57.851-8.817,7.053-19.1,11.485-26.466,21.217H465.37c1.3-6.316,6.424-6.3,9.953-7.855,24.744-10.88,47.374-26.436,69.414-43.744,37.584-29.516,74.92-59.612,115.3-83.459,2.908-1.719,8.286-2.169,7.122-8.059-1.154-5.842-2.938-12.591-8.416-14.713-8.687-3.358-17.881-4.694-26.669-1.63-40.946,14.278-82.046,28.057-122.571,44-32.906,12.942-65.973,18.012-100.157,12.058-22.133-3.859-43.066-10.567-54.838-37.183-1.211-2.736-2.651-4.539-5.753-3.063-15.89,7.568-32.631,13.049-44.922,28.974-6.375,8.258-12.757,16.653-21.462,21.47-9.558,5.276-16.951,13.369-22.986,23.839-8.182,14.171-7.33,25.738,4.379,35.493,16.883,14.067,35.022,25.076,55.416,29.582,2.1.466,3.144,1.851,3.429,4.292H304.538c-.525-5.218-4.267-5.333-7.2-6.947-15-8.258-30.4-15.457-42.763-29.687-4.607-5.307-5.755-10.765-4.662-17.31,2.519-15.04,8.888-28.687,19.753-35.231,18.5-11.142,30.633-31.613,47.9-44.155,1.272-.924,2.816-1.825,2.267-4.1a3.731,3.731,0,0,0-3.408-3.047,59.119,59.119,0,0,0-10.821-.155c-20.88,2.548-41.8,4.719-62.78,3.974-4.562-.163-10.62,7.242-13.552-1.09-1.858-5.276-.586-12.254-.468-18.463.041-2.131,1.015-4.22,1.243-6.366,2.531-23.952-5.187-49.527-31.362-46.447-5.018.59-10.282.975-15.133-1.688-7.2-3.956-11.753.221-15.783,7.021-13.208,22.274-29.489,39.9-50.2,51.731-8.14,4.644-17.213,4.012-26.221,8.862,3.952,3.36,7.389,2.861,10.3,1.894,9.226-3.073,18.574-.893,27.825-1.769,6.644-.631,7.444,3.727,6.8,10.215-1.174,11.893-10.53,11.4-16.334,16.251-2.074,1.738-4.7,2.744-6.013-1.121-1.079-3.172,1.26-4.383,3.067-5.7,3.84-2.81,8.626-4.022,13.271-10.823-12.449,0-22.559.058-32.674-.031-2.989-.025-6.764.86-8.825-.95-9.244-8.128-19.61-5.071-29.63-5.62-10.524-.583-20.876,2.072-31.384,2.523-17.781.771-34.766,7.634-50.8,16.564-24.048,13.4-47.118,29.49-71.369,42.277-26.411,13.934-53.629,25.665-80.642,37.863-16.558,7.479-32.412,17.4-49.895,21.732v-17.6h1.87c-.22,4.686.61,7.143,5.108,4.628,4.906-2.737,10.04-4.857,15.083-7.217,56.9-26.622,114.484-51.174,168.378-86.626a141.128,141.128,0,0,1,74.918-23.61c15.111-.443,30.46-1.049,45.687-3.465,24.978-3.964,45.882-16.457,62.776-38.7,11.79-15.531,22.532-32.242,34.334-47.765,4.876-6.407,3.885-10.248-.9-15.179-33.919-34.915-66.032-72.259-98.588-109-2.187-2.466-4.273-5.546-6.9-6.873-28.826-14.589-56.775-31.629-86.153-44.7-17.189-7.642-34.784-14.1-51.263-23.985-28.767-17.254-58.763-26.4-91.217-24.412-24.321,1.492-48.752.3-73.131.3v-15.393c.613-.008,1.227-.008,1.844-.008,1.133,6.7,5.59,4.333,8.768,4.358q41.018.259,82.034.066c20.483-.091,39.847,6.733,58.24,16.343,21.785,11.379,43.544,22.618,65.995,31.932,6.1,2.538,9.086,1.342,11.637-6.007,8.4-24.181,17.333-48.1,25.947-72.177,4.7-13.122,14.382-22.419,18.444-35.992l.033-.074c6.607-7.382,14.3-13.558,18.037-24.117l.037-.074c6.6-7.38,14.293-13.558,18.035-24.117l.031-.074c6.005-6.652,13.131-12.074,16.232-21.912l.033-.074c6.607-7.38,14.3-13.565,18.039-24.117l.033-.074c6-6.659,13.129-12.082,16.232-21.92l.033-.074c6.6-7.382,14.3-13.558,18.039-24.117l.033-.066c6.005-6.651,13.125-12.082,16.226-21.92l.037-.074c4.794-5.506,9.635-10.961,14.348-16.556,1.414-1.68,3.911-3.472,2.438-6.267-1.213-2.317-3.86-1.293-5.921-1.416l-.067-.074c-1.04-8.306-7.718-9.479-11.869-13.835-1.717-1.8-3.26-3.762-1.7-6.448,1.29-2.228,3.244-1.2,4.874-.181a35.056,35.056,0,0,1,3.852,2.818c7.3,6.176,9.434,5.547,11.259-5.013a189.23,189.23,0,0,1,7.82-30.081c6.6-19.03,18.159-34.291,25.532-52.625l.033-.064c3.579-1.917,4.725-6.455,7.108-9.65,2.55-3.424,3.994-12.387,8.51-8.322,5.13,4.618-1.642,9.378-3.866,13.13-17.606,29.679-35,59.34-40.972,96.391-.845,5.244-1.526,7.833,3.38,10.961,32.5,20.741,61.934,47.47,92.817,71.391,9.877,7.652,19.545,15.712,29.257,23.674,3.384,2.777,6.481,4.228,9.057-1.171,4.517-9.477,10.795-17.916,13.345-28.531,11.4-47.455,31.276-91.839,34.349-142.331,1.235-20.293,5.767-40.026,6.369-60.62.527-17.85,1.308-35.715,1.494-53.6.031-3.408.385-7.26,3.893-7.364,4.259-.14,2.883,4.432,3.223,7.38,1.1,9.594-2.194,18.768-1.787,28.312,1.634,38.238-6.723,75.191-9.908,112.815-1.9,22.47-10.366,42.646-16.4,63.568-8.414,29.147-14.079,59.89-29.809,85.3-2.641,4.276-1.612,7.405,1.833,9.945a121.021,121.021,0,0,0,16.169,19.708c15.026,44.654,36.958,84.269,60.281,122.9,3.994,6.621,5.834,3.991,9.269-.932,16.285-23.363,30.161-49.175,48.345-70.573,3.9-4.595,2.948-7.25-1.518-9.427C462.159,1015.352,460.186,1014.491,458.228,1013.59ZM694.885,1275.48c.295,2.492-.136,6.357,1,7.25,11.556,9.044,18.259,21.332,18.682,38.306a5.635,5.635,0,0,0,.816,1.94c4.872,10.485,9.92,20.866,14.557,31.5,2.57,5.9,4.7,8.06,10.347,3.8,29.941-22.584,30.039-22.388,41.005-62.6,1.231-4.506,2.33-9.077,3.71-13.517,4.8-15.467,6.7-31.751,9.012-47.872.8-5.588,1.073-12.878-5.767-13.533-13.139-1.278-26.325-1.713-39.493-2.426-2.849-.156-6.07.476-6.373,4.447-1.083,14.206-9.558,21.546-17.944,28.426-9.857,8.1-17.889,19.53-29.571,24.3-.531-5.046,1.829-8.339,4.768-11.109,6.4-6.02,12.989-11.763,19.309-17.906,5.58-5.432,12-9.691,15.608-17.89,2.049-4.653,3.268-9.413.142-13.148-11.89-14.189-14.893-33.955-22.394-50.871-7.108-16.007-10.313-34.414-20.839-48.34-24.205-32.029-55.794-43.761-89.748-49.8-20.79-3.694-42.9-.074-61.639-15.851-2.908-2.441-6.125-1.99-7.4,2.474-5.4,18.883-15.339,35.47-17.429,56.13-2.7,26.706-6.436,53.271-10.29,79.779-3.313,22.783-1.89,46.365-10.508,68.32-9.916,25.253-16.708,52.45-29.53,75.912-16.206,29.646-36.9,51.984-68.392,52.6-15.107.3-23.592,13.049-32.106,25.123-4.719,6.693-5.187,14.869-.824,23.356,7.252,14.115,18.715,21.126,30.735,24.929,29.711,9.4,59.763,10.5,89.645-.3q62.148-22.46,124.372-44.637c15.807-5.669,31.384-12.606,48.444-7.1a16.507,16.507,0,0,0,13.3-1.212c18.226-10.411,36.624-20.283,53.477-34.012,6.292-5.127,5.645-9.019,2.419-15.966-6.634-14.261-15.634-27.515-17.874-43.982-1.223-9.027-4.214-14.67-10.032-19.3a34.475,34.475,0,0,1-6.054-6.529C688.084,1280.823,688.869,1277.045,694.885,1275.48ZM286.429,1051.166c-5.4,0-8.534.649-11.4-.138-4.988-1.369-14.519,4.407-13.988-4.752.442-7.675,10.4-4.071,15.776-3.177,8.721,1.441,17.571,3.406,25.847.138,16.55-6.537,32.727-14.466,49.014-21.969,2.409-1.115,6.036-2.688,4.316-6.8-5.407-12.95-8.953-27.2-16.725-38.541-14.517-21.176-34.188-34.357-52.762-49.119-28.157-22.363-55.1-46.995-84.58-66.9-5.96-4.03-9.92-3.974-14.584,2.63-11.145,15.77-22.791,31.023-34.33,46.381q-40.095,53.365-80.243,106.657C65.708,1025,59,1034.833,52.257,1044.6c-19.926,28.836-28.826,64.65-41.88,97.86-4.151,10.551-2.778,16.284,6.6,19.832,6.56,2.482,12.867,6.143,19.04,9.895,16.334,9.938,35.016,14.525,49.244,29.065,18.363,18.766,35.842,38.82,53.566,58.505,16.837,18.7,33.38,37.764,50.738,55.794,6.039,6.267,9.533,4.7,14.291-.148,15.392-15.7,30.487-31.858,46.387-46.742,5.37-5.03,5.571-9.167,3.406-15.564q-6-17.732-11.65-35.651c-.842-2.655-1.679-6.2,1.656-7.234,2.641-.81,3.433,2.408,4.192,4.694,3.268,9.823,6.316,19.743,9.633,29.539,4.46,13.173,5.305,13.3,15.365,6.333,19.313-13.377,39.08-25.83,58.025-39.927,17.587-13.09,35.1-26.525,48.3-46.709,9.033-13.82,15.551-29.506,23.845-43.784,4.308-7.415,3.86-12.56-.452-19.186-11.745-18.063-21.781-37.583-32.08-56.883-10.459-19.594-10.354-18.66-28.631-10.625C323.151,1041.894,305.405,1055.722,286.429,1051.166Zm249-24.919c.977,6.12-1.3,11.682,2.857,14.016,11.023,6.185,20.713,15.8,34.121,15.607,23.509-.354,46.428,5.873,69.047,13.031,21.265,6.726,37.961,23.078,53.511,41.042,4.363,5.036,7.759,5.512,12.559,1.6,5.987-4.865,12.232-9.289,18.5-13.63,9.89-6.85,25.395-1.507,30.338,10.837q8.677,21.7,16.476,43.907c6.072,17.2,7.92,35.913,12.508,53.666,2.131,8.24,11.666,12.156,16.232,6.046,19.333-25.878,42.6-45.922,65.969-65.681,6.982-5.908,6.32-10.248,2.181-17.572-18.212-32.243-36.459-64.469-54.026-97.228-57.8-107.778-118.869-212.829-178.485-319.1-2.251-4.014-4.66-7.685-8.422-9.584-14.452-7.341-29.249-13.051-44.953-14.894-6.282-.736-8.156,2.049-8.443,9.78-.688,18.547-1.553,37.191-3.836,55.532-4.88,39.255-9.9,78.5-19.569,116.634-8.245,32.53-17.828,64.273-33.209,92.921-5.569,10.378-11.853,20.207-18.043,30.056-2.741,4.356-2.712,6.552,1.99,8.362,7.729,2.973,15.38,6.331,22.882,10.06,4.373,2.179,7.287.893,10.2-3.228,9.505-13.418,21.289-23.585,33.1-33.693,1.724-1.474,3.571-3.808,5.5-1.418,2.377,2.934.283,5.6-1.571,7.333-5.938,5.57-12.655,10.108-17.968,16.424C547.242,1006.144,536.245,1012.551,535.429,1026.247ZM881.1,730.361c-1.882,1.392-4.208,3.016-6.44,4.809Q804.8,791.434,736.305,850.108c-5.718,4.89-5.437,8.881-1.911,15.049,11.121,19.512,22.032,39.2,32.906,58.923q55.473,100.61,110.86,201.295c2.6,4.727,4.815,9.019,10.624,4.808,23.741-17.193,49.195-30.743,72.2-49.486,24.948-20.324,49.468-41.424,74.521-61.544,6.109-4.906,6.092-8.8,3.048-15.933-10.7-25.067-24.071-47.995-37.505-70.874-22.31-38.01-45.138-75.568-67.245-113.759-15.727-27.154-30.617-55.031-45.9-82.581C886.383,733.261,884.812,730.526,881.1,730.361Zm-12.541-352.6c-9.438-1.721-22.463,4.768-35.808,8.772-18.93,5.694-18.827,5.784-15.463,28.861.521,3.587,2.371,9.231-1.978,10.3-3.807.932-4.015-5.071-4.308-8.118-1.614-16.727-7.146-31.285-14.5-45.375-4.129-7.922-6.9-9.266-13.534-3.465-27.058,23.616-54.754,46.159-81.824,69.76-16.314,14.222-33.342,27.91-47.433,45.031-14.067,17.079-27.117,36.035-36.742,57.808q-11.73,26.542-24.176,52.617a156.608,156.608,0,0,0-15.5,75.38c.216,5.3,1.294,7.757,6.121,8.184,16.584,1.441,32.434,6.848,47.578,15.065,4.08,2.22,6.817,1.981,10.482-1.591a904.716,904.716,0,0,1,85.39-72.888c15.477-11.724,24.168-27.673,27.686-48.692,3.13-18.687,12.539-32.178,24.968-42.425,12.657-10.437,25.989-19.662,39.076-29.312,4.607-3.4,8.836-8.289,14.3-9.027,14.564-1.95,29.174-3.874,43.805-4.531,9.674-.433,17.508-4.578,24.2-12.392,8.679-10.151,17.018-20.726,25.6-31.005,7.435-8.922,12.049-19.071,9.33-32.186-3.476-16.778-14.93-24.027-26.7-27.484C897.668,377.683,885.3,378.879,868.555,377.757ZM746.436,195.7c4.733.19,9.145,1.058,12.293,4.457,14.961,16.195,31.351,30.5,44.409,49.249,8.286,11.893,8.276,20.151-2.139,28.679-12.183,9.971-24.062,21.291-37.853,27.444-20.337,9.06-37.36,24.705-55.872,37.428-23.448,16.113-47.25,30.9-64.7,57.342-4.865,7.372-12.258,12.868-17.351,20.52-8.4,12.624-16.961,24.476-30.4,29.6a76.6,76.6,0,0,0-18.812,10.462c-17.844,13.509-35.153,28.065-53.1,41.368-7.358,5.455-11.359,12.354-12.578,22.445-2.173,17.989-4.615,35.928-6.933,53.895-.908,7.019,2.159,9.592,7.4,10.977q29.854,7.889,59.575,16.531c4.629,1.352,7.283.107,9.509-5,6.772-15.492,14.085-30.636,20.719-46.21,17.793-41.77,41.644-76.716,73.068-104.845q37.709-33.754,76.153-66.174c16.922-14.309,33.049-30.089,52.3-40.49,23.912-12.926,48.544-23.478,72.737-35.447,10.96-5.415,11.532-7.733,3.467-17.555q-32.875-40.032-65.775-80.033c-12.763-15.49-24.119-32.481-35.445-49.494-4.876-7.316-9.118-11.264-16.91-3.923-9.688,9.132-20.528,16.432-30.8,24.657-10.791,8.642-21.452,17.514-32.265,26.123-6,4.776-2.765,10.289-.8,15.278,2.535,6.422,6.188,2.416,8.986.245,7.859-6.071,15.5-12.565,23.24-18.865A39.651,39.651,0,0,1,746.436,195.7ZM948.609,1268.558c-.789-1.581-1.626-3.513-2.637-5.308-4.77-8.421-9.588-16.8-14.378-25.214-15.39-27.024-30.894-53.951-46.082-81.148-4.562-8.184-8.593-9.8-15.548-3.292-14.741,13.794-30.487,26.006-45.067,40.032-13.237,12.738-29.56,23.911-25.851,49.978.043.319-.216.689-.254,1.041-3.04,28.162-12.156,54.211-19.272,80.934-1.8,6.733-3.583,14.057-9.206,18.292-30.869,23.239-59.823,50.411-93.82,67.262-2.426,1.2-8.555,1.253-5.047,8.462,2.841,5.85,4.52,12.591,12.744,7.766,48.477-28.475,97.143-56.466,145.8-84.467,26.089-15.014,52.38-29.5,78.41-44.66,12.193-7.1,24.669-13.647,36-22.806C946.357,1273.851,948.713,1272.6,948.609,1268.558ZM433,1194.375c15.369-.385,30.352-4.121,45.215-8.217,13.253-3.653,25.11-9.732,25.019-30.384-.03-6.5,1.146-13.016,1.939-19.495,2.833-23.06,5.276-46.2,14.968-67.075a179.965,179.965,0,0,0,8.319-23.068c4.709-15.4,1-24.688-11.546-30.129-5.657-2.457-11.326-4.873-16.932-7.487-4.308-2-8.406-2.317-11.395,2.622-10.008,16.564-23.983,28.7-33.934,45.332-13.914,23.274-30.468,44.023-43.54,68.165-8.734,16.113-15.286,34.045-26.561,48.094-3.667,4.57-.452,6.619,2.421,7.724C402.055,1186.3,416.658,1194.6,433,1194.375ZM232.609,1428.437c-.733,4.956.649,7.873,5.144,7.57,17.653-1.173,35.307-2.278,52.956-3.523,10.142-.713,20.888-3.956,30.118,1.451,5.2,3.047,8.626,2.859,13.125.672,3.626-1.754,7.22-3.943,11-4.785,4.222-.95,6.353-3.106,6.809-8.388.965-11.182,6.092-19.415,12.814-26.739,6.054-6.586,11.678-13.769,17.288-20.937,8.787-11.215,10.824-27.279,3.789-36.331-7.484-9.633-17.718-7.372-27.231-6.374-16.688,1.754-33.333,4.032-50.009,5.98-20.56,2.4-41.212,3.974-61.653,7.431-6.8,1.148-12.307-.163-18.2-3.022-5.553-2.7-9.379-7.906-13.245-12.985-3.474-4.562-6.387-5.145-10.791-1.245-8.616,7.634-15.4,17.45-22.744,26.583-3.488,4.333-1.64,7.79,3.064,7.314,7.621-.761,14.846,2.4,22.384,2.441,11.389.074,21.606,10.928,25.161,24.043C236.135,1401.42,233.9,1414.848,232.609,1428.437Zm136.162-109.221c9.157,1.59,19.3,1.033,25.743,14.074,5.74,11.615,6.21,22.2.751,33.66a47.464,47.464,0,0,0-2.293,7.126c-.908,3.138-.232,5.366,2.786,4.513,10.663-3.047,21.389-4.135,31.679-10.878,17.123-11.216,27.208-29.743,37.255-47.979,5.732-10.4,13.436-24.305-.295-36.191-1.31-1.14-1.807-3.744-2.57-5.735-9.232-24.051-24.321-42.376-39.692-60.471-4.037-4.76-6.583-3.645-8.807,2.121-2.894,7.512-7.9,12.369-13.54,16.958-23.206,18.865-46.3,37.968-69.084,57.571-6.324,5.448-13.257,10.06-18.587,17.244-2.782,3.742-5.547,7.626-3.233,12.517,1.994,4.218,5.9,2.057,9.076,1.672C334.617,1323.393,351.275,1321.354,368.771,1319.216Zm-131.048,15.123c21.775-2.327,39.648-4.244,57.53-6.127,3.061-.32,5.279-1.876,5.537-5.85.712-11.018,6.792-18.054,13.3-23.658,26.718-23.01,53.462-46.019,80.976-67.565,8.256-6.463,12.433-15.236,17.26-24.328,3.138-5.923.966-8.143-3.663-9.782-8.064-2.849-16.275-5.422-23.969-9.421-5.924-3.078-10.264-1.825-14.828,2.868-21.254,21.839-45.319,38.451-69.988,53.549-28.995,17.735-54.093,41.77-78.253,67.582-1.671,1.787-4.263,3.671-1.734,7.135C225.788,1326.827,232.175,1333.9,237.723,1334.339ZM694.791,242.256a35.851,35.851,0,0,0-5.051,3.024c-20.035,16.1-39.955,32.4-60.076,48.323-4.1,3.243-2.367,5.234-.3,8.454,11.055,17.219,22.133,34.447,32.835,52,3.4,5.57,6.644,4.44,10.919,2.408,20.05-9.518,37.273-24.87,55.17-38.886,4.768-3.742,5.156-7.364,2.4-12.565Q715.358,276,700,247.016C698.912,244.985,698.085,242.266,694.791,242.256Zm52-39.156c-.908.328-2.36.763-3.762,1.385-14.307,6.341-25.727,18.489-38.36,28.2-3.048,2.352-1.815,4.979-.539,7.446,10.844,20.971,21.8,41.867,32.625,62.855,2.053,3.974,4.1,5.038,8.119,3.457,19.7-7.766,36.547-21.749,53.385-35.692,4.6-3.808,5.846-8.642,1.066-15.4-12-16.956-26.807-29.949-40.256-44.833C755.693,206.788,752.067,203.665,746.79,203.1ZM561.152,762.423c-.509-2.136,3.205-5.667-1.062-7.805-4.872-2.441-14.362,3.088-15.31,9.338-4.87,31.866-10.081,63.675-14.283,95.671A138.32,138.32,0,0,1,509.3,917.69c-15.536,24.125-30.58,48.725-45.815,73.137-3.7,5.914-5.305,11.878.995,16.776,5.171,4.037,9.786,9.3,16,.179C504.77,972.1,525.849,934.188,538.02,889.9A741.367,741.367,0,0,0,561.152,762.423ZM764.41,1211.708c4.2,0,7.505.041,10.815-.008,3.559-.049,4.583-1.942,3.773-6.341a408.154,408.154,0,0,0-27.967-92.033c-4.869-10.977-14.808-13.993-23.887-7.636-6.233,4.368-12.034,9.675-18.375,13.763-4.234,2.727-4.479,5.267-2.6,10.272,8.579,22.913,16.659,46.1,25.279,68.983,1.974,5.244,5.272,10.674,10.622,10.584C749.924,1209.152,757.41,1213.263,764.41,1211.708Zm-267.062-11.649c1.542-11.534-1.08-14.294-8.162-10.8-19.482,9.617-39.951,11.771-60.737,11.534-2.776-.033-6.447-1.614-7.853,3.03-1.253,4.154,1.431,6.693,3.492,9.372,9.228,11.977,19.777,22.379,27.764,35.83,6,10.1,10.982,20.84,15.907,31.728,4.491,9.928,7.887,9.495,11.989-.623C490.318,1254.043,497.243,1226.74,497.347,1200.059Zm41.495-947.817c-.366-.794-.785-1.744-1.241-2.678-6.906-14.131-13.652-28.385-20.8-42.335-3.661-7.151-9.189-7.782-14.883-3.7-6.469,4.628-12.724,9.7-19.044,14.63-4.835,3.76-6.253,8.077-2.711,14.614q10.394,19.218,19.93,39.123c2.4,5.03,4.743,5.7,8.675,3.072,8.949-6,18.009-11.755,27.021-17.621C537.415,256.289,538.944,255.118,538.842,252.242ZM463.93,977.235c9.509-14.915,19.3-29.578,28.441-44.816,7.737-12.911,16.835-24.592,22.892-39.074,2.316-5.539,1.638-6.832-2.912-7.528-8.282-1.278-16.763-1.835-24.732-4.556-6.715-2.284-8.518,1.008-9.983,7.57-2.664,11.952-5.808,23.748-8.447,35.707C465.436,941.568,460.711,958.461,463.93,977.235Zm159-687.367c1.256-.959,2.031-1.517,2.778-2.123q31.108-25.2,62.237-50.37c2.6-2.09,3.467-4.76,3.3-8.341-.486-10.427-5.059-12.68-13.491-6.224-19.765,15.138-37.993,33.34-59.939,44.138-2.161,1.064-7.332.67-4.64,6.634C615.842,279.472,618.45,285.625,622.933,289.868Z" transform="translate(225.049 0.057)" fill="#fff"/><path d="M-224.9,140.851q.9-.035,1.8,0c.02,3.136,1.182,5.358,3.553,6.611l.037.074a158.417,158.417,0,0,0,25.263,37.313l.037.074a158.427,158.427,0,0,0,25.263,37.305l.037.082c1.166,7.316,4.078,7.43,7.755,2.515,8.726-11.656,14.494-25.492,19.421-39.91l.03-.033h5.3l.02.025c.46,5.249-1.276,9.559-3.362,14.065-3.87,8.355-8.805,16.04-11.226,25.344l-1.717,2.115c-7.792,5.725-8.262,12.051-3.447,21.79,8.19,16.58,17.148,33.414,20.709,52.254,9.535,50.413,17.746,101.2,26.13,151.925,4.924,29.753,9.737,59.554,22.681,86.005,35.637,72.832,71.736,145.33,107.218,218.276,4.139,8.512,7.389,9.691,13.974,4.857,24.687-18.1,49.781-35.4,74.314-53.8,43.294-32.474,87.6-62.52,135.505-83.7,20.544-9.085,41.792-15.843,62.776-23.445,5.5-2,7.183-4.694,4.562-11.8-8.107-22-15.713-44.285-23.322-66.551-.916-2.678-3.541-6.782-.183-8.739,3.844-2.237,4.67,2.449,5.867,5.89,7.995,22.862,16.36,45.553,24.05,68.573,2.283,6.84,4.66,8.141,10.718,6.962,33.114-6.423,66.256-12.264,99.984-12.328,19.867-.041,39.568,2.948,59.412,2.645,5.777-.089,8.99-1.942,9.721-9.452,1.612-16.622,3.138-33.291,5.639-49.733,1.6-10.542,3.268-21.347,12.4-27.745,28.332-19.833,53.943-45.4,84.976-59.546a10,10,0,0,0,5.545-5.333c.572-.705,1.152-1.41,1.732-2.113v0c9.9-8.634,15.225-22.748,25.005-31.363,7.893-6.947,14.151-15.8,21.037-23.936,5.661-6.677,6.168-12.707.777-21.291-14.511-23.1-30.7-44.652-43.262-69.6-7.612-15.113-16.094-16.834-28.177-7.217-10.8,8.594-21.639,17.112-32.442,25.713-43.215,34.4-88.222,65.149-132.9,96.582-2.837,1.991-7.108,7.97-9.867,1.965-2.367-5.152,3.96-5.857,6.286-8.7.324-.392.267-1.253.4-2-2.061-2.892-5.093-3.457-7.849-4.8-16.617-8.085-34.379-13.721-45.9-32.586-6.021-9.854-15.1-13.909-24.276-17.547-4.686-2.36-9.554-4.3-14.03-7.159-11.894-7.6-14.352-20.6-12.85-35.47.944-9.372,2.051-18.727,3.374-28.024,1.526-10.732-2.719-19.046-7.262-27.263-12.063-21.813-17.516-46.055-17.984-72.137a31.789,31.789,0,0,1,.226-4.366,18.2,18.2,0,0,1,1.227-3.105c3.024,6.578,3.63,13.222,3.775,19.537.381,16.826,3.006,33.5,11.546,46.268,14.244,21.314,13.078,44.637,10.071,68.942-2.808,22.691,4.723,34.322,23.659,36.3,11.981,3.424,22.013,10.567,30.11,22.06,4.871,6.914,10.2,13.369,17.589,16.686,10.982,4.941,21.846,10.239,32.735,15.474,4.086,1.965,7.436,1.958,11.64-1.14,24.4-17.947,49.142-35.208,73.675-52.893,25.835-18.628,50.974-38.609,75.8-59.162,1.939-1.6,4.8-2.76,3.174-6.537-1.4-3.243-3.907-2.736-6.328-1.573a12.641,12.641,0,0,1-8.9.524c-13.652-3.6-26.728-3.08-38.952,6.562a149.581,149.581,0,0,1-17.368,11.592c-7.041,4.1-13.046,3.48-17.478-5.939C488.3,262.4,481.644,249.351,474.774,236.5c-3.126-5.848-4.648-11.738-3.746-18.568.568-.7,1.137-1.387,1.709-2.082l0-.008c8.87-3.179,15.459-11.06,23.065-16.811,12.224-9.231,20.121-7.495,27.825,7.407,6.872,13.286,13.5,26.762,20.259,40.139,1.4,2.769,2.533,6.071,5.767,6.257,6.884.394,13.536,2.785,20.544,2.606,6.445-.165,8.141-2.466,5.6-9.765-5.024-14.459-9.835-29.032-14.7-43.58-1.085-3.253-3.549-7.609.083-9.6,3.966-2.171,4.239,3.694,5.7,6.479a37.178,37.178,0,0,1,1.648,5.079q8.4,24.22,16.839,48.43c3.081,8.8,8.286,12.754,16.4,11.649a56.214,56.214,0,0,0,27.007-11.3c31.351-24.394,62.192-49.748,93.366-74.487,4.786-3.8,4.817-6.988,1.783-12.346-4.6-8.1-8.15-17.088-12.856-25.082-10.1-17.154-16.617-37.527-30.485-51.288a241.787,241.787,0,0,1-51.3-75.4C627.252,9.6,626.01,3.8,620.828,2.328c0-.736,0-1.474,0-2.21H-223.1c-1.551-.427-2.157.3-1.805,2.195Z" transform="translate(225 0)" fill="#fafbfc" stroke="rgba(225,229,235,0.42)" stroke-miterlimit="10" stroke-width="1"/><path d="M-224.951,809.528c.615-.008,1.229-.008,1.846-.008,1.133,6.7,5.59,4.333,8.768,4.358q41.018.259,82.034.066c20.483-.091,39.847,6.733,58.24,16.343C-52.279,841.666-30.52,852.9-8.069,862.219c6.1,2.538,9.086,1.342,11.637-6.007,8.4-24.181,17.333-48.1,25.947-72.178,4.7-13.122,14.382-22.419,18.446-35.992l.031-.074c6.607-7.382,14.3-13.558,18.037-24.116l.037-.074c6.6-7.38,14.293-13.558,18.035-24.117l.031-.074c6.005-6.652,13.131-12.074,16.232-21.912l.033-.074c6.607-7.38,14.3-13.565,18.039-24.117l.033-.074c6-6.659,13.129-12.082,16.232-21.92l.033-.074c6.6-7.382,14.3-13.558,18.039-24.117l.033-.066c6.005-6.651,13.125-12.082,16.226-21.92l.037-.074c4.794-5.506,9.635-10.961,14.348-16.556,1.414-1.68,3.911-3.472,2.438-6.267-1.213-2.317-3.86-1.293-5.921-1.416l-.067-.074c-1.04-8.306-7.718-9.479-11.869-13.835-1.717-1.8-3.26-3.762-1.7-6.448,1.29-2.227,3.244-1.2,4.874-.181a35.056,35.056,0,0,1,3.852,2.818c7.3,6.176,9.434,5.547,11.259-5.013a189.226,189.226,0,0,1,7.82-30.081c6.6-19.03,18.159-34.291,25.532-52.625l.033-.064c3.579-1.917,4.725-6.455,7.108-9.65,2.55-3.424,3.994-12.387,8.51-8.322,5.13,4.618-1.642,9.378-3.866,13.13-17.606,29.679-35,59.34-40.972,96.391-.846,5.244-1.526,7.832,3.38,10.961,32.495,20.741,61.934,47.47,92.817,71.391,9.877,7.652,19.545,15.711,29.257,23.674,3.384,2.777,6.481,4.228,9.057-1.171,4.517-9.477,10.795-17.916,13.345-28.531,11.4-47.455,31.276-91.839,34.349-142.331,1.235-20.293,5.767-40.026,6.369-60.62.527-17.85,1.308-35.715,1.494-53.6.031-3.408.385-7.26,3.893-7.364,4.259-.14,2.881,4.432,3.223,7.38,1.1,9.594-2.194,18.768-1.787,28.312,1.634,38.238-6.723,75.191-9.908,112.816-1.9,22.47-10.366,42.646-16.4,63.568-8.414,29.147-14.079,59.89-29.809,85.3-2.641,4.276-1.612,7.405,1.833,9.945a121.212,121.212,0,0,0,16.165,19.708h0c15.026,44.654,36.959,84.269,60.281,122.9,3.994,6.621,5.834,3.991,9.269-.932,16.285-23.363,30.161-49.175,48.345-70.573,3.9-4.595,2.948-7.25-1.518-9.427-1.943-.952-3.915-1.812-5.871-2.713q-.861-1.043-1.715-2.088c-.224-4.424-3.227-7.685-3.1-12.435.8-31.957,5.924-62.881,13.982-93.247,4.139-15.6,8.431-31.219,6.973-48.191-3.028-35.192-4.3-70.54-5.293-105.888a99.705,99.705,0,0,0-2.625-21.543c-4.324-17.473-8.081-35.16-12.109-52.739-.635-2.767-2.247-5.972.9-7.594,3.221-1.662,4.058,1.728,4.776,4.579,7.889,31.4,15.6,62.749,16.295,96.055.659,31.367,2.36,62.7,3.5,94.051.185,5.185,1.673,8,6.282,8.592a290.567,290.567,0,0,1,29.339,4.826c4.513,1.057,5.751-.279,6.444-5.333,1.809-13.28,4.086-26.469,6-39.731q5.973-41.422,11.76-82.884c.572-.7,1.141-1.383,1.713-2.08,3.915-.066,7.9-.728,11.725-.058,7.218,1.262,10.661-2.62,11.271-10.885.849-11.618,1.123-23.315,2.322-34.872,2.656-25.665-.576-51.978,5.659-77.182,1.3-5.251-.039-7.759-3.905-8.792-35.942-9.541-71.477-21.543-108.7-22.485-55.756-1.4-110.724,3.907-164.764,22-43.1,14.433-84.734,33.691-123.641,59.849C120.083,422.108,70.652,460.478,19.827,495.9c-56.834,39.615-111.1,84.294-166.441,126.849-23.094,17.751-45.994,36.175-73.2,43.835-2.1.589-3.093,1.95-3.309,4.407h-1.831Z" transform="translate(225.048 287.905)" fill="#fafbfc" stroke="rgba(225,229,235,0.42)" stroke-miterlimit="10" stroke-width="1"/><path d="M640.32,352.8c-8.05-7.283-17.8-12.934-23.8-22.182-12.918-19.947-29.5-35.233-44.651-51.756-14.323-15.612-27.847-32.611-42.049-48.315-15.725-17.382-33.138-33.406-46.363-54.252-1.638-2.581-3.885-4.579-5.822-6.891-7.547-8.978-15.31-13.843-24.657-3.055-1.6,1.851-4.442,2.072-6.674,3.154-23.436,11.344-47.486,20.881-70.028,34.9-1.962,1.22-5.74,1.179-4.745,5.168,2.128,8.5,6.8,15.434,11.412,22.1,2.94,4.243,6.974.557,10.119-.433,23.483-7.438,46.686-15.105,71.589-10.732,12.437,2.187,24.53,2.53,35.68,11.575,13.729,11.142,18.627,25.1,13.689,44.326a42.635,42.635,0,0,1-9.291,18.316c-6.825,7.733-13.97,15.3-19.71,24.165-11.855,18.285-28.071,21.34-45.595,23.216-13.776,1.476-28.358-1.523-41.125,8.365-11.658,9.019-23.411,17.875-35.332,26.352-16.078,11.445-26.919,27.108-30.708,49.954-3.3,19.881-12.919,34.437-27.105,45.563-28.759,22.559-57.129,45.856-84.136,71.529-5.036,4.793-5.447,8.118-2.067,14.263,24.394,44.334,49.553,88,74.947,131.492,4.774,8.168,7.657,7.275,13.371,2.385q46.044-39.42,92.522-78.068c26.321-21.782,53.08-42.761,78.687-65.813,17.887-16.1,36.518-31.029,56.871-42.112,21.374-11.641,43.091-22.388,64.854-32.94,13.337-6.463,26.075-14.843,40.118-19.12Z" transform="translate(651.869 150.898)" fill="#fafbfc" stroke="rgba(225,229,235,0.42)" stroke-miterlimit="10" stroke-width="1"/><path d="M297.388,907.933c-15-8.258-30.4-15.457-42.763-29.687-4.607-5.308-5.755-10.765-4.662-17.31,2.519-15.039,8.888-28.686,19.753-35.231,18.5-11.142,30.633-31.613,47.9-44.155,1.272-.924,2.816-1.826,2.267-4.1a3.732,3.732,0,0,0-3.408-3.047,58.959,58.959,0,0,0-10.821-.155c-20.88,2.548-41.8,4.719-62.78,3.974-4.562-.163-10.62,7.242-13.552-1.09-1.858-5.277-.586-12.254-.468-18.463.041-2.131,1.015-4.22,1.243-6.366,2.531-23.952-5.187-49.527-31.362-46.447-5.018.59-10.282.975-15.133-1.688-7.2-3.956-11.753.221-15.783,7.021-13.208,22.274-29.489,39.9-50.2,51.731-8.14,4.643-17.213,4.012-26.221,8.862,3.952,3.36,7.389,2.861,10.3,1.894,9.226-3.072,18.574-.893,27.825-1.769,6.644-.631,7.444,3.727,6.8,10.215-1.174,11.893-10.53,11.4-16.334,16.251-2.074,1.738-4.7,2.744-6.013-1.122-1.079-3.17,1.26-4.381,3.067-5.7,3.84-2.81,8.626-4.022,13.271-10.823-12.449,0-22.559.058-32.674-.031-2.989-.026-6.762.86-8.825-.95-9.244-8.128-19.61-5.071-29.63-5.62-10.524-.583-20.874,2.072-31.384,2.523-17.781.771-34.766,7.634-50.8,16.564-24.048,13.4-47.116,29.49-71.369,42.277-26.411,13.934-53.629,25.665-80.642,37.863-16.558,7.479-32.412,17.4-49.9,21.732v17.6c-.352,1.886.254,2.622,1.805,2.2H304.587C304.062,909.662,300.32,909.547,297.388,907.933Z" transform="translate(225 661.942)" fill="#fafbfc" stroke="rgba(225,229,235,0.42)" stroke-miterlimit="10" stroke-width="1"/><path d="M619.05,884.425c-2.971,0-3.94-3.039-5.279-5.341Q586,831.187,558.3,783.231c-19.867-34.338-40.71-67.876-57.9-104.4-3.368-7.16-6.835-8.724-13.1-4.752-12.262,7.766-24.915,14.624-37.413,21.833-24.724,14.276-49.411,28.636-74.188,42.768q-66.129,37.734-132.387,75.151c-5.291,2.981-5.718,6.013-2.556,11.558,7.889,13.82,15.673,27.731,23.126,41.9,5.913,11.241,14.745,4.778,22.231,5.916,5.411.835,6.532-5.374,7.763-10.241,4.9-19.372,14.838-33.716,30.33-40.778,36.29-16.539,72.845-32.194,109.3-48.167,2.676-1.171,6.453-3.923,7.657.919,1.178,4.735-3.339,5.061-5.976,6.232-34.438,15.271-68.814,30.728-103.366,45.6-16.194,6.97-27.08,19.6-32.3,39.525-1.2,4.6-1.5,7.881,3.99,7.005,28.232-4.49,56.385-9.324,83.373-21.136,8.663-3.793,16.352-1.894,22.6,6.972,5.2,7.388,7.893,16.3,10.986,25.016,2.106,5.948,3.459,12.608,9.2,15.515,16.08,8.143,31.923,17.073,48.271,24.313,8.347,3.7,12.071,9.831,12.8,19.825,40.96,0,81.918-.107,122.882.148,4.521.023,5.653-1.229,5.545-6.751C618.842,919.616,619.05,902.013,619.05,884.425Z" transform="translate(673.139 633.024)" fill="#fafbfc" stroke="rgba(225,229,235,0.42)" stroke-miterlimit="10" stroke-width="1"/><path d="M424.673,755.052c2.908-1.719,8.286-2.169,7.122-8.06-1.154-5.842-2.938-12.591-8.416-14.713-8.687-3.358-17.881-4.694-26.669-1.629-40.946,14.278-82.046,28.057-122.571,44-32.906,12.942-65.973,18.013-100.157,12.058-22.133-3.859-43.066-10.567-54.838-37.183-1.211-2.736-2.651-4.539-5.753-3.063-15.89,7.568-32.631,13.049-44.922,28.974-6.375,8.258-12.757,16.653-21.462,21.47-9.558,5.277-16.951,13.369-22.986,23.839-8.182,14.171-7.33,25.738,4.379,35.493,16.883,14.066,35.022,25.076,55.416,29.582,2.1.466,3.144,1.851,3.429,4.292H230.008c1.3-6.316,6.424-6.3,9.953-7.856,24.744-10.879,47.374-26.436,69.414-43.744C346.959,809,384.3,778.9,424.673,755.052Z" transform="translate(460.411 686.712)" fill="#fafbfc" stroke="rgba(225,229,235,0.42)" stroke-miterlimit="10" stroke-width="1"/><path d="M519.018,315.973c-1.764.344-3.667.28-5.276,1.082-16.936,8.454-33.818,17.038-50.721,25.583-18.562,9.388-37.849,17.129-55.514,28.572-21.665,14.033-41.831,31.417-61.661,49.168-4.375,3.923-4.46,8.143-1.636,13.148q19.882,35.2,39.762,70.408c3.4,6.036,6.092,6.578,8.372-1.107,6.642-22.4,15.111-43.809,24.268-64.8,1.728-3.958,2.192-12.789,7.1-10.019,3.763,2.13-.075,9.47-1.793,13.731-9.114,22.656-18.147,45.324-25.627,68.907-2.281,7.176-1.667,12.354,2.031,18.112,5.167,8.046,9.936,16.475,14.8,24.8Q436.582,593.7,460,633.87c1.949,3.325,3.84,6.766,7.893,2.736,8.355-8.291,16.682-16.686,25.5-24.216,8.492-7.258,15.16-17.784,25.633-21.543Z" transform="translate(773.171 297.672)" fill="#fafbfc" stroke="rgba(225,229,235,0.42)" stroke-miterlimit="10" stroke-width="1"/><path d="M523.41,31.029c-3.7-.171-5.16-4.185-6.387-7.019-4.5-10.371-9.961-8.955-17.07-4.121-16.778,11.419-33.789,22.348-50.837,33.159q-52.8,33.46-105.773,66.485c-5.439,3.383-7,7.069-4.316,13.795,4.989,12.493,9.5,25.28,14.629,37.682,10.87,26.3,18.568,54.695,35.916,76.666,8.585,10.872,8.723,11.493,19.006,3.416,25.961-20.405,50.646-43.211,77.714-61.519,12.287-8.306,23.715-18.6,37.116-24.4Z" transform="translate(768.779 15.264)" fill="#fafbfc" stroke="rgba(225,229,235,0.42)" stroke-miterlimit="10" stroke-width="1"/><path d="M519.7,557.035c-6.267-2.867-7.875-10.575-11.161-16.384-9.794-17.3-9.491-17.17-24.247-5.552-31.5,24.789-60.733,53.771-94.136,75.052-14.377,9.159-28.5,18.906-42.906,27.991-6.839,4.317-7.15,8.708-2.751,16.195q31.415,53.488,62.06,107.64c3.233,5.718,5.661,5.882,10.146,2.95,28.867-18.875,57.854-37.463,86.751-56.262,5.25-3.416,9.767-8.724,16.244-8.691Z" transform="translate(772.488 496.416)" fill="#fafbfc" stroke="rgba(225,229,235,0.42)" stroke-miterlimit="10" stroke-width="1"/><path d="M550.451,230.813c-3.235.023-4.471-2.909-6.072-5.661-11.959-20.553-24.2-40.867-35.973-61.576-4.467-7.85-7.877-10.454-15.427-3.762-17.476,15.467-35.822,29.483-53.82,44.079-9.637,7.817-9.58,7.759-2.768,18.86q20.177,32.88,40.183,65.934c1.553,2.589,5.494,6.03,1.878,9.167-3.437,2.973-4.8-2.286-6.581-5.013-20.522-31.384-38.632-65.027-60.82-94.894-8.152-10.977-16.658-21.879-21.791-35.985-9.737-26.739-20.288-53.034-30.295-79.625-2.33-6.193-4.843-6.413-8.9-2.432-11.664,11.443-23.09,23.338-35.36,33.742-6.894,5.848-6.031,8.978-.773,15.424q66.324,81.48,135.879,158.839c26.221,29.007,51.149,59.758,77.317,88.839,7.372,8.192,13.676,18.4,23.322,23.388Z" transform="translate(741.739 72.767)" fill="#fafbfc" stroke="rgba(225,229,235,0.42)" stroke-miterlimit="10" stroke-width="1"/><path d="M363.868,180.622c3.113,4.49,5.309,4.628,8.884,1.123,13.511-13.247,27.088-26.4,40.86-39.247,3.874-3.612,4.513-6.8,2.19-11.959-4.035-8.97-8.7-17.842-11.151-27.492-5.437-21.355-11.076-42.924-3.8-65.689,3.893-12.173,6.719-24.845,10.022-37.3H241.008c2.5,12.049,10.919,19.013,16.916,27.793C292.936,79.086,328.587,129.662,363.868,180.622Z" transform="translate(675.303 0.057)" fill="#fafbfc" stroke="rgba(225,229,235,0.42)" stroke-miterlimit="10" stroke-width="1"/><path d="M526.6,840.6c-9.969-5.079-19.765-10.781-29.974-15-16.688-6.889-30.415-16.982-34.548-39.762a38.454,38.454,0,0,0-1.506-5.162c-3.258-9.945-10.138-14.467-18.57-11.8-6.967,2.2-13.78,5.135-20.768,7.194-4.5,1.326-5.689,3.668-4.76,9.33,1.634,9.969,2.314,20.169,3.626,30.227.674,5.193-1.469,7.718-5.107,8.413-2.334.443-2.943-2.039-2.45-4.48,2.143-10.707-1.817-20.749-2.157-31.137-.24-7.421-2.969-8.551-8.1-7.224-25.55,6.619-51.348,10.551-77.519,10.4-3.01-.025-6.316-.468-7.995,3.472-4.495,10.559-12.893,12.033-21.195,14.156-32.835,8.363-66.115,12.942-99.39,17.6-9.285,1.3-12.6,7.931-9.375,18.5.822,2.678,3,4.651,2.928,7.864H534.893C535.4,845.789,531.215,842.955,526.6,840.6Z" transform="translate(621.765 723.636)" fill="#fafbfc" stroke="rgba(225,229,235,0.42)" stroke-miterlimit="10" stroke-width="1"/><path d="M488.189,628.491a20.066,20.066,0,0,0-4.273,1.589c-21.281,13.639-42.787,26.81-63.708,41.246-13.851,9.551-28.846,16.587-41.735,28.294-4.053,3.676-5.873,5.766-2.564,12.664,23.513,49.043,52.587,93.4,78.847,140.119,3.022,5.374,5.934,5.178,10.455,1.3,7.22-6.193,13.548-14.631,22.978-16.309Z" transform="translate(804.001 592.089)" fill="#fafbfc" stroke="rgba(225,229,235,0.42)" stroke-miterlimit="10" stroke-width="1"/><path d="M342.813,127.082c2.108,4.218,3.671,5.463,7.751,2.826,24.41-15.744,49.059-30.932,73.516-46.554,29.768-19.013,59.349-38.453,89.181-57.3,7.067-4.457,13.619-11.116,22.361-10.544V2.313q.528-2.837-1.809-2.195H342.263c-.108,4.389-3.085,6.962-4.528,10.524-5.987,14.779-12.246,30.458-12.6,46.342C324.584,81.969,332.036,105.48,342.813,127.082Z" transform="translate(756.568 0)" fill="#fafbfc" stroke="rgba(225,229,235,0.42)" stroke-miterlimit="10" stroke-width="1"/><path d="M232.832,835.36c20.447-3.08,41.07-4.381,61.374-9,13.813-3.138,27.7-5.776,41.461-9.2,10.463-2.6,13.009-10.683,7.209-21.339-7.291-13.4-14.93-26.533-21.867-40.19-3.077-6.061-6.05-7.2-10.933-3.678-19.095,13.795-39.562,24.527-58.271,39.271-24.915,19.636-50.514,38.01-75.317,57.851-8.817,7.054-19.1,11.485-26.466,21.217h66.866c-.279-1.418-.647-2.818-.822-4.261C213.141,842.21,216.24,837.867,232.832,835.36Z" transform="translate(587.382 706.532)" fill="#fafbfc" stroke="rgba(225,229,235,0.42)" stroke-miterlimit="10" stroke-width="1"/><path d="M262.241,82.747c7.136,7.561,13.337,15.515,18.233,25.346,8.87,17.809,18.247,35.239,27.3,52.91,3.1,6.061,6.3,8.036,11.611,3.072a208.371,208.371,0,0,1,18.017-14.54c5.024-3.744,5.513-6.758,1.341-12.69-25.924-36.837-51.741-73.8-76.9-111.4C256.5,17.468,248.223,11.611,246.822.061H210.679c.1,1.449-.134,3.1.36,4.333C223.31,35.137,241.257,60.539,262.241,82.747Z" transform="translate(645.996 0.057)" fill="#fafbfc" stroke="rgba(225,229,235,0.42)" stroke-miterlimit="10" stroke-width="1"/><path d="M-217.971,1004.518c4.906-2.737,10.04-4.857,15.083-7.217,56.9-26.622,114.484-51.174,168.378-86.627a141.128,141.128,0,0,1,74.918-23.61c15.113-.443,30.46-1.049,45.687-3.465,24.978-3.964,45.882-16.457,62.776-38.7,11.79-15.531,22.532-32.242,34.333-47.765,4.876-6.407,3.885-10.248-.9-15.18-33.919-34.915-66.032-72.259-98.588-109-2.187-2.466-4.273-5.547-6.9-6.873C47.989,651.5,20.04,634.456-9.339,621.382c-17.189-7.642-34.784-14.1-51.263-23.985-28.767-17.253-58.763-26.4-91.216-24.412-24.321,1.492-48.752.3-73.132.3V999.89h1.872C-223.3,1004.576-222.47,1007.033-217.971,1004.518Z" transform="translate(225.048 539.545)" fill="#fafbfc" stroke="rgba(225,229,235,0.42)" stroke-miterlimit="10" stroke-width="1"/><path d="M-156.9,826.92c55.5-42.827,110.219-87.194,167.072-127.4,5.586-3.948,7.378-7.6,3.579-15.261q-48.424-97.5-96.341-195.4c-10.773-21.938-22.555-43.769-27.3-68.738q-15.493-81.4-28.075-163.613c-5.9-38.174-18.3-72.317-37.5-102.913-11.627-18.531-23.653-36.74-36.28-54.262-3.937-5.465-5.856-14.148-13.206-15.492V864.511c3.3-.049,6.516-.064,9.78-1.367C-194.175,854.772-175.414,841.206-156.9,826.92Z" transform="translate(225.048 78.99)" fill="#fafbfc" stroke="rgba(225,229,235,0.42)" stroke-miterlimit="10" stroke-width="1"/><path d="M456.923,462.039c-17.773,12.165-32.314,29.613-48.658,44.112-3.217,2.859-1.205,5.653.383,8.405A476.485,476.485,0,0,1,434.8,566.69c2.336,5.519,4.924,5.077,8.642,2.488,4.629-3.218,7.987-8.871,13.483-10.378Z" transform="translate(835.267 435.278)" fill="#fafbfc" stroke="rgba(225,229,235,0.42)" stroke-miterlimit="10" stroke-width="1"/><path d="M451.647,99.7c-14.2,4.513-25.442,15.867-37.859,24.476-3.449,2.393-1.085,5.644.49,8.357,7.12,12.214,13.809,24.837,21.478,36.509,5.126,7.807,7.743,18.3,15.892,23.019Z" transform="translate(840.543 93.928)" fill="#fafbfc" stroke="rgba(225,229,235,0.42)" stroke-miterlimit="10" stroke-width="1"/><path d="M435.426,745.355c-5.164,5.276-14.262,7.423-15.432,15.075-1.182,7.757,6.487,13.942,10.294,20.716,3.86,6.881,6.125,15.933,13.764,18.865V740.638C440.347,739.973,437.984,742.743,435.426,745.355Z" transform="translate(848.138 697.646)" fill="#fafbfc" stroke="rgba(225,229,235,0.42)" stroke-miterlimit="10" stroke-width="1"/><path d="M438.851,517.523c-6.615,1.515-14.971,4.376-13.4,13.311,1.435,8.184,6.088,17.162,13.4,21.872Z" transform="translate(853.339 487.548)" fill="#fafbfc" stroke="rgba(225,229,235,0.42)" stroke-miterlimit="10" stroke-width="1"/><path d="M162.263,627.325c8.721,1.441,17.571,3.406,25.847.138,16.55-6.537,32.727-14.466,49.014-21.969,2.409-1.115,6.037-2.688,4.316-6.8-5.407-12.95-8.953-27.195-16.725-38.541-14.517-21.176-34.188-34.357-52.762-49.119-28.157-22.363-55.1-46.994-84.58-66.9-5.96-4.03-9.92-3.974-14.584,2.63C61.644,462.532,50,477.785,38.459,493.143Q-1.636,546.508-41.783,599.8c-7.063,9.429-13.768,19.26-20.514,29.022-19.926,28.836-28.826,64.65-41.88,97.86-4.151,10.551-2.778,16.284,6.6,19.833,6.562,2.482,12.867,6.143,19.04,9.895,16.334,9.938,35.016,14.525,49.244,29.065,18.363,18.766,35.842,38.82,53.566,58.505,16.837,18.7,33.38,37.764,50.738,55.794,6.038,6.267,9.533,4.7,14.291-.147,15.392-15.7,30.487-31.858,46.387-46.742,5.37-5.03,5.571-9.167,3.406-15.564q-6-17.732-11.65-35.651c-.842-2.655-1.679-6.2,1.656-7.234,2.641-.81,3.433,2.408,4.192,4.694,3.268,9.823,6.316,19.743,9.633,29.539,4.46,13.173,5.305,13.3,15.365,6.333,19.313-13.377,39.08-25.83,58.025-39.927,17.587-13.09,35.1-26.525,48.3-46.709,9.033-13.82,15.551-29.506,23.845-43.784,4.308-7.415,3.86-12.559-.452-19.186-11.745-18.063-21.781-37.583-32.08-56.884-10.459-19.594-10.355-18.661-28.631-10.625-18.7,8.234-36.443,22.062-55.42,17.506-5.4,0-8.534.649-11.4-.138-4.988-1.369-14.519,4.406-13.988-4.752C146.93,622.827,156.887,626.432,162.263,627.325Z" transform="translate(339.603 415.83)" fill="#fafbfc" stroke="rgba(225,229,235,0.42)" stroke-miterlimit="10" stroke-width="1"/><path d="M106.58,950.327c29.711,9.4,59.764,10.5,89.645-.3q62.148-22.46,124.372-44.637c15.807-5.669,31.382-12.606,48.444-7.1a16.507,16.507,0,0,0,13.3-1.212c18.226-10.412,36.624-20.283,53.477-34.012,6.292-5.127,5.645-9.019,2.419-15.966-6.636-14.261-15.634-27.515-17.874-43.982-1.223-9.027-4.214-14.67-10.032-19.3a34.479,34.479,0,0,1-6.054-6.529c-3.935-5.35-3.156-9.124,2.841-10.693-.523-5.034,1.833-8.324,4.768-11.09,6.4-6.02,12.989-11.763,19.309-17.906,5.58-5.432,12-9.691,15.608-17.89,2.049-4.653,3.268-9.413.142-13.148-11.89-14.189-14.893-33.955-22.394-50.871-7.108-16.007-10.313-34.414-20.839-48.34-24.205-32.029-55.794-43.761-89.748-49.8-20.79-3.694-42.9-.074-61.639-15.851-2.908-2.441-6.125-1.991-7.4,2.474-5.4,18.883-15.339,35.47-17.429,56.13-2.7,26.706-6.436,53.271-10.29,79.779-3.313,22.783-1.89,46.365-10.508,68.318-9.914,25.255-16.708,52.452-29.53,75.914-16.206,29.646-36.9,51.984-68.392,52.6-15.107.3-23.592,13.049-32.106,25.123-4.719,6.692-5.187,14.868-.824,23.355C83.1,939.513,94.56,946.524,106.58,950.327Z" transform="translate(512.796 508.945)" fill="#fafbfc" stroke="rgba(225,229,235,0.42)" stroke-miterlimit="10" stroke-width="1"/><path d="M273.076,369.4c-14.452-7.341-29.249-13.051-44.953-14.894-6.282-.738-8.156,2.047-8.443,9.78-.688,18.547-1.553,37.191-3.836,55.532-4.88,39.255-9.9,78.5-19.569,116.634-8.245,32.53-17.828,64.273-33.209,92.921-5.569,10.378-11.853,20.207-18.043,30.056-2.741,4.356-2.714,6.552,1.99,8.362,7.729,2.974,15.38,6.331,22.882,10.06,4.373,2.179,7.287.893,10.2-3.228,9.505-13.418,21.289-23.585,33.1-33.693,1.724-1.474,3.571-3.808,5.5-1.418,2.377,2.935.283,5.6-1.571,7.333-5.938,5.57-12.655,10.108-17.968,16.424-7.627,9.067-18.625,15.474-19.441,29.17.977,6.119-1.3,11.682,2.857,14.016,11.023,6.185,20.713,15.8,34.121,15.606,23.509-.353,46.428,5.873,69.047,13.031,21.265,6.725,37.961,23.078,53.511,41.042,4.363,5.038,7.759,5.512,12.559,1.6,5.987-4.865,12.232-9.289,18.5-13.63,9.89-6.85,25.395-1.509,30.338,10.837q8.677,21.7,16.476,43.906c6.072,17.2,7.92,35.913,12.508,53.666,2.131,8.24,11.666,12.155,16.232,6.046,19.333-25.878,42.6-45.922,65.969-65.681,6.982-5.908,6.32-10.248,2.181-17.572-18.212-32.242-36.459-64.469-54.026-97.228-57.8-107.778-118.868-212.829-178.485-319.1C279.246,374.969,276.837,371.3,273.076,369.4Z" transform="translate(580.766 333.865)" fill="#fafbfc" stroke="rgba(225,229,235,0.42)" stroke-miterlimit="10" stroke-width="1"/><path d="M407.957,771.114c2.6,4.727,4.815,9.019,10.624,4.809,23.741-17.193,49.195-30.743,72.2-49.486,24.948-20.324,49.468-41.424,74.521-61.544,6.109-4.906,6.091-8.8,3.048-15.933-10.7-25.067-24.071-47.995-37.505-70.874-22.31-38.01-45.138-75.568-67.245-113.759-15.726-27.154-30.617-55.031-45.9-82.581-1.522-2.744-3.093-5.481-6.809-5.644-1.882,1.392-4.208,3.016-6.44,4.809Q334.6,437.173,266.1,495.848c-5.718,4.89-5.437,8.881-1.911,15.049,11.121,19.512,22.032,39.2,32.906,58.923Q352.57,670.43,407.957,771.114Z" transform="translate(695.252 354.317)" fill="#fafbfc" stroke="rgba(225,229,235,0.42)" stroke-miterlimit="10" stroke-width="1"/><path d="M421.125,248.587c-3.807.932-4.015-5.071-4.308-8.118-1.614-16.727-7.146-31.285-14.5-45.375-4.129-7.922-6.9-9.266-13.534-3.465-27.058,23.616-54.754,46.159-81.824,69.76-16.314,14.222-33.342,27.91-47.433,45.031-14.067,17.079-27.117,36.035-36.742,57.808q-11.73,26.542-24.176,52.617a156.608,156.608,0,0,0-15.5,75.38c.216,5.3,1.294,7.757,6.121,8.184,16.584,1.441,32.434,6.848,47.579,15.065,4.08,2.22,6.817,1.981,10.482-1.591a904.684,904.684,0,0,1,85.39-72.888c15.477-11.724,24.168-27.673,27.685-48.692,3.13-18.687,12.539-32.178,24.968-42.425,12.657-10.437,25.988-19.662,39.076-29.312,4.607-3.4,8.837-8.289,14.3-9.027,14.564-1.95,29.174-3.874,43.805-4.531,9.674-.433,17.508-4.577,24.2-12.392,8.679-10.151,17.018-20.726,25.6-31.005,7.435-8.922,12.049-19.071,9.33-32.186-3.476-16.778-14.93-24.027-26.7-27.484-11.458-3.366-23.824-2.169-40.571-3.292-9.438-1.721-22.463,4.768-35.808,8.772-18.93,5.694-18.827,5.784-15.463,28.861C423.625,241.869,425.475,247.513,421.125,248.587Z" transform="translate(619.229 177.166)" fill="#fafbfc" stroke="rgba(225,229,235,0.42)" stroke-miterlimit="10" stroke-width="1"/><path d="M267.368,346.626c-8.4,12.624-16.961,24.476-30.4,29.6a76.6,76.6,0,0,0-18.812,10.462c-17.844,13.509-35.153,28.065-53.1,41.368-7.358,5.455-11.359,12.354-12.578,22.445-2.173,17.99-4.615,35.928-6.933,53.895-.908,7.019,2.159,9.592,7.4,10.977Q182.8,523.257,212.52,531.9c4.629,1.352,7.283.107,9.509-5,6.772-15.492,14.083-30.636,20.719-46.21,17.793-41.77,41.644-76.716,73.068-104.847q37.709-33.751,76.153-66.172c16.922-14.309,33.05-30.089,52.3-40.49C468.18,256.255,492.812,245.7,517,233.735c10.96-5.415,11.532-7.733,3.467-17.555Q487.6,176.149,454.7,136.147c-12.763-15.49-24.119-32.481-35.444-49.494-4.876-7.316-9.118-11.264-16.91-3.923-9.688,9.132-20.528,16.432-30.8,24.657-10.791,8.642-21.452,17.514-32.265,26.123-6,4.776-2.765,10.289-.8,15.278,2.534,6.421,6.188,2.416,8.986.245,7.859-6.071,15.5-12.565,23.24-18.865a39.651,39.651,0,0,1,17.882-8.66c4.733.19,9.145,1.058,12.293,4.457,14.962,16.2,31.351,30.5,44.409,49.249,8.286,11.893,8.278,20.151-2.139,28.679-12.183,9.971-24.062,21.291-37.853,27.444-20.337,9.06-37.36,24.705-55.872,37.428-23.448,16.112-47.25,30.9-64.7,57.342C279.854,333.478,272.46,338.975,267.368,346.626Z" transform="translate(582.903 74.252)" fill="#fafbfc" stroke="rgba(225,229,235,0.42)" stroke-miterlimit="10" stroke-width="1"/><path d="M244.195,869.745c48.477-28.475,97.143-56.466,145.8-84.467,26.089-15.014,52.38-29.506,78.41-44.66,12.193-7.1,24.671-13.647,36-22.806,1.955-1.581,4.31-2.834,4.206-6.873-.789-1.581-1.626-3.513-2.637-5.308-4.77-8.421-9.588-16.8-14.377-25.214-15.39-27.024-30.9-53.951-46.082-81.148-4.562-8.184-8.593-9.8-15.548-3.292-14.741,13.794-30.487,26.006-45.067,40.032-13.237,12.738-29.559,23.911-25.853,49.977.045.319-.214.689-.252,1.041-3.04,28.162-12.156,54.211-19.272,80.934-1.8,6.733-3.583,14.057-9.206,18.292-30.869,23.239-59.823,50.411-93.82,67.262-2.426,1.2-8.555,1.253-5.047,8.462C234.293,867.829,235.972,874.57,244.195,869.745Z" transform="translate(665.045 557.676)" fill="#fafbfc" stroke="rgba(225,229,235,0.42)" stroke-miterlimit="10" stroke-width="1"/><path d="M206.454,647.748c2.833-23.058,5.276-46.2,14.967-67.074a179.97,179.97,0,0,0,8.319-23.068c4.709-15.4,1-24.69-11.546-30.13-5.657-2.457-11.326-4.873-16.932-7.487-4.308-2-8.406-2.317-11.395,2.622-10.008,16.564-23.983,28.7-33.934,45.332-13.914,23.274-30.468,44.023-43.54,68.165-8.734,16.114-15.286,34.045-26.561,48.094-3.667,4.57-.452,6.619,2.421,7.724,15.08,5.842,29.683,14.148,46.027,13.919,15.369-.386,30.352-4.121,45.215-8.217,13.253-3.653,25.11-9.732,25.017-30.384C204.486,660.748,205.661,654.228,206.454,647.748Z" transform="translate(523.77 488.587)" fill="#fafbfc" stroke="rgba(225,229,235,0.42)" stroke-miterlimit="10" stroke-width="1"/><path d="M38.761,793.477c17.653-1.173,35.307-2.278,52.956-3.523,10.142-.713,20.888-3.956,30.118,1.451,5.2,3.047,8.626,2.859,13.125.672,3.626-1.754,7.22-3.942,11-4.785,4.222-.95,6.353-3.106,6.809-8.388.965-11.182,6.092-19.415,12.814-26.739,6.054-6.586,11.676-13.771,17.288-20.938,8.787-11.216,10.824-27.279,3.789-36.331-7.484-9.633-17.718-7.372-27.231-6.374-16.688,1.754-33.333,4.032-50.009,5.98-20.56,2.4-41.212,3.974-61.653,7.431-6.8,1.148-12.307-.163-18.2-3.022-5.553-2.7-9.379-7.906-13.245-12.985-3.474-4.562-6.387-5.145-10.791-1.245-8.616,7.634-15.4,17.449-22.744,26.583-3.488,4.333-1.64,7.79,3.063,7.314,7.621-.761,14.846,2.4,22.384,2.441,11.389.074,21.606,10.928,25.161,24.043,3.744,13.828,1.508,27.255.218,40.844C32.884,790.863,34.266,793.78,38.761,793.477Z" transform="translate(424.041 642.587)" fill="#fafbfc" stroke="rgba(225,229,235,0.42)" stroke-miterlimit="10" stroke-width="1"/><path d="M131.054,785.035c-.908,3.138-.232,5.366,2.786,4.513,10.663-3.047,21.389-4.135,31.679-10.878,17.123-11.216,27.208-29.743,37.255-47.979,5.732-10.4,13.436-24.305-.295-36.191-1.31-1.14-1.807-3.744-2.57-5.735-9.232-24.051-24.321-42.376-39.692-60.471-4.037-4.76-6.583-3.645-8.807,2.121-2.894,7.512-7.9,12.369-13.54,16.958-23.206,18.865-46.3,37.968-69.084,57.571-6.324,5.447-13.257,10.06-18.587,17.244-2.782,3.742-5.547,7.627-3.233,12.517,1.994,4.218,5.9,2.057,9.076,1.672,16.655-2.026,33.313-4.065,50.809-6.2,9.157,1.591,19.3,1.033,25.743,14.074,5.74,11.615,6.21,22.2.751,33.66A47.472,47.472,0,0,0,131.054,785.035Z" transform="translate(486.967 589.098)" fill="#fafbfc" stroke="rgba(225,229,235,0.42)" stroke-miterlimit="10" stroke-width="1"/><path d="M19.633,759.091c21.775-2.327,39.648-4.243,57.53-6.127,3.062-.32,5.279-1.876,5.537-5.849.712-11.018,6.792-18.054,13.3-23.658,26.718-23.01,53.462-46.02,80.976-67.565,8.256-6.463,12.433-15.236,17.26-24.328,3.138-5.923.965-8.143-3.663-9.782-8.064-2.849-16.275-5.422-23.969-9.421-5.924-3.078-10.264-1.826-14.828,2.868-21.254,21.839-45.319,38.451-69.988,53.549-29,17.735-54.093,41.77-78.253,67.582-1.671,1.785-4.263,3.671-1.734,7.135C7.7,751.579,14.084,758.656,19.633,759.091Z" transform="translate(443.14 575.305)" fill="#fafbfc" stroke="rgba(225,229,235,0.42)" stroke-miterlimit="10" stroke-width="1"/><path d="M242.863,656.8v-.015l-.021.006v.019Z" transform="translate(677.073 618.748)" fill="#fafbfc" stroke="rgba(225,229,235,0.42)" stroke-miterlimit="10" stroke-width="1"/><path d="M262.533,730.079a5.635,5.635,0,0,0,.816,1.94c4.872,10.485,9.92,20.866,14.556,31.5,2.572,5.9,4.7,8.06,10.347,3.8,29.941-22.584,30.039-22.388,41.005-62.6,1.231-4.506,2.33-9.077,3.71-13.517,4.8-15.467,6.7-31.751,9.012-47.872.8-5.587,1.074-12.878-5.767-13.532-13.139-1.278-26.325-1.713-39.493-2.426-2.849-.155-6.07.476-6.373,4.447-1.083,14.206-9.558,21.545-17.944,28.426-9.851,8.1-17.88,19.514-29.55,24.3.291,2.492-.136,6.343,1,7.234C255.407,700.818,262.11,713.105,262.533,730.079Z" transform="translate(677.084 591.014)" fill="#fafbfc" stroke="rgba(225,229,235,0.42)" stroke-miterlimit="10" stroke-width="1"/><path d="M243.439,236.572c3.4,5.57,6.644,4.44,10.919,2.408,20.05-9.518,37.273-24.87,55.17-38.886,4.77-3.742,5.156-7.364,2.4-12.565q-15.331-29.012-30.694-58c-1.083-2.031-1.911-4.75-5.2-4.76a35.851,35.851,0,0,0-5.051,3.024c-20.035,16.1-39.955,32.4-60.076,48.323-4.1,3.243-2.367,5.234-.3,8.454C221.658,201.789,232.736,219.017,243.439,236.572Z" transform="translate(643.806 117.543)" fill="#fafbfc" stroke="rgba(225,229,235,0.42)" stroke-miterlimit="10" stroke-width="1"/><path d="M288.965,207.956c19.7-7.766,36.548-21.749,53.385-35.692,4.6-3.808,5.846-8.642,1.066-15.4-12-16.956-26.807-29.949-40.256-44.833-3.374-3.737-7-6.857-12.278-7.423-.908.328-2.359.763-3.761,1.385-14.307,6.341-25.727,18.489-38.36,28.2-3.048,2.352-1.815,4.979-.539,7.446,10.844,20.971,21.8,41.867,32.625,62.855C282.9,208.472,284.948,209.537,288.965,207.956Z" transform="translate(680.957 98.549)" fill="#fafbfc" stroke="rgba(225,229,235,0.42)" stroke-miterlimit="10" stroke-width="1"/><path d="M127.763,641.863c5.171,4.038,9.786,9.3,16,.179,24.284-35.682,45.362-73.593,57.534-117.886a741.176,741.176,0,0,0,23.132-127.472c-.509-2.136,3.205-5.667-1.062-7.805-4.872-2.441-14.362,3.088-15.31,9.337-4.87,31.866-10.081,63.675-14.283,95.671a138.329,138.329,0,0,1-21.195,58.064c-15.536,24.125-30.58,48.725-45.815,73.137C123.072,631,121.463,636.965,127.763,641.863Z" transform="translate(561.768 365.798)" fill="#fafbfc" stroke="rgba(225,229,235,0.42)" stroke-miterlimit="10" stroke-width="1"/><path d="M270.115,570.958c-6.233,4.368-12.034,9.675-18.375,13.762-4.233,2.729-4.479,5.269-2.6,10.274,8.579,22.913,16.658,46.1,25.279,68.983,1.974,5.244,5.272,10.674,10.622,10.584,7.857-.14,15.343,3.972,22.343,2.416,4.2,0,7.505.041,10.815-.008,3.559-.049,4.583-1.942,3.773-6.341A408.158,408.158,0,0,0,294,578.594C289.133,567.618,279.194,564.6,270.115,570.958Z" transform="translate(682.078 534.789)" fill="#fafbfc" stroke="rgba(225,229,235,0.42)" stroke-miterlimit="10" stroke-width="1"/><path d="M162.665,703.952c10.571-26.09,17.5-53.394,17.6-80.074,1.542-11.534-1.08-14.294-8.162-10.8-19.482,9.617-39.951,11.771-60.737,11.534-2.776-.033-6.447-1.614-7.853,3.029-1.253,4.154,1.431,6.693,3.492,9.373,9.228,11.977,19.777,22.379,27.764,35.83,6,10.1,10.982,20.84,15.907,31.728C155.167,714.5,158.563,714.07,162.665,703.952Z" transform="translate(542.132 576.239)" fill="#fafbfc" stroke="rgba(225,229,235,0.42)" stroke-miterlimit="10" stroke-width="1"/><path d="M156.376,106.05c-6.469,4.628-12.724,9.7-19.044,14.63-4.835,3.76-6.253,8.077-2.712,14.614q10.394,19.218,19.93,39.123c2.4,5.03,4.743,5.7,8.675,3.072,8.949-6,18.009-11.755,27.021-17.621,1.622-1.056,3.152-2.228,3.05-5.1-.366-.794-.785-1.744-1.241-2.678-6.906-14.131-13.652-28.385-20.8-42.335C167.6,102.6,162.07,101.97,156.376,106.05Z" transform="translate(570.594 97.534)" fill="#fafbfc" stroke="rgba(225,229,235,0.42)" stroke-miterlimit="10" stroke-width="1"/><path d="M154.36,505.31c7.737-12.911,16.835-24.593,22.892-39.075,2.316-5.537,1.638-6.832-2.912-7.528-8.282-1.278-16.763-1.835-24.732-4.556-6.715-2.284-8.518,1.008-9.983,7.57-2.664,11.952-5.808,23.748-8.447,35.707-3.752,17.03-8.477,33.922-5.258,52.7C135.428,535.21,145.221,520.546,154.36,505.31Z" transform="translate(563.06 427.166)" fill="#fafbfc" stroke="rgba(225,229,235,0.42)" stroke-miterlimit="10" stroke-width="1"/><path d="M279.741,122.736c-.486-10.427-5.059-12.68-13.491-6.224-19.765,15.139-37.993,33.34-59.939,44.138-2.161,1.064-7.332.67-4.64,6.634,2.662,5.89,5.27,12.043,9.753,16.286,1.256-.959,2.031-1.517,2.778-2.123q31.108-25.2,62.237-50.37C279.035,128.987,279.906,126.317,279.741,122.736Z" transform="translate(636.558 106.356)" fill="#fafbfc" stroke="rgba(225,229,235,0.42)" stroke-miterlimit="10" stroke-width="1"/></g></g></g><text transform="matrix(0.616, -0.788, 0.788, 0.616, 740.593, 58.678)" fill="#bbc5d2" font-size="16" font-family="GeezaPro, Geeza Pro"><tspan x="-54.203" y="0"></tspan><tspan y="0" font-family="Helvetica"> </tspan><tspan y="0"></tspan><tspan y="0" font-family="Helvetica"> </tspan><tspan y="0"></tspan></text><text transform="matrix(0.995, -0.105, 0.105, 0.995, 99.85, 247.725)" fill="#bbc5d2" font-size="16" font-family="GeezaPro, Geeza Pro"><tspan x="-65.396" y="0"></tspan><tspan y="0" font-family="Helvetica"> </tspan><tspan y="0" font-family="Helvetica">16</tspan><tspan y="0" font-family="Helvetica"> </tspan><tspan y="0"></tspan><tspan y="0" font-family="Helvetica"> </tspan><tspan y="0"></tspan></text><text transform="translate(1006.784 123.71) rotate(51)" fill="#bbc5d2" font-size="16" font-family="GeezaPro, Geeza Pro"><tspan x="-43.733" y="0"></tspan><tspan y="0" font-family="Helvetica"> </tspan><tspan y="0"></tspan><tspan y="0" font-family="Helvetica"> </tspan><tspan y="0"></tspan></text><text transform="matrix(0.358, 0.934, -0.934, 0.358, 287.145, 405.246)" fill="#bbc5d2" font-size="16" font-family="GeezaPro, Geeza Pro"><tspan x="-38.422" y="0"></tspan><tspan y="0" font-family="Helvetica"> </tspan><tspan y="0"></tspan></text><text transform="translate(953.742 455.464) rotate(-7)" fill="#bbc5d2" font-size="15" font-family="GeezaPro, Geeza Pro"><tspan x="-14.644" y="0"></tspan></text><text transform="translate(742.919 369.3) rotate(-47)" fill="#bbc5d2" font-size="16" font-family="GeezaPro, Geeza Pro"><tspan x="-52.576" y="0"></tspan><tspan y="0" font-family="Helvetica"> </tspan><tspan y="0"></tspan><tspan y="0" font-family="Helvetica"> </tspan><tspan y="0"></tspan></text><text transform="translate(1044.546 477.559) rotate(-41)" fill="#bbc5d2" font-size="15" font-family="GeezaPro, Geeza Pro"><tspan x="-28.205" y="0"></tspan><tspan y="0" font-family="Helvetica"> </tspan><tspan y="0"></tspan></text><text transform="matrix(0.899, -0.438, 0.438, 0.899, 377.536, 162.679)" fill="#bbc5d2" font-size="16" font-family="GeezaPro, Geeza Pro"><tspan x="-34.837" y="0"></tspan><tspan y="0" font-family="Helvetica"> </tspan><tspan y="0"></tspan></text><g transform="translate(411.972 278.327)"><g transform="translate(26.466 43.466)"><circle cx="28" cy="28" r="28" transform="translate(-0.438 0.394)" fill="#5d3ebd" opacity="0.1"/><g transform="translate(-412.438 -165.606)"><path d="M6.24,3.12A3.12,3.12,0,1,1,3.12,0,3.12,3.12,0,0,1,6.24,3.12Z" transform="translate(436.88 189.19)" fill="none" stroke="#5d3ebd" stroke-width="1.5" opacity="0.4"/><path d="M.243,6.49c1.97-8.66,14.8-8.65,16.76.01,1.15,5.08-2.01,9.38-4.78,12.04a5.193,5.193,0,0,1-7.21,0C2.253,15.88-.907,11.57.243,6.49Z" transform="translate(431.377 184)" fill="none" stroke="#5d3ebd" stroke-width="1.5"/><path d="M0,0H24V24H0Z" transform="translate(452 206) rotate(180)" fill="none" opacity="0"/></g></g></g></g></g></svg>