<svg xmlns="http://www.w3.org/2000/svg" width="60" height="60" viewBox="0 0 60 60"><path d="M20.024,6.833V21.851c0,6.257-1.251,10.638-4.055,13.466L0,19.348,19.348,0A30.793,30.793,0,0,1,20.024,6.833Z" transform="translate(34.97 15.648)" fill="none" stroke="#bac1cc" stroke-linecap="round" stroke-linejoin="round" stroke-width="3"/><path d="M49.312,10.672l-38.64,38.64C3.149,47.588,0,42.389,0,32.492v-15C0,5,5,0,17.5,0h15C42.389,0,47.588,3.149,49.312,10.672Z" transform="translate(5.006 5.006)" fill="none" stroke="#bac1cc" stroke-linecap="round" stroke-linejoin="round" stroke-width="3"/><path d="M35.317,15.969c-2.828,2.8-7.209,4.055-13.466,4.055H6.833A30.793,30.793,0,0,1,0,19.348L19.348,0Z" transform="translate(15.648 34.97)" fill="none" stroke="#bac1cc" stroke-linecap="round" stroke-linejoin="round" stroke-width="3"/><path d="M.213,5.5c1.7-7.334,12.715-7.334,14.417,0,.976,4.305-1.727,7.959-4.1,10.212a4.507,4.507,0,0,1-6.207,0C1.94,13.46-.788,9.805.213,5.5Z" transform="translate(15.382 14.45)" fill="none" stroke="#bac1cc" stroke-width="3" opacity="0.4"/><path d="M0,0H60V60H0Z" fill="none" opacity="0"/><path d="M.495.5H.517" transform="translate(22.242 21.25)" fill="none" stroke="#bac1cc" stroke-linecap="round" stroke-linejoin="round" stroke-width="3" opacity="0.4"/></svg>