<svg xmlns="http://www.w3.org/2000/svg" width="22" height="22" viewBox="0 0 22 22"><g transform="translate(-108 -250)"><g transform="translate(108 250)"><path d="M18.333,7.333v2.75q0,5.5-5.5,5.5h-.458a.929.929,0,0,0-.733.367l-1.375,1.833a1.3,1.3,0,0,1-2.2,0L6.692,15.95a1.036,1.036,0,0,0-.733-.367H5.5c-3.667,0-5.5-.917-5.5-5.5V5.5Q0,0,5.5,0H11" transform="translate(1.833 1.833)" fill="none" stroke="#fff" stroke-linecap="round" stroke-linejoin="round" stroke-width="1.5"/><path d="M4.583,2.292A2.292,2.292,0,1,1,2.292,0,2.292,2.292,0,0,1,4.583,2.292Z" transform="translate(15.583 1.833)" fill="none" stroke="#fff" stroke-linecap="round" stroke-linejoin="round" stroke-width="1.5" opacity="0.4"/><path d="M.495.5H.5" transform="translate(14.169 9.583)" fill="none" stroke="#fff" stroke-linecap="round" stroke-linejoin="round" stroke-width="2" opacity="0.4"/><path d="M.495.5H.5" transform="translate(10.501 9.583)" fill="none" stroke="#fff" stroke-linecap="round" stroke-linejoin="round" stroke-width="2" opacity="0.4"/><path d="M.495.5H.5" transform="translate(6.834 9.583)" fill="none" stroke="#fff" stroke-linecap="round" stroke-linejoin="round" stroke-width="2" opacity="0.4"/><path d="M0,0H22V22H0Z" fill="none" opacity="0"/></g></g></svg>