<svg xmlns="http://www.w3.org/2000/svg" width="30" height="30" viewBox="0 0 30 30"><path d="M12.5,26.075a2.9,2.9,0,0,1-2.3-1.225l-1.873-2.5a.554.554,0,0,0-.212-.1H7.5A15.7,15.7,0,0,1,4,21.932,6.2,6.2,0,0,1,1.216,20.6C-.3,19.273-1,17.1-1,13.75V7.5C-1,1.939,1.939-1,7.5-1H15a1,1,0,0,1,1,1,1,1,0,0,1-1,1H7.5A6.737,6.737,0,0,0,2.582,2.582,6.737,6.737,0,0,0,1,7.5v6.25c0,2.729.487,4.426,1.533,5.341C3.462,19.9,4.947,20.25,7.5,20.25h.625a2.4,2.4,0,0,1,1.8.9l1.872,2.5a.916.916,0,0,0,.7.425.916.916,0,0,0,.7-.425l1.875-2.5,0-.005a2.271,2.271,0,0,1,1.8-.895H17.5a6.737,6.737,0,0,0,4.918-1.582A6.737,6.737,0,0,0,24,13.75V10a1,1,0,0,1,2,0v3.75c0,5.561-2.939,8.5-8.5,8.5h-.625a.267.267,0,0,0-.2.1L14.8,24.85A2.9,2.9,0,0,1,12.5,26.075Z" transform="translate(2.5 2.5)" fill="#bac1cc"/><path d="M3.125-1A4.125,4.125,0,1,1-1,3.125,4.13,4.13,0,0,1,3.125-1Zm0,6.25A2.125,2.125,0,1,0,1,3.125,2.127,2.127,0,0,0,3.125,5.25Z" transform="translate(21.25 2.5)" fill="#bac1cc" opacity="0.4"/><path d="M.506,1.5H.495a1,1,0,0,1,0-2H.506a1,1,0,1,1,0,2Z" transform="translate(19.501 13.25)" fill="#bac1cc" opacity="0.4"/><path d="M.506,1.5H.495a1,1,0,0,1,0-2H.506a1,1,0,1,1,0,2Z" transform="translate(14.5 13.25)" fill="#bac1cc" opacity="0.4"/><path d="M.506,1.5H.495a1,1,0,0,1,0-2H.506a1,1,0,1,1,0,2Z" transform="translate(9.499 13.25)" fill="#bac1cc" opacity="0.4"/><path d="M0,0H30V30H0Z" fill="none" opacity="0"/></svg>