<svg xmlns="http://www.w3.org/2000/svg" width="22" height="22.144" viewBox="0 0 22 22.144"><g transform="translate(-428 -252)"><g transform="translate(428 252)"><path d="M0,5.032V3.447A3.454,3.454,0,0,1,3.447,0H13.97a3.454,3.454,0,0,1,3.447,3.447v1.32H15.565A1.889,1.889,0,0,0,13.7,6.811a1.955,1.955,0,0,0,1.98,1.714h1.742V9.616a3.454,3.454,0,0,1-3.447,3.447H8.947" transform="translate(2.292 7.104)" fill="none" stroke="#fff" stroke-linecap="round" stroke-linejoin="round" stroke-width="1.5"/><path d="M0,9.5V5.312A2.61,2.61,0,0,1,1.687,2.864L8.965.114a1.742,1.742,0,0,1,2.356,1.632V5.229" transform="translate(2.292 1.875)" fill="none" stroke="#fff" stroke-linecap="round" stroke-linejoin="round" stroke-width="1.5" opacity="0.4"/><path d="M4.7.935V2.823a.941.941,0,0,1-.917.935h-1.8A1.955,1.955,0,0,1,.008,2.044,1.841,1.841,0,0,1,.558.55,1.827,1.827,0,0,1,1.878,0H3.785A.941.941,0,0,1,4.7.935Z" transform="translate(15.978 11.871)" fill="none" stroke="#fff" stroke-linecap="round" stroke-linejoin="round" stroke-width="1.5"/><path d="M0,0H6.417" transform="translate(6.417 11)" fill="none" stroke="#fff" stroke-linecap="round" stroke-linejoin="round" stroke-width="1.5" opacity="0.4"/><g transform="translate(2.75 14.007)"><path d="M0,0H4.895A1.064,1.064,0,0,1,5.958,1.063V2.237" transform="translate(0 1.118)" fill="none" stroke="#fff" stroke-linecap="round" stroke-linejoin="round" stroke-width="1.5"/><path d="M1.118,0,0,1.118,1.118,2.237" fill="none" stroke="#fff" stroke-linecap="round" stroke-linejoin="round" stroke-width="1.5"/><path d="M5.958,2.237H1.063A1.064,1.064,0,0,1,0,1.173V0" transform="translate(0 3.722)" fill="none" stroke="#fff" stroke-linecap="round" stroke-linejoin="round" stroke-width="1.5"/><path d="M0,2.237,1.118,1.118,0,0" transform="translate(4.84 4.84)" fill="none" stroke="#fff" stroke-linecap="round" stroke-linejoin="round" stroke-width="1.5"/></g><path d="M0,0H22V22H0Z" fill="none" opacity="0"/></g></g></svg>