<svg id="vuesax_linear_moon" data-name="vuesax/linear/moon" xmlns="http://www.w3.org/2000/svg" width="34" height="34" viewBox="0 0 34 34">
  <g id="moon">
    <path id="Vector" d="M14.711,29.132c-.235,0-.474-.005-.71-.015A15.769,15.769,0,0,1,3.781,24.7,15.273,15.273,0,0,1,1.39,5.4,15.683,15.683,0,0,1,8.565-.647,3.981,3.981,0,0,1,10.1-1a1.961,1.961,0,0,1,1.712.852,2.678,2.678,0,0,1-.029,2.65,11.494,11.494,0,0,0-.972,4.726A12.1,12.1,0,0,0,22.382,19.061c.177.007.356.011.531.011a12.381,12.381,0,0,0,2.177-.193,4.879,4.879,0,0,1,.868-.084,2.128,2.128,0,0,1,2.082,1.081c.229.455.459,1.426-.575,2.829a15.721,15.721,0,0,1-5.478,4.676A15.973,15.973,0,0,1,14.711,29.132ZM10.1,1a2.016,2.016,0,0,0-.756.195A13.521,13.521,0,0,0,1.036,14.588,13.752,13.752,0,0,0,14.088,27.119c.206.009.416.013.622.013a13.818,13.818,0,0,0,11.14-5.609l0,0a2.008,2.008,0,0,0,.372-.7,1.256,1.256,0,0,0-.267-.025,2.9,2.9,0,0,0-.513.052,14.4,14.4,0,0,1-2.533.225c-.2,0-.409,0-.614-.013A14.121,14.121,0,0,1,8.812,7.239,13.476,13.476,0,0,1,9.95,1.7a1.769,1.769,0,0,0,.185-.7Z" transform="translate(2.816 2.806)" fill="#4c535f"/>
    <path id="Vector-2" data-name="Vector" d="M0,0H34V34H0Z" transform="translate(34 34) rotate(180)" fill="none" opacity="0"/>
  </g>
</svg>
