<svg xmlns="http://www.w3.org/2000/svg" width="66.469" height="60.563" viewBox="0 0 66.469 60.563">
  <g id="content" transform="translate(0 -22.748)">
    <path id="Path_150780" data-name="Path 150780" d="M64.291,56.746H54.509a4.437,4.437,0,0,0-3.856-4.915V47.289a2.369,2.369,0,0,0-2.367-2.367H44.418a4.057,4.057,0,1,0-7.878,0H17.551a2.369,2.369,0,0,0-2.367,2.367v9.456H12.339a.974.974,0,1,0,0,1.947h2.846v4.926H1.947V58.924a.231.231,0,0,1,.231-.231H7.532a.974.974,0,1,0,0-1.947H2.178A2.181,2.181,0,0,0,0,58.924V96.056a2.18,2.18,0,0,0,2.178,2.178H28.753a2.18,2.18,0,0,0,2.178-2.178V92.6h4.607v3.455a2.18,2.18,0,0,0,2.178,2.178h7.926a.974.974,0,1,0,0-1.947H37.716a.231.231,0,0,1-.231-.231V92.6h10.8a2.369,2.369,0,0,0,2.367-2.367V65.566H64.522V96.055a.231.231,0,0,1-.231.231H50.449a.974.974,0,0,0,0,1.947H64.291a2.18,2.18,0,0,0,2.178-2.178V58.924a2.181,2.181,0,0,0-2.178-2.178Zm-11.7-.505a2.5,2.5,0,1,1-2.5-2.5A2.5,2.5,0,0,1,52.591,56.241Zm-12.113-14.4a2.11,2.11,0,1,1-2.11,2.11A2.112,2.112,0,0,1,40.479,41.844ZM17.551,46.87H37.663a4.046,4.046,0,0,0,5.632,0h4.992a.42.42,0,0,1,.419.419v4.728a4.443,4.443,0,0,0-1.51.854H17.132V47.289a.42.42,0,0,1,.419-.419ZM48.287,90.653H17.551a.42.42,0,0,1-.419-.419V79.327a.974.974,0,1,0-1.947,0V90.234A2.369,2.369,0,0,0,17.551,92.6H28.984v3.455a.231.231,0,0,1-.231.231H2.178a.231.231,0,0,1-.231-.231V65.566H15.185V74.52a.974.974,0,1,0,1.947,0v-19.7H45.881a4.442,4.442,0,0,0,2.825,5.645v29.77A.42.42,0,0,1,48.287,90.653Zm2.367-27.034V60.65A4.45,4.45,0,0,0,53.8,58.693H64.291a.231.231,0,0,1,.231.231v4.695H50.653Z" transform="translate(0 -14.922)" fill="#8d98aa"/>
    <path id="Path_150781" data-name="Path 150781" d="M233.335,295.819a4.582,4.582,0,0,0-2.969-1.056h-.015a4.578,4.578,0,0,0-2.96,1.038.974.974,0,0,0,1.255,1.489,2.67,2.67,0,0,1,1.7-.58h.009a2.672,2.672,0,0,1,1.71.59.974.974,0,0,0,1.264-1.481Z" transform="translate(-197.57 -236.701)" fill="#8d98aa"/>
    <path id="Path_150782" data-name="Path 150782" d="M287.879,267.013h-.042a.973.973,0,0,0-.088,1.942h.022c.024,0,.048,0,.072,0h.005a.963.963,0,0,0,.1-.005.973.973,0,0,0-.069-1.941Z" transform="translate(-249.627 -212.553)" fill="#8d98aa"/>
    <path id="Path_150783" data-name="Path 150783" d="M206.244,267.012h-.017a.974.974,0,0,0,.006,1.947h.005a.974.974,0,0,0,.005-1.947Z" transform="translate(-178.612 -212.553)" fill="#8d98aa"/>
    <path id="Path_150784" data-name="Path 150784" d="M156,111.1h0c.021,0,.043,0,.065,0l.035,0h.005a.974.974,0,0,0,.195-1.927h0c-.03-.006-.061-.011-.091-.014l-.034,0c-.02,0-.041,0-.061,0h-.018a.968.968,0,0,0-.969.974A.978.978,0,0,0,156,111.1Z" transform="translate(-134.986 -75.195)" fill="#8d98aa"/>
    <path id="Path_150785" data-name="Path 150785" d="M178.792,111.109a.974.974,0,1,0,0-1.947h-.012a.969.969,0,0,0-.968.974A.979.979,0,0,0,178.792,111.109Z" transform="translate(-154.728 -75.195)" fill="#8d98aa"/>
    <path id="Path_150786" data-name="Path 150786" d="M201.482,111.109a.974.974,0,1,0,0-1.947h-.012a.969.969,0,0,0-.968.974A.979.979,0,0,0,201.482,111.109Z" transform="translate(-174.472 -75.195)" fill="#8d98aa"/>
    <path id="Path_150787" data-name="Path 150787" d="M53.182,113.239a.973.973,0,0,0,1.377,0l.519-.519.519.519a.974.974,0,1,0,1.377-1.377l-.519-.519.519-.519a.974.974,0,0,0-1.377-1.377l-.519.519-.519-.519a.974.974,0,1,0-1.377,1.377l.519.519-.519.519a.974.974,0,0,0,0,1.377Z" transform="translate(-46.03 -75.196)" fill="#8d98aa"/>
    <path id="Path_150788" data-name="Path 150788" d="M428.645,103.941a.974.974,0,0,0,1.377,0l.519-.519.519.519a.974.974,0,0,0,1.377-1.377l-.519-.519.519-.519a.974.974,0,1,0-1.377-1.377l-.519.519-.519-.519a.974.974,0,0,0-1.377,1.377l.519.519-.519.519a.973.973,0,0,0,0,1.377Z" transform="translate(-372.749 -67.105)" fill="#8d98aa"/>
    <path id="Path_150789" data-name="Path 150789" d="M237.719,26.825a.973.973,0,0,0,1.377,0l.519-.519.519.519a.974.974,0,1,0,1.377-1.377l-.519-.519.519-.519a.974.974,0,1,0-1.377-1.377l-.519.519-.519-.519a.974.974,0,1,0-1.377,1.377l.519.519-.519.519A.974.974,0,0,0,237.719,26.825Z" transform="translate(-206.61 0)" fill="#8d98aa"/>
  </g>
</svg>
