<svg id="noun_Bell_3407997" xmlns="http://www.w3.org/2000/svg" width="17.204" height="22.5" viewBox="0 0 17.204 22.5">
  <g id="Group_16761" data-name="Group 16761">
    <path id="Path_22321" data-name="Path 22321" d="M30.57,17.942l-1.066-1.3a5.491,5.491,0,0,1-1.232-3.434V10.789A6.019,6.019,0,0,0,23.56,4.916V3.779a1.279,1.279,0,1,0-2.558,0V4.916a6,6,0,0,0-4.713,5.874v2.416a5.356,5.356,0,0,1-1.232,3.434l-1.066,1.3a1.4,1.4,0,0,0,1.066,2.274H29.481A1.4,1.4,0,0,0,30.57,17.942Z" transform="translate(-13.678 -2.5)" fill="#fff"/>
    <path id="Path_22322" data-name="Path 22322" d="M40.079,87.579A3.073,3.073,0,0,0,43.158,84.5H37A3.073,3.073,0,0,0,40.079,87.579Z" transform="translate(-31.477 -65.079)" fill="#fff"/>
  </g>
</svg>
