<svg xmlns="http://www.w3.org/2000/svg" width="62" height="62" viewBox="0 0 62 62"><g transform="translate(-1231 -150)"><rect width="54" height="54" rx="8" transform="translate(1231 150)" fill="#5d3ebd" opacity="0.1"/><g transform="translate(1248 167)"><path d="M13.163,40.313H5.587C1.819,40.313,0,38.569,0,34.969V5.344C0,1.744,1.838,0,5.587,0h7.575c3.769,0,5.587,1.744,5.587,5.344V34.969C18.75,38.569,16.913,40.313,13.163,40.313ZM5.587,2.813c-2.381,0-2.775.637-2.775,2.531V34.969c0,1.894.394,2.531,2.775,2.531h7.575c2.381,0,2.775-.638,2.775-2.531V5.344c0-1.894-.394-2.531-2.775-2.531Z" transform="translate(2.344 2.344)" fill="#5d3ebd"/><path d="M13.163,23.437H5.587C1.819,23.437,0,21.694,0,18.094V5.344C0,1.744,1.837,0,5.587,0h7.575c3.769,0,5.587,1.744,5.587,5.344v12.75C18.75,21.694,16.913,23.437,13.163,23.437ZM5.587,2.813c-2.381,0-2.775.637-2.775,2.531v12.75c0,1.894.394,2.531,2.775,2.531h7.575c2.381,0,2.775-.637,2.775-2.531V5.344c0-1.894-.394-2.531-2.775-2.531Z" transform="translate(23.906 2.344)" fill="#5d3ebd"/><path d="M13.163,14.063H5.587C1.819,14.063,0,12.319,0,8.719V5.344C0,1.744,1.837,0,5.587,0h7.575c3.769,0,5.587,1.744,5.587,5.344V8.719C18.75,12.319,16.913,14.063,13.163,14.063ZM5.587,2.813c-2.381,0-2.775.638-2.775,2.531V8.719c0,1.894.394,2.531,2.775,2.531h7.575c2.381,0,2.775-.637,2.775-2.531V5.344c0-1.894-.394-2.531-2.775-2.531Z" transform="translate(23.906 28.594)" fill="#fed029"/><path d="M0,0H45V45H0Z" fill="none" opacity="0"/></g></g></svg>