<svg xmlns="http://www.w3.org/2000/svg" width="62" height="62" viewBox="0 0 62 62"><g transform="translate(-1231 -150)"><rect width="54" height="54" rx="8" transform="translate(1231 150)" fill="#5d3ebd" opacity="0.1"/><g transform="translate(1248 167)"><path d="M7.85,19.765H1.412A1.422,1.422,0,0,1,0,18.353V5.2A5.206,5.206,0,0,1,5.2,0h.019A8.934,8.934,0,0,1,14.1,8.941V13.5A5.913,5.913,0,0,1,7.85,19.765ZM2.824,16.942H7.85A3.141,3.141,0,0,0,11.294,13.5V8.941a6.106,6.106,0,0,0-6.08-6.118H5.2a2.366,2.366,0,0,0-1.675.7,2.334,2.334,0,0,0-.7,1.675Z" transform="translate(28.529 2.353)" fill="#5d3ebd"/><path d="M14.57,41.386a3.222,3.222,0,0,1-2.334-.975l-3.125-3.13a.464.464,0,0,0-.621-.037l-3.219,2.4A3.29,3.29,0,0,1,0,37.019V8.9C0,3.243,3.257,0,8.941,0H31.53a1.419,1.419,0,0,1,1.412,1.406A1.419,1.419,0,0,1,31.53,2.812a2.349,2.349,0,0,0-2.353,2.343V37.019a3.291,3.291,0,0,1-5.271,2.624l-3.219-2.4a.459.459,0,0,0-.6.037L16.923,40.43A3.357,3.357,0,0,1,14.57,41.386ZM8.753,34.338a3.252,3.252,0,0,1,2.353.975l3.125,3.13a.5.5,0,0,0,.678,0l3.162-3.149a3.285,3.285,0,0,1,4.311-.281l3.2,2.38a.432.432,0,0,0,.489.037.466.466,0,0,0,.264-.412V5.154A5.127,5.127,0,0,1,26.9,2.812H8.923C4.744,2.812,2.8,4.742,2.8,8.9V37.019a.475.475,0,0,0,.264.431.441.441,0,0,0,.489-.056l3.219-2.4A3.334,3.334,0,0,1,8.753,34.338Z" transform="translate(2.371 2.353)" fill="#5d3ebd"/><path d="M12.706,2.824H1.412A1.422,1.422,0,0,1,0,1.412,1.422,1.422,0,0,1,1.412,0H12.706a1.422,1.422,0,0,1,1.412,1.412A1.422,1.422,0,0,1,12.706,2.824Z" transform="translate(9.826 15.465)" fill="#fed029"/><path d="M9.883,2.824H1.412A1.422,1.422,0,0,1,0,1.412,1.422,1.422,0,0,1,1.412,0H9.883a1.422,1.422,0,0,1,1.412,1.412A1.422,1.422,0,0,1,9.883,2.824Z" transform="translate(11.235 22.963)" fill="#fed029"/><path d="M0,0H45V45H0Z" fill="none" opacity="0"/></g></g></svg>