<svg xmlns="http://www.w3.org/2000/svg" width="62" height="62" viewBox="0 0 62 62"><g transform="translate(-1231 -150)"><rect width="54" height="54" rx="8" transform="translate(1231 150)" fill="#5d3ebd" opacity="0.1"/><g transform="translate(1248 167)"><path d="M0,7.125a1.5,1.5,0,0,1-1.5-1.5V0A1.5,1.5,0,0,1,0-1.5,1.5,1.5,0,0,1,1.5,0V5.625A1.5,1.5,0,0,1,0,7.125Z" transform="translate(15 3.75)" fill="#5d3ebd"/><path d="M0,7.125a1.5,1.5,0,0,1-1.5-1.5V0A1.5,1.5,0,0,1,0-1.5,1.5,1.5,0,0,1,1.5,0V5.625A1.5,1.5,0,0,1,0,7.125Z" transform="translate(30 3.75)" fill="#5d3ebd"/><path d="M31.875,1.5H0A1.5,1.5,0,0,1-1.5,0,1.5,1.5,0,0,1,0-1.5H31.875a1.5,1.5,0,0,1,1.5,1.5A1.5,1.5,0,0,1,31.875,1.5Z" transform="translate(6.563 17.044)" fill="#5d3ebd"/><path d="M9.375-1.5h15c3.589,0,6.364,1.029,8.248,3.057A11.093,11.093,0,0,1,35.25,9.375V24.112a1.5,1.5,0,0,1-2.626.991,5.993,5.993,0,0,0-10.5,3.959,5.851,5.851,0,0,0,.864,3.075l.019.032a5.269,5.269,0,0,0,1.149,1.369,1.5,1.5,0,0,1-.964,2.649H9.375c-3.589,0-6.364-1.029-8.248-3.057A11.093,11.093,0,0,1-1.5,25.313V9.375A11.093,11.093,0,0,1,1.127,1.557C3.011-.471,5.786-1.5,9.375-1.5ZM32.25,21.068V9.375A8.239,8.239,0,0,0,30.424,3.6C29.131,2.206,27.1,1.5,24.375,1.5h-15c-2.721,0-4.756.706-6.049,2.1A8.239,8.239,0,0,0,1.5,9.375V25.313a8.239,8.239,0,0,0,1.826,5.776c1.293,1.393,3.328,2.1,6.049,2.1H20.137a8.99,8.99,0,0,1,7.988-13.125A8.972,8.972,0,0,1,32.25,21.068Z" transform="translate(5.625 6.563)" fill="#5d3ebd"/><g transform="translate(26.25 28.125)"><path d="M7.5-1.5a9,9,0,0,1,6.751,3.059l0,0A9.033,9.033,0,0,1,16.5,7.5a8.849,8.849,0,0,1-1.3,4.64A8.943,8.943,0,0,1,7.5,16.5a8.85,8.85,0,0,1-5.915-2.243A8.188,8.188,0,0,1-.2,12.134,8.851,8.851,0,0,1-1.5,7.5a9,9,0,0,1,9-9ZM12,3.539A5.993,5.993,0,0,0,1.5,7.5a5.851,5.851,0,0,0,.864,3.075l.019.032a5.269,5.269,0,0,0,1.149,1.369l.04.034A5.951,5.951,0,0,0,12.623,10.6l.012-.021A5.851,5.851,0,0,0,13.5,7.5,6.034,6.034,0,0,0,12,3.539Z" fill="#fed029"/><path d="M1.856,5.194A1.5,1.5,0,0,1,.8,4.754L-1.061,2.9a1.5,1.5,0,0,1,0-2.121,1.5,1.5,0,0,1,2.121,0l.836.836L4.831-1.1a1.5,1.5,0,0,1,2.12.083A1.5,1.5,0,0,1,6.868,1.1L2.875,4.795A1.5,1.5,0,0,1,1.856,5.194Z" transform="translate(4.575 5.662)" fill="#fed029"/></g><path d="M0,0H45V45H0Z" fill="none" opacity="0"/><path d="M8.316,10.737a1.182,1.182,0,0,1-1.182,1.182H4.809a1.182,1.182,0,0,1,0-2.365H7.134A1.182,1.182,0,0,1,8.316,10.737Zm13.965,0A1.182,1.182,0,0,1,21.1,11.919H18.773a1.182,1.182,0,0,1,0-2.365H21.1A1.182,1.182,0,0,1,22.281,10.737Zm-6.989,0a1.182,1.182,0,0,1-1.182,1.182H11.784a1.182,1.182,0,0,1,0-2.365h2.325A1.182,1.182,0,0,1,15.292,10.737ZM8.316,17.712a1.182,1.182,0,0,1-1.182,1.182H4.809a1.182,1.182,0,1,1,0-2.365H7.134A1.182,1.182,0,0,1,8.316,17.712Z" transform="translate(9.547 13.901)" fill="#fed029"/></g></g></svg>