<svg xmlns="http://www.w3.org/2000/svg" width="62" height="62" viewBox="0 0 62 62"><g transform="translate(-1231 -150)"><rect width="54" height="54" rx="8" transform="translate(1231 150)" fill="#5d3ebd" opacity="0.1"/><g transform="translate(1248 167)"><path d="M0,7.125a1.5,1.5,0,0,1-1.5-1.5V0A1.5,1.5,0,0,1,0-1.5,1.5,1.5,0,0,1,1.5,0V5.625A1.5,1.5,0,0,1,0,7.125Z" transform="translate(15 3.75)" fill="#5d3ebd"/><path d="M0,7.125a1.5,1.5,0,0,1-1.5-1.5V0A1.5,1.5,0,0,1,0-1.5,1.5,1.5,0,0,1,1.5,0V5.625A1.5,1.5,0,0,1,0,7.125Z" transform="translate(30 3.75)" fill="#5d3ebd"/><path d="M31.875,1.5H0A1.5,1.5,0,0,1-1.5,0,1.5,1.5,0,0,1,0-1.5H31.875a1.5,1.5,0,0,1,1.5,1.5A1.5,1.5,0,0,1,31.875,1.5Z" transform="translate(6.563 17.044)" fill="#5d3ebd"/><path d="M9.375-1.5h15c3.589,0,6.364,1.029,8.248,3.057A11.093,11.093,0,0,1,35.25,9.375V25.313a11.093,11.093,0,0,1-2.627,7.818c-1.884,2.029-4.659,3.057-8.248,3.057h-15c-3.589,0-6.364-1.029-8.248-3.057A11.093,11.093,0,0,1-1.5,25.313V9.375A11.093,11.093,0,0,1,1.127,1.557C3.011-.471,5.786-1.5,9.375-1.5Zm15,34.688c2.721,0,4.756-.706,6.049-2.1a8.239,8.239,0,0,0,1.826-5.776V9.375A8.239,8.239,0,0,0,30.424,3.6C29.131,2.206,27.1,1.5,24.375,1.5h-15c-2.721,0-4.756.706-6.049,2.1A8.239,8.239,0,0,0,1.5,9.375V25.313a8.239,8.239,0,0,0,1.826,5.776c1.293,1.393,3.328,2.1,6.049,2.1Z" transform="translate(5.625 6.563)" fill="#5d3ebd"/><path d="M0,0H45V45H0Z" fill="none" opacity="0"/><path d="M8.207,10.709a1.155,1.155,0,0,1-1.155,1.155H4.781a1.155,1.155,0,0,1,0-2.31H7.052A1.155,1.155,0,0,1,8.207,10.709Zm13.641,0a1.155,1.155,0,0,1-1.155,1.155H18.422a1.155,1.155,0,0,1,0-2.31h2.271A1.155,1.155,0,0,1,21.848,10.709Zm-6.827,0a1.155,1.155,0,0,1-1.155,1.155H11.6a1.155,1.155,0,1,1,0-2.31h2.271A1.155,1.155,0,0,1,15.021,10.709ZM8.207,17.523a1.155,1.155,0,0,1-1.155,1.155H4.781a1.155,1.155,0,1,1,0-2.31H7.052A1.155,1.155,0,0,1,8.207,17.523Zm13.641,0a1.155,1.155,0,0,1-1.155,1.155H18.422a1.155,1.155,0,1,1,0-2.31h2.271A1.155,1.155,0,0,1,21.848,17.523Zm-6.827,0a1.155,1.155,0,0,1-1.155,1.155H11.6a1.155,1.155,0,1,1,0-2.31h2.271A1.155,1.155,0,0,1,15.021,17.523Z" transform="translate(9.763 14.777)" fill="#fed029"/></g></g></svg>