<svg xmlns="http://www.w3.org/2000/svg" width="22" height="22" viewBox="0 0 22 22"><g transform="translate(-428 -188)"><g transform="translate(428 188)"><g transform="translate(5.519 3.724)"><path d="M8.589,1.052,9.881,3.637a1.613,1.613,0,0,0,1.036.77l2.338.385c1.494.247,1.842,1.329.77,2.411L12.2,9.027a1.583,1.583,0,0,0-.376,1.329l.522,2.255c.413,1.778-.541,2.475-2.108,1.54l-2.191-1.3a1.556,1.556,0,0,0-1.448,0l-2.191,1.3c-1.568.926-2.521.238-2.108-1.54l.523-2.255a1.6,1.6,0,0,0-.376-1.329L.623,7.2C-.45,6.13-.1,5.049,1.393,4.792L3.73,4.407a1.583,1.583,0,0,0,1.036-.77L6.059,1.052C6.746-.351,7.883-.351,8.589,1.052Z" fill="none" stroke="#fff" stroke-linecap="round" stroke-linejoin="round" stroke-width="1.5"/></g><path d="M5.5,0H0" transform="translate(1.833 4.583)" fill="none" stroke="#fff" stroke-linecap="round" stroke-linejoin="round" stroke-width="1.5" opacity="0.4"/><path d="M2.75,0H0" transform="translate(1.833 17.417)" fill="none" stroke="#fff" stroke-linecap="round" stroke-linejoin="round" stroke-width="1.5" opacity="0.4"/><path d="M.917,0H0" transform="translate(1.833 11)" fill="none" stroke="#fff" stroke-linecap="round" stroke-linejoin="round" stroke-width="1.5" opacity="0.4"/><path d="M0,0H22V22H0Z" fill="none" opacity="0"/></g></g></svg>