<svg xmlns="http://www.w3.org/2000/svg" width="12" height="12" viewBox="0 0 12 12"><path d="M13.649,7.759a1.271,1.271,0,0,0,.294-1.3A1.255,1.255,0,0,0,12.928,5.6l-2.576-.4a.084.084,0,0,1-.054-.048l-1.129-2.4a1.268,1.268,0,0,0-2.312-.018l-1.129,2.4a.1.1,0,0,1-.06.048L3.1,5.6a1.273,1.273,0,0,0-1.021.858,1.289,1.289,0,0,0,.3,1.3l1.9,1.95a.1.1,0,0,1,0,.078L3.83,12.51a1.273,1.273,0,0,0,1.88,1.326l2.24-1.242a.078.078,0,0,1,.072,0l2.24,1.242a1.279,1.279,0,0,0,1.88-1.326L11.727,9.8a.072.072,0,0,1,0-.072Z" transform="translate(-2.012 -2)" fill="#fed029"/></svg>