<svg xmlns="http://www.w3.org/2000/svg" width="22" height="22" viewBox="0 0 22 22"><g transform="translate(-236 -252)"><g transform="translate(236 252)"><path d="M0,1.9V0" transform="translate(6.307 14.74)" fill="none" stroke="#fff" stroke-linecap="round" stroke-width="1.5" opacity="0.4"/><path d="M0,3.795V0" transform="translate(11 12.843)" fill="none" stroke="#fff" stroke-linecap="round" stroke-width="1.5" opacity="0.4"/><path d="M0,5.7V0" transform="translate(15.693 10.936)" fill="none" stroke="#fff" stroke-linecap="round" stroke-width="1.5" opacity="0.4"/><g transform="translate(6.307 5.362)" opacity="0.4"><path d="M9.387,0,8.965.495A17.309,17.309,0,0,1,0,6.032" fill="none" stroke="#fff" stroke-linecap="round" stroke-width="1.5"/><path d="M0,0H2.686V2.677" transform="translate(6.701)" fill="none" stroke="#fff" stroke-linecap="round" stroke-linejoin="round" stroke-width="1.5"/></g><path d="M6.417,18.333h5.5c4.583,0,6.417-1.833,6.417-6.417v-5.5C18.333,1.833,16.5,0,11.917,0h-5.5C1.833,0,0,1.833,0,6.417v5.5C0,16.5,1.833,18.333,6.417,18.333Z" transform="translate(1.833 1.833)" fill="none" stroke="#fff" stroke-linecap="round" stroke-linejoin="round" stroke-width="1.5"/><path d="M0,0H22V22H0Z" fill="none" opacity="0"/></g></g></svg>