<svg xmlns="http://www.w3.org/2000/svg" width="40" height="40" viewBox="0 0 40 40">
  <g id="vuesax_twotone_pause" data-name="vuesax/twotone/pause" transform="translate(-620 -380)">
    <g id="pause" transform="translate(620 380)">
      <path id="Vector" d="M12.75,26.85V3.15C12.75.9,11.8,0,9.4,0H3.35C.95,0,0,.9,0,3.15v23.7C0,29.1.95,30,3.35,30H9.4C11.8,30,12.75,29.1,12.75,26.85Z" transform="translate(5 5)" fill="none" stroke="#ef5350" stroke-linecap="round" stroke-linejoin="round" stroke-width="1.5" opacity="0.4"/>
      <path id="Vector-2" data-name="Vector" d="M12.75,26.85V3.15C12.75.9,11.8,0,9.4,0H3.35C.967,0,0,.9,0,3.15v23.7C0,29.1.95,30,3.35,30H9.4C11.8,30,12.75,29.1,12.75,26.85Z" transform="translate(22.25 5)" fill="none" stroke="#ef5350" stroke-linecap="round" stroke-linejoin="round" stroke-width="1.5"/>
      <path id="Vector-3" data-name="Vector" d="M0,0H40V40H0Z" fill="none" opacity="0"/>
    </g>
  </g>
</svg>
