<svg id="Group_132172" data-name="Group 132172" xmlns="http://www.w3.org/2000/svg" width="30" height="30" viewBox="0 0 30 30">
  <rect id="Rectangle_110317" data-name="Rectangle 110317" width="30" height="30" fill="#171e48" opacity="0"/>
  <g id="Group_132182" data-name="Group 132182" transform="translate(4.01 3.247)">
    <path id="Vector" d="M8.713.62,1.689,5.206a3.718,3.718,0,0,0,0,6.231l7.024,4.586a4.563,4.563,0,0,0,4.6,0L20.3,11.437a3.718,3.718,0,0,0,0-6.219L13.311.632A4.535,4.535,0,0,0,8.713.62Z" transform="translate(0 0)" fill="none" stroke="#fff" stroke-linecap="round" stroke-linejoin="round" stroke-width="1.5"/>
    <path id="Vector-2" data-name="Vector" d="M.012,0,0,5.473A3.981,3.981,0,0,0,2.544,9.008l3.722,1.237a4.487,4.487,0,0,0,2.357,0l3.722-1.237a3.981,3.981,0,0,0,2.544-3.536V.058" transform="translate(3.544 12.93)" fill="none" stroke="#fff" stroke-linecap="round" stroke-linejoin="round" stroke-width="1.5"/>
    <path id="Vector-3" data-name="Vector" d="M0,7V0" transform="translate(21.957 8.17)" fill="none" stroke="#fff" stroke-linecap="round" stroke-linejoin="round" stroke-width="1.5"/>
  </g>
</svg>
