<svg xmlns="http://www.w3.org/2000/svg" width="23.997" height="23.997" viewBox="0 0 23.997 23.997"><path d="M18.013.5C14.681.17,11.328,0,7.986,0A59.31,59.31,0,0,0,2.041.3L0,.5" transform="translate(2.992 5.48)" fill="none" stroke="#ef5350" stroke-linecap="round" stroke-linejoin="round" stroke-width="1.5"/><path d="M0,2.962.219,1.656C.379.708.5,0,2.184,0H4.8C6.483,0,6.612.748,6.762,1.666l.219,1.3" transform="translate(8.508 1.995)" fill="none" stroke="#ef5350" stroke-linecap="round" stroke-linejoin="round" stroke-width="1.5" opacity="0.34"/><path d="M13.724,0l-.651,10.043c-.11,1.566-.2,2.783-3,2.783H3.647c-2.795,0-2.885-1.217-3-2.783L0,0" transform="translate(5.136 9.177)" fill="none" stroke="#ef5350" stroke-linecap="round" stroke-linejoin="round" stroke-width="1.5"/><path d="M0,0H3.321" transform="translate(10.333 16.498)" fill="none" stroke="#ef5350" stroke-linecap="round" stroke-linejoin="round" stroke-width="1.5" opacity="0.34"/><path d="M0,0H4.987" transform="translate(9.505 12.498)" fill="none" stroke="#ef5350" stroke-linecap="round" stroke-linejoin="round" stroke-width="1.5" opacity="0.34"/><path d="M0,0H24V24H0Z" fill="none" opacity="0"/></svg>